{"glyphs":{"0":{"ha":760,"x_min":49,"x_max":711,"o":"m 380 747 q 318 747 380 747 q 256 458 256 747 q 380 169 256 169 q 504 458 504 169 q 380 747 504 747 m 379 928 q 461 928 379 928 q 627 801 543 928 q 711 460 711 675 q 627 117 711 244 q 379 -11 543 -11 q 132 116 215 -11 q 49 459 49 243 q 132 801 49 675 q 379 928 215 928 z "},"1":{"ha":528,"x_min":14,"x_max":444,"o":"m 444 0 l 243 0 l 243 690 l 14 553 l 14 760 l 269 908 l 444 908 l 444 0 z "},"2":{"ha":696,"x_min":42,"x_max":647,"o":"m 647 0 l 42 0 l 42 157 q 306 385 192 260 q 421 606 421 510 q 386 698 421 664 q 281 732 351 732 q 57 644 163 732 l 57 840 q 176 897 103 874 q 321 921 250 921 q 547 847 463 921 q 631 639 631 772 q 325 172 631 399 l 647 172 l 647 0 z "},"3":{"ha":671,"x_min":42,"x_max":622,"o":"m 622 250 q 534 63 622 133 q 292 -7 446 -7 q 42 40 139 -7 l 42 235 q 271 174 153 174 q 377 203 339 174 q 415 276 415 232 q 228 378 415 378 l 179 378 l 179 544 l 228 544 q 349 569 301 544 q 396 644 396 594 q 271 740 396 740 q 78 681 175 740 l 78 869 q 285 921 181 921 q 518 851 432 921 q 604 668 604 781 q 464 456 604 514 q 622 250 622 418 z "},"4":{"ha":781,"x_min":42,"x_max":753,"o":"m 642 0 l 440 0 l 440 193 l 42 193 l 42 365 l 319 911 l 642 911 l 642 365 l 753 365 l 753 193 l 642 193 l 642 0 m 440 365 l 440 776 l 240 365 l 440 365 z "},"5":{"ha":694,"x_min":49,"x_max":653,"o":"m 346 589 q 574 513 494 589 q 653 299 653 436 q 559 77 653 163 q 303 -8 465 -8 q 49 40 142 -8 l 49 232 q 260 174 143 174 q 446 307 446 174 q 408 386 446 357 q 278 415 369 415 q 88 369 186 415 l 88 911 l 597 911 l 597 739 l 285 739 l 285 585 q 346 589 315 589 z "},"6":{"ha":746,"x_min":49,"x_max":711,"o":"m 389 153 q 474 190 443 153 q 504 288 504 228 q 474 381 504 347 q 390 415 444 415 q 258 356 315 415 q 389 153 274 153 m 453 586 q 509 586 453 586 q 638 507 565 586 q 711 292 711 428 q 624 65 711 157 q 378 -28 538 -28 q 134 92 219 -28 q 49 415 49 213 q 176 786 49 647 q 497 925 303 925 q 640 903 571 925 l 640 715 q 514 744 586 744 q 352 684 415 744 q 267 522 289 624 q 453 586 342 586 z "},"7":{"ha":667,"x_min":28,"x_max":639,"o":"m 28 738 l 28 910 l 639 910 l 639 738 l 286 0 l 72 0 l 426 738 l 28 738 z "},"8":{"ha":757,"x_min":49,"x_max":708,"o":"m 375 764 q 293 733 319 764 q 267 653 267 701 q 299 575 267 604 q 378 546 331 546 q 458 575 426 546 q 490 657 490 604 q 375 764 490 764 m 376 368 q 345 368 376 368 q 283 333 314 368 q 251 253 251 299 q 281 178 251 208 q 376 147 311 147 q 473 178 440 147 q 506 257 506 210 q 472 336 506 304 q 376 368 438 368 m 708 253 q 616 60 708 133 q 374 -14 524 -14 q 137 56 225 -14 q 49 246 49 126 q 181 458 49 393 q 63 654 63 526 q 151 853 63 782 q 378 925 239 925 q 605 857 517 925 q 693 659 693 789 q 579 463 693 529 q 708 253 708 403 z "},"9":{"ha":740,"x_min":28,"x_max":692,"o":"m 692 483 q 574 112 692 235 q 258 -11 456 -11 q 93 15 164 -11 l 93 207 q 236 172 165 172 q 404 222 344 172 q 482 376 464 271 q 301 317 422 317 q 103 395 179 317 q 28 607 28 474 q 113 831 28 740 q 353 921 199 921 q 599 803 507 921 q 692 483 692 686 m 353 481 q 488 543 436 481 q 354 740 471 740 q 267 706 300 740 q 235 612 235 671 q 267 517 235 553 q 353 481 299 481 z "}," ":{"ha":347,"x_min":0,"x_max":0,"o":""},"!":{"ha":401,"x_min":72,"x_max":325,"o":"m 288 205 q 307 186 288 205 q 325 115 325 168 q 288 26 325 63 q 199 -11 251 -11 q 109 26 146 -11 q 72 115 72 63 q 109 205 72 168 q 199 242 146 242 q 288 205 251 242 m 297 328 l 104 328 l 104 936 l 297 936 l 297 328 z "},"\"":{"ha":538,"x_min":56,"x_max":482,"o":"m 225 583 l 56 583 l 56 946 l 225 946 l 225 583 m 482 583 l 313 583 l 313 946 l 482 946 l 482 583 z "},"#":{"ha":1051,"x_min":63,"x_max":989,"o":"m 596 368 l 635 556 l 446 556 l 406 368 l 596 368 m 63 214 l 63 368 l 235 368 l 274 556 l 110 556 l 110 717 l 308 717 l 354 935 l 526 935 l 481 717 l 669 717 l 715 935 l 888 935 l 842 717 l 989 717 l 989 556 l 807 556 l 767 368 l 942 368 l 942 214 l 735 214 l 689 0 l 518 0 l 563 214 l 374 214 l 328 0 l 157 0 l 201 214 l 63 214 z "},"$":{"ha":714,"x_min":47,"x_max":665,"o":"m 415 -164 l 247 -164 l 247 -7 q 56 47 132 4 l 56 263 q 325 171 182 171 q 406 197 374 171 q 438 264 438 222 q 422 310 438 294 q 397 333 407 325 q 366 351 386 340 q 332 368 346 361 q 247 407 289 390 q 102 510 157 449 q 47 675 47 571 q 118 851 47 779 q 315 938 189 922 l 315 1097 l 485 1097 l 485 935 q 624 894 558 924 l 624 694 q 390 760 511 760 q 308 738 336 760 q 279 681 279 715 q 314 619 279 646 q 405 567 349 592 q 490 527 461 542 q 555 487 518 513 q 614 433 592 461 q 665 265 665 364 q 598 93 665 167 q 415 -3 531 19 l 415 -164 z "},"%":{"ha":1351,"x_min":63,"x_max":1289,"o":"m 953 324 q 939 309 953 324 q 924 253 924 294 q 953 181 924 211 q 1025 151 983 151 q 1097 181 1067 151 q 1126 253 1126 211 q 1097 324 1126 294 q 1025 354 1067 354 q 953 324 983 354 m 1212 440 q 1250 401 1212 440 q 1289 253 1289 363 q 1212 66 1289 143 q 1025 -11 1135 -11 q 838 66 915 -11 q 761 253 761 143 q 838 440 761 363 q 1025 517 915 517 q 1212 440 1135 517 m 255 810 q 240 795 255 810 q 225 739 225 781 q 255 667 225 697 q 326 638 285 638 q 398 667 368 638 q 428 739 428 697 q 398 810 428 781 q 326 840 368 840 q 255 810 285 840 m 513 926 q 552 887 513 926 q 590 739 590 849 q 513 552 590 629 q 326 475 436 475 q 140 552 217 475 q 63 739 63 629 q 140 926 63 849 q 326 1003 217 1003 q 513 926 436 1003 m 497 -1 l 315 -1 l 842 982 l 1025 982 l 497 -1 z "},"&":{"ha":1031,"x_min":69,"x_max":1024,"o":"m 276 258 q 276 237 276 258 q 331 185 276 215 q 458 156 385 156 q 590 181 532 156 q 400 366 408 358 q 386 379 392 374 q 299 329 322 357 q 276 258 276 301 m 465 -11 q 176 67 282 -11 q 69 256 69 144 q 267 492 69 428 q 172 697 172 596 q 257 888 172 821 q 479 956 342 956 q 699 887 617 956 q 782 694 782 818 q 735 549 782 613 q 585 433 689 486 l 721 300 q 746 418 746 354 l 928 418 q 850 171 928 279 l 1024 0 l 775 0 l 721 54 q 465 -11 608 -11 m 378 700 q 474 543 378 639 q 578 683 578 600 q 549 763 578 735 q 476 790 521 790 q 404 767 431 790 q 378 700 378 743 z "},"'":{"ha":281,"x_min":56,"x_max":225,"o":"m 225 583 l 56 583 l 56 946 l 225 946 l 225 583 z "},"(":{"ha":469,"x_min":56,"x_max":497,"o":"m 282 -272 q 56 365 56 10 q 274 982 56 721 l 483 982 q 326 682 382 858 q 269 356 269 506 q 328 35 269 207 q 497 -272 386 -136 l 282 -272 z "},")":{"ha":469,"x_min":-28,"x_max":414,"o":"m -28 -272 q 142 35 83 -136 q 200 356 200 207 q 144 682 200 506 q -14 982 88 858 l 196 982 q 414 365 414 721 q 188 -272 414 10 l -28 -272 z "},"*":{"ha":706,"x_min":39,"x_max":668,"o":"m 272 800 l 272 936 l 436 936 l 436 800 q 425 731 436 761 q 488 761 449 749 l 618 803 l 668 647 l 540 606 q 471 594 506 594 l 468 594 q 518 544 500 571 l 599 433 l 465 338 l 386 447 q 356 507 364 478 q 322 449 344 481 l 240 338 l 108 435 l 189 544 q 238 593 210 572 q 169 606 206 593 l 39 649 l 90 804 l 219 763 q 282 731 256 750 q 272 800 272 764 z "},"+":{"ha":818,"x_min":63,"x_max":756,"o":"m 756 381 l 501 381 l 501 131 l 315 131 l 315 381 l 63 381 l 63 561 l 315 561 l 315 813 l 501 813 l 501 561 l 756 561 l 756 381 z "},",":{"ha":408,"x_min":-10,"x_max":354,"o":"m 165 -176 l -10 -176 l 131 186 l 354 186 l 165 -176 z "},"-":{"ha":496,"x_min":63,"x_max":433,"o":"m 433 281 l 63 281 l 63 447 l 433 447 l 433 281 z "},".":{"ha":358,"x_min":56,"x_max":303,"o":"m 267 200 q 285 182 267 200 q 303 113 303 164 q 267 25 303 61 q 179 -11 231 -11 q 92 25 128 -11 q 56 113 56 61 q 92 200 56 164 q 179 236 128 236 q 267 200 231 236 z "},"/":{"ha":644,"x_min":-3,"x_max":707,"o":"m 207 -143 l -3 -143 l 496 982 l 707 982 l 207 -143 z "},":":{"ha":397,"x_min":76,"x_max":321,"o":"m 285 209 q 303 191 285 209 q 321 122 321 174 q 285 35 321 71 q 199 0 250 0 q 112 35 147 0 q 76 122 76 71 q 112 209 76 174 q 199 244 147 244 q 285 209 250 244 m 285 669 q 303 651 285 669 q 321 582 321 633 q 285 495 321 531 q 199 460 250 460 q 112 495 147 460 q 76 582 76 531 q 112 669 76 633 q 199 704 147 704 q 285 669 250 704 z "},";":{"ha":408,"x_min":-10,"x_max":354,"o":"m 310 669 q 328 651 310 669 q 346 582 346 633 q 310 495 346 531 q 224 460 275 460 q 137 495 172 460 q 101 582 101 531 q 137 669 101 633 q 224 704 172 704 q 310 669 275 704 m 165 -176 l -10 -176 l 131 186 l 354 186 l 165 -176 z "},"<":{"ha":818,"x_min":63,"x_max":756,"o":"m 756 329 l 756 129 l 63 376 l 63 568 l 756 815 l 756 615 l 264 472 l 756 329 z "},"=":{"ha":818,"x_min":63,"x_max":756,"o":"m 756 231 l 63 231 l 63 397 l 756 397 l 756 231 m 756 547 l 63 547 l 63 714 l 756 714 l 756 547 z "},">":{"ha":818,"x_min":63,"x_max":756,"o":"m 756 376 l 63 129 l 63 329 l 554 472 l 63 615 l 63 815 l 756 568 l 756 376 z "},"?":{"ha":636,"x_min":90,"x_max":594,"o":"m 359 205 q 377 186 359 205 q 396 115 396 168 q 359 26 396 63 q 269 -11 322 -11 q 180 26 217 -11 q 143 115 143 63 q 180 205 143 168 q 269 242 217 242 q 359 205 322 242 m 389 668 q 359 748 389 718 q 271 778 329 778 q 90 718 181 778 l 90 908 q 303 947 174 947 q 514 878 433 947 q 594 693 594 810 q 569 580 594 631 q 507 500 544 529 q 368 442 429 442 l 364 328 l 179 328 l 175 538 q 389 668 389 538 z "},"@":{"ha":1357,"x_min":56,"x_max":1308,"o":"m 800 283 l 801 339 q 758 438 793 404 q 672 472 724 472 q 578 424 619 472 q 538 299 538 375 q 574 185 538 224 q 660 146 611 146 q 748 182 708 146 q 800 283 788 218 m 650 -300 q 326 -219 464 -300 q 122 -8 189 -137 q 56 289 56 121 q 146 608 56 457 q 389 846 236 760 q 709 932 542 932 q 1009 868 876 932 q 1225 677 1142 804 q 1308 385 1308 550 q 1226 110 1308 221 q 1026 0 1143 0 q 814 151 863 0 q 730 40 786 78 q 603 1 674 1 q 425 87 490 1 q 360 306 360 172 q 444 528 360 440 q 643 617 529 617 q 811 515 757 617 q 818 614 817 583 l 979 614 l 961 307 q 1032 157 961 157 q 1111 215 1081 157 q 1142 371 1142 272 q 1022 668 1142 568 q 714 768 901 768 q 459 697 571 768 q 290 513 347 625 q 233 272 233 400 q 353 -26 233 85 q 649 -136 472 -136 q 928 -72 794 -136 l 922 -243 q 650 -300 794 -300 z "},"A":{"ha":958,"x_min":32,"x_max":926,"o":"m 256 0 l 32 0 l 344 936 l 614 936 l 926 0 l 697 0 l 640 192 l 313 192 l 256 0 m 476 781 q 364 364 468 719 l 589 364 q 476 781 496 682 z "},"B":{"ha":840,"x_min":90,"x_max":792,"o":"m 418 388 l 304 388 l 304 171 l 417 171 q 575 279 575 171 q 418 388 575 388 m 418 765 l 304 765 l 304 556 l 383 556 q 509 586 467 556 q 551 667 551 617 q 418 765 551 765 m 494 0 l 90 0 l 90 936 l 454 936 q 689 863 608 936 q 769 678 769 790 q 731 549 769 604 q 629 474 692 493 q 792 254 792 425 q 712 72 792 143 q 494 0 632 0 z "},"C":{"ha":851,"x_min":56,"x_max":782,"o":"m 538 -11 q 194 122 332 -11 q 56 467 56 254 q 190 814 56 679 q 539 949 324 949 q 782 896 697 949 l 782 690 q 558 754 678 754 q 361 676 438 754 q 285 467 285 597 q 361 260 285 336 q 563 185 438 185 q 782 251 689 185 l 782 42 q 538 -11 697 -11 z "},"D":{"ha":949,"x_min":90,"x_max":893,"o":"m 406 760 l 310 760 l 310 175 l 407 175 q 606 256 536 175 q 676 472 676 336 q 606 684 676 608 q 406 760 535 760 m 410 0 l 90 0 l 90 936 l 413 936 q 758 806 624 936 q 893 483 893 676 q 760 129 893 258 q 410 0 628 0 z "},"E":{"ha":756,"x_min":90,"x_max":672,"o":"m 672 0 l 90 0 l 90 936 l 667 936 l 667 765 l 306 765 l 306 553 l 628 553 l 628 383 l 306 383 l 306 171 l 672 171 l 672 0 z "},"F":{"ha":703,"x_min":90,"x_max":661,"o":"m 615 353 l 306 353 l 306 0 l 90 0 l 90 936 l 661 936 l 661 765 l 306 765 l 306 524 l 615 524 l 615 353 z "},"G":{"ha":981,"x_min":56,"x_max":897,"o":"m 897 86 q 550 -11 764 -11 q 196 118 336 -11 q 56 468 56 247 q 202 821 56 689 q 574 953 349 953 q 847 894 732 953 l 847 681 q 578 757 714 757 q 364 678 442 757 q 286 469 286 600 q 363 260 286 338 q 571 182 439 182 q 689 200 631 182 l 689 376 l 538 376 l 538 558 l 897 558 l 897 86 z "},"H":{"ha":953,"x_min":90,"x_max":863,"o":"m 863 0 l 647 0 l 647 374 l 304 374 l 304 0 l 90 0 l 90 936 l 304 936 l 304 556 l 647 556 l 647 936 l 863 936 l 863 0 z "},"I":{"ha":422,"x_min":104,"x_max":318,"o":"m 318 0 l 104 0 l 104 936 l 318 936 l 318 0 z "},"J":{"ha":544,"x_min":42,"x_max":461,"o":"m 461 283 q 390 74 461 149 q 190 -1 318 -1 q 42 26 94 -1 l 42 215 q 149 183 93 183 q 247 289 247 183 l 247 935 l 461 935 l 461 283 z "},"K":{"ha":919,"x_min":90,"x_max":896,"o":"m 304 0 l 90 0 l 90 936 l 304 936 l 304 0 m 896 0 l 628 0 l 314 465 l 617 936 l 871 936 l 564 468 l 896 0 z "},"L":{"ha":678,"x_min":90,"x_max":650,"o":"m 650 0 l 90 0 l 90 936 l 304 936 l 304 188 l 650 188 l 650 0 z "},"M":{"ha":1240,"x_min":69,"x_max":1171,"o":"m 283 0 l 69 0 l 150 936 l 385 936 q 574 435 553 499 q 610 314 596 371 q 707 597 632 406 l 839 936 l 1074 936 l 1171 0 l 957 0 l 922 363 l 904 636 q 672 10 875 551 l 546 10 q 325 636 354 526 q 313 363 325 538 l 283 0 z "},"N":{"ha":968,"x_min":90,"x_max":878,"o":"m 304 0 l 90 0 l 90 936 l 325 936 l 543 549 q 678 264 638 381 q 664 549 664 367 l 664 936 l 878 936 l 878 0 l 643 0 l 419 388 q 294 643 332 536 l 283 678 q 304 388 304 553 l 304 0 z "},"O":{"ha":1022,"x_min":56,"x_max":967,"o":"m 346 680 q 315 641 346 680 q 285 471 285 603 q 346 262 285 339 q 511 185 407 185 q 676 262 615 185 q 738 471 738 339 q 676 680 738 603 q 511 757 615 757 q 346 680 407 757 m 512 951 q 616 951 512 951 q 843 819 719 951 q 967 472 967 688 q 842 123 967 256 q 510 -10 718 -10 q 179 122 303 -10 q 56 470 56 254 q 180 819 56 686 q 512 951 304 951 z "},"P":{"ha":782,"x_min":90,"x_max":761,"o":"m 388 765 l 304 765 l 304 472 l 375 472 q 544 626 544 472 q 388 765 544 765 m 413 303 l 304 303 l 304 0 l 90 0 l 90 936 l 413 936 q 665 849 568 936 q 761 617 761 761 q 660 388 761 472 q 413 303 560 303 z "},"Q":{"ha":1029,"x_min":56,"x_max":1025,"o":"m 346 680 q 315 641 346 680 q 285 471 285 603 q 346 262 285 339 q 511 185 407 185 q 676 262 615 185 q 738 471 738 339 q 676 680 738 603 q 511 757 615 757 q 346 680 407 757 m 967 471 q 907 213 967 324 q 739 43 847 101 l 1025 -117 l 782 -210 l 506 -10 q 178 124 300 -8 q 56 471 56 256 q 180 819 56 686 q 512 951 304 951 q 843 819 719 951 q 967 471 967 688 z "},"R":{"ha":853,"x_min":90,"x_max":828,"o":"m 304 0 l 90 0 l 90 936 l 414 936 q 666 853 571 936 q 761 636 761 769 q 590 360 761 436 l 828 0 l 572 0 l 369 325 l 304 325 l 304 0 m 410 763 l 304 763 l 304 499 l 406 499 q 544 635 544 499 q 508 728 544 694 q 410 763 472 763 z "},"S":{"ha":714,"x_min":54,"x_max":672,"o":"m 672 272 q 579 67 672 146 q 326 -11 486 -11 q 63 47 167 -11 l 63 263 q 332 171 189 171 q 413 197 381 171 q 444 264 444 222 q 429 310 444 294 q 403 333 414 325 q 373 351 393 340 q 339 368 353 361 q 254 407 296 389 q 109 510 164 449 q 54 682 54 571 q 143 867 54 793 q 381 942 232 942 q 631 894 529 942 l 631 694 q 397 760 518 760 q 315 738 343 760 q 286 681 286 715 q 321 619 286 646 q 412 567 356 592 q 497 527 468 542 q 562 487 525 513 q 619 433 599 461 q 672 272 672 364 z "},"T":{"ha":756,"x_min":42,"x_max":714,"o":"m 714 764 l 486 764 l 486 0 l 271 0 l 271 764 l 42 764 l 42 936 l 714 936 l 714 764 z "},"U":{"ha":928,"x_min":83,"x_max":844,"o":"m 844 363 q 742 83 844 179 q 465 -14 639 -14 q 188 82 292 -14 q 83 353 83 178 l 83 936 l 297 936 l 297 354 q 464 181 297 181 q 631 361 631 181 l 631 936 l 844 936 l 844 363 z "},"V":{"ha":915,"x_min":26,"x_max":889,"o":"m 574 0 l 338 0 l 26 936 l 257 936 l 369 563 q 458 193 431 363 q 549 563 481 338 l 661 936 l 889 936 l 574 0 z "},"W":{"ha":1349,"x_min":26,"x_max":1322,"o":"m 517 0 l 278 0 l 26 936 l 251 936 q 383 391 365 481 q 411 233 401 301 q 599 922 433 335 l 757 922 q 940 233 910 374 q 1018 593 958 357 l 1104 936 l 1322 936 l 1072 0 l 833 0 q 678 592 690 517 q 603 296 674 535 l 517 0 z "},"X":{"ha":921,"x_min":38,"x_max":883,"o":"m 296 0 l 38 0 l 333 475 l 51 936 l 300 936 l 456 663 l 604 936 l 865 936 l 582 474 l 883 0 l 629 0 l 460 292 l 296 0 z "},"Y":{"ha":893,"x_min":18,"x_max":875,"o":"m 551 0 l 338 0 l 338 343 l 18 936 l 268 936 q 443 500 408 600 q 565 800 457 563 l 626 936 l 875 936 l 551 344 l 551 0 z "},"Z":{"ha":863,"x_min":83,"x_max":779,"o":"m 779 0 l 83 0 l 83 157 l 503 764 l 92 764 l 92 936 l 763 936 l 763 785 l 340 172 l 779 172 l 779 0 z "},"[":{"ha":504,"x_min":90,"x_max":483,"o":"m 483 -272 l 90 -272 l 90 982 l 483 982 l 483 806 l 282 806 l 282 -94 l 483 -94 l 483 -272 z "},"\\":{"ha":644,"x_min":-62,"x_max":647,"o":"m 647 -143 l 438 -143 l -62 982 l 149 982 l 647 -143 z "},"]":{"ha":504,"x_min":21,"x_max":414,"o":"m 414 -272 l 21 -272 l 21 -94 l 222 -94 l 222 806 l 21 806 l 21 982 l 414 982 l 414 -272 z "},"^":{"ha":682,"x_min":46,"x_max":636,"o":"m 233 461 l 46 461 l 256 825 l 426 825 l 636 461 l 449 461 l 342 664 l 233 461 z "},"_":{"ha":758,"x_min":28,"x_max":731,"o":"m 731 -231 l 28 -231 l 28 -62 l 731 -62 l 731 -231 z "},"`":{"ha":694,"x_min":186,"x_max":508,"o":"m 508 863 l 340 863 l 186 1108 l 389 1108 l 508 863 z "},"a":{"ha":717,"x_min":49,"x_max":640,"o":"m 267 -4 q 106 54 164 -4 q 49 207 49 113 q 123 358 49 301 q 343 414 197 414 l 432 414 l 432 463 q 316 551 432 551 q 103 488 200 551 l 103 669 q 340 717 186 717 q 567 652 493 717 q 640 451 640 588 l 640 0 l 442 0 l 442 86 q 267 -4 397 -4 m 342 139 q 408 165 385 139 q 432 238 432 192 l 432 289 l 367 289 q 288 267 315 289 q 260 210 260 244 q 342 139 260 139 z "},"b":{"ha":849,"x_min":83,"x_max":800,"o":"m 443 544 q 411 544 443 544 q 333 496 379 544 q 286 358 286 447 q 329 215 286 269 q 439 161 372 161 q 550 213 506 161 q 594 353 594 265 q 551 493 594 442 q 443 544 507 544 m 286 0 l 83 0 l 83 982 l 286 982 l 286 596 q 493 713 358 713 q 714 617 628 713 q 800 363 800 521 q 717 99 800 206 q 496 -8 635 -8 q 286 110 357 -8 l 286 0 z "},"c":{"ha":651,"x_min":49,"x_max":610,"o":"m 413 -11 q 151 90 254 -11 q 49 350 49 190 q 151 612 51 508 q 425 715 251 715 q 610 675 532 715 l 610 501 q 449 547 536 547 q 308 497 361 547 q 254 350 256 446 q 310 206 260 257 q 444 154 360 154 q 610 203 529 154 l 610 33 q 413 -11 528 -11 z "},"d":{"ha":849,"x_min":49,"x_max":765,"o":"m 765 0 l 563 0 l 563 110 q 353 -8 492 -8 q 131 99 214 -8 q 49 363 49 206 q 135 617 49 521 q 356 713 221 713 q 563 596 490 713 l 563 982 l 765 982 l 765 0 m 406 544 q 374 544 406 544 q 298 493 342 544 q 254 353 254 442 q 299 213 254 265 q 410 161 343 161 q 519 215 476 161 q 563 358 563 269 q 516 496 563 447 q 406 544 469 544 z "},"e":{"ha":740,"x_min":49,"x_max":679,"o":"m 382 557 q 296 522 333 557 q 246 417 258 486 l 490 417 l 490 433 q 382 557 481 557 m 636 40 q 403 -7 564 -7 q 145 94 242 -7 q 49 358 49 194 q 142 616 49 521 q 376 711 236 711 q 597 628 515 711 q 679 382 679 546 q 668 272 679 350 l 254 272 q 326 182 275 214 q 450 150 378 150 q 636 210 557 150 l 636 40 z "},"f":{"ha":481,"x_min":42,"x_max":508,"o":"m 467 556 l 335 556 l 335 0 l 133 0 l 133 556 l 42 556 l 42 704 l 133 704 l 133 731 q 205 929 133 858 q 403 1000 276 1000 q 508 986 468 1000 l 508 822 q 428 838 469 838 q 335 731 335 838 l 335 704 l 467 704 l 467 556 z "},"g":{"ha":813,"x_min":56,"x_max":736,"o":"m 397 542 q 301 494 336 542 q 267 362 267 447 q 300 231 267 276 q 397 185 333 185 q 498 234 461 185 q 535 353 535 283 q 397 542 535 542 m 736 68 q 635 -187 736 -101 q 383 -272 533 -272 q 121 -219 232 -272 l 121 -12 q 360 -90 218 -90 q 493 -51 451 -90 q 535 71 535 -12 l 535 118 q 349 24 474 24 q 140 110 224 24 q 56 356 56 196 q 137 613 56 515 q 347 711 218 711 q 535 611 475 711 l 535 704 l 736 704 l 736 68 z "},"h":{"ha":806,"x_min":83,"x_max":729,"o":"m 729 0 l 526 0 l 526 417 q 496 513 526 478 q 417 547 465 547 q 336 519 376 547 q 286 372 286 483 l 286 0 l 83 0 l 83 982 l 286 982 l 286 585 q 497 711 340 711 q 665 646 600 711 q 729 449 729 581 l 729 0 z "},"i":{"ha":383,"x_min":74,"x_max":310,"o":"m 275 992 q 292 974 275 992 q 310 908 310 957 q 275 825 310 860 q 192 790 240 790 q 108 825 143 790 q 74 908 74 860 q 108 992 74 957 q 192 1026 143 1026 q 275 992 240 1026 m 293 0 l 90 0 l 90 704 l 293 704 l 293 0 z "},"j":{"ha":381,"x_min":-56,"x_max":314,"o":"m 279 992 q 297 974 279 992 q 314 908 314 957 q 279 825 314 860 q 196 790 244 790 q 113 825 147 790 q 78 908 78 860 q 113 992 78 957 q 196 1026 147 1026 q 279 992 244 1026 m 297 -29 q 235 -208 297 -140 q 54 -275 172 -275 q -56 -253 6 -275 l -56 -99 q 24 -119 -10 -119 q 96 -26 96 -119 l 96 704 l 297 704 l 297 -29 z "},"k":{"ha":761,"x_min":83,"x_max":746,"o":"m 286 0 l 83 0 l 83 958 l 286 958 l 286 389 l 508 704 l 742 704 l 497 367 l 746 0 l 511 0 l 286 346 l 286 0 z "},"l":{"ha":383,"x_min":90,"x_max":293,"o":"m 293 0 l 90 0 l 90 982 l 293 982 l 293 0 z "},"m":{"ha":1193,"x_min":83,"x_max":1117,"o":"m 1117 0 l 914 0 l 914 418 q 890 513 914 478 q 821 547 867 547 q 738 509 775 547 q 701 372 701 471 l 701 0 l 499 0 l 499 418 q 475 513 499 478 q 406 547 451 547 q 323 509 360 547 q 286 372 286 471 l 286 0 l 83 0 l 83 704 l 286 704 l 286 594 q 489 711 344 711 q 682 578 633 711 q 761 676 706 640 q 892 711 817 711 q 1056 645 996 711 q 1117 451 1117 579 l 1117 0 z "},"n":{"ha":806,"x_min":83,"x_max":729,"o":"m 729 0 l 526 0 l 526 419 q 497 515 526 482 q 414 547 468 547 q 323 503 360 547 q 286 372 286 460 l 286 0 l 83 0 l 83 704 l 286 704 l 286 585 q 367 677 313 643 q 499 711 422 711 q 668 647 607 711 q 729 457 729 582 l 729 0 z "},"o":{"ha":788,"x_min":49,"x_max":739,"o":"m 293 499 q 276 470 293 499 q 260 351 260 442 q 294 203 260 261 q 395 146 328 146 q 495 202 463 146 q 528 349 528 258 q 393 556 528 556 q 293 499 326 556 m 398 715 q 478 715 398 715 q 649 614 558 715 q 739 354 739 513 q 648 92 739 196 q 393 -11 557 -11 q 139 88 229 -11 q 49 347 49 188 q 143 610 49 506 q 398 715 238 715 z "},"p":{"ha":849,"x_min":83,"x_max":800,"o":"m 445 544 q 413 544 445 544 q 333 496 381 544 q 286 358 286 447 q 331 215 286 269 q 443 161 375 161 q 553 212 511 161 q 594 354 594 263 q 552 495 594 446 q 445 544 510 544 m 286 -260 l 83 -260 l 83 704 l 286 704 l 286 596 q 497 713 360 713 q 717 616 635 713 q 800 358 800 519 q 720 94 800 197 q 498 -8 640 -8 q 286 104 356 -8 l 286 -260 z "},"q":{"ha":849,"x_min":49,"x_max":765,"o":"m 765 -260 l 563 -260 l 563 110 q 351 -8 492 -8 q 129 94 210 -8 q 49 358 49 197 q 132 616 49 519 q 353 713 215 713 q 563 596 490 713 l 563 704 l 765 704 l 765 -260 m 406 544 q 374 544 406 544 q 298 493 342 544 q 254 353 254 442 q 299 213 254 265 q 410 161 343 161 q 519 215 476 161 q 563 358 563 269 q 516 496 563 447 q 406 544 469 544 z "},"r":{"ha":514,"x_min":82,"x_max":507,"o":"m 285 0 l 82 0 l 83 704 l 285 704 l 285 574 q 349 672 304 635 q 454 708 394 708 q 507 703 488 708 l 507 511 q 431 526 474 526 q 325 478 365 526 q 285 351 285 431 l 285 0 z "},"s":{"ha":606,"x_min":74,"x_max":564,"o":"m 564 213 q 489 51 564 108 q 288 -6 414 -6 q 76 38 163 -6 l 76 218 q 279 151 172 151 q 356 200 356 151 q 325 244 356 226 q 265 273 303 257 q 214 296 228 289 q 74 496 74 363 q 152 656 74 599 q 343 713 231 713 q 528 683 456 713 l 528 510 q 356 553 454 553 q 300 538 319 553 q 281 506 281 524 q 288 478 281 489 q 310 457 294 467 q 341 440 326 447 q 381 421 356 432 q 519 331 475 381 q 564 213 564 281 z "},"t":{"ha":536,"x_min":14,"x_max":494,"o":"m 356 -7 q 115 233 115 -7 l 115 556 l 14 556 l 14 704 l 115 704 l 115 871 l 318 871 l 318 704 l 482 704 l 482 556 l 318 556 l 318 232 q 340 175 318 194 q 406 156 361 156 q 494 183 451 156 l 494 15 q 356 -7 443 -7 z "},"u":{"ha":806,"x_min":76,"x_max":722,"o":"m 722 0 l 519 0 l 519 113 q 306 -6 464 -6 q 137 55 197 -6 q 76 233 76 115 l 76 704 l 279 704 l 279 279 q 388 156 279 156 q 519 332 519 156 l 519 704 l 722 704 l 722 0 z "},"v":{"ha":744,"x_min":7,"x_max":738,"o":"m 475 0 l 267 0 l 7 704 l 219 704 q 347 276 331 342 q 372 157 363 211 q 435 404 385 247 l 529 704 l 738 704 l 475 0 z "},"w":{"ha":1119,"x_min":7,"x_max":1113,"o":"m 442 0 l 233 0 l 7 704 l 217 704 q 338 192 324 299 q 406 472 347 275 l 474 704 l 649 704 q 782 192 764 303 q 847 472 792 274 l 913 704 l 1113 704 l 888 0 l 679 0 q 561 492 578 385 q 503 231 547 399 l 442 0 z "},"x":{"ha":731,"x_min":22,"x_max":725,"o":"m 242 0 l 22 0 l 274 353 l 38 704 l 263 704 l 376 494 l 503 704 l 725 704 l 472 351 l 707 0 l 486 0 l 368 211 l 242 0 z "},"y":{"ha":739,"x_min":7,"x_max":732,"o":"m 143 -275 q 65 -268 100 -275 l 65 -107 q 113 -112 88 -112 q 279 11 228 -112 l 7 704 l 228 704 q 379 239 363 318 q 524 704 397 307 l 732 704 l 478 21 q 143 -275 368 -275 z "},"z":{"ha":665,"x_min":56,"x_max":610,"o":"m 610 0 l 56 0 l 56 146 l 364 549 l 68 549 l 68 704 l 593 704 l 593 564 l 285 157 l 610 157 l 610 0 z "},"{":{"ha":528,"x_min":56,"x_max":493,"o":"m 401 -286 q 242 -215 304 -286 q 181 -36 181 -144 q 189 47 181 -6 q 197 122 197 100 q 165 216 197 175 q 79 257 133 257 l 56 256 l 56 451 l 79 451 q 165 492 133 451 q 197 585 197 532 q 189 660 197 607 q 181 743 181 713 q 242 922 181 851 q 401 993 304 993 q 493 976 444 993 l 493 789 q 447 801 472 801 q 400 780 421 801 q 379 733 379 758 q 388 653 379 708 q 396 565 396 599 q 348 422 396 481 q 235 354 300 363 q 348 286 300 346 q 396 142 396 226 q 388 53 396 108 q 379 -26 379 -1 q 400 -73 379 -51 q 447 -94 421 -94 q 493 -82 472 -94 l 493 -269 q 401 -286 444 -286 z "},"|":{"ha":389,"x_min":97,"x_max":292,"o":"m 292 -269 l 97 -269 l 97 965 l 292 965 l 292 -269 z "},"}":{"ha":528,"x_min":35,"x_max":472,"o":"m 347 -36 q 285 -215 347 -144 q 126 -286 224 -286 q 35 -269 83 -286 l 35 -82 q 81 -94 56 -94 q 128 -73 107 -94 q 149 -26 149 -51 q 140 53 149 -1 q 132 142 132 108 q 180 286 132 226 q 293 354 228 346 q 180 422 228 363 q 132 565 132 481 q 140 653 132 599 q 149 733 149 708 q 128 780 149 758 q 81 801 107 801 q 35 789 56 801 l 35 976 q 126 993 83 993 q 285 922 224 993 q 347 743 347 851 q 339 660 347 713 q 331 585 331 607 q 363 492 331 532 q 449 451 394 451 l 472 451 l 472 256 q 449 257 463 257 q 363 216 394 257 q 331 122 331 175 q 339 47 331 100 q 347 -36 347 -6 z "},"~":{"ha":908,"x_min":39,"x_max":868,"o":"m 628 263 q 459 297 549 263 q 323 331 369 331 q 246 311 276 331 q 179 250 215 292 l 39 361 q 144 467 82 422 q 288 513 207 513 q 460 478 369 513 q 591 444 551 444 q 661 464 631 444 q 728 526 692 483 l 868 414 q 628 263 761 263 z "}," ":{"ha":347,"x_min":0,"x_max":0,"o":""},"¡":{"ha":401,"x_min":72,"x_max":325,"o":"m 288 681 q 307 663 288 681 q 325 592 325 644 q 288 502 325 539 q 199 465 251 465 q 109 502 146 465 q 72 592 72 539 q 109 681 72 644 q 199 718 146 718 q 288 681 251 718 m 297 -229 l 104 -229 l 104 379 l 297 379 l 297 -229 z "},"¢":{"ha":664,"x_min":42,"x_max":608,"o":"m 499 -154 l 331 -154 l 331 -4 q 122 117 203 21 q 42 350 42 213 q 120 582 44 485 q 329 706 196 679 l 329 861 l 499 861 l 499 708 q 608 671 558 697 l 608 501 q 447 547 535 547 q 303 496 358 547 q 247 350 249 444 q 305 206 253 258 q 442 154 357 154 q 608 203 528 154 l 608 33 q 499 -3 560 8 l 499 -154 z "},"£":{"ha":750,"x_min":61,"x_max":704,"o":"m 704 0 l 63 0 l 63 168 q 164 349 164 221 l 164 371 l 61 371 l 61 518 l 144 518 q 140 583 140 551 q 222 828 140 740 q 465 917 304 917 q 656 872 583 917 l 656 681 q 511 726 592 726 q 365 575 365 726 q 368 518 365 557 l 599 518 l 599 371 l 383 371 l 383 347 q 299 171 383 225 l 704 171 l 704 0 z "},"¤":{"ha":793,"x_min":39,"x_max":754,"o":"m 292 537 q 271 515 292 537 q 250 432 250 493 q 292 327 250 371 q 397 283 333 283 q 503 327 461 283 q 544 432 544 371 q 503 537 544 493 q 397 581 461 581 q 292 537 333 581 m 121 276 q 81 431 81 349 q 119 585 81 514 l 39 664 l 157 778 l 238 699 q 396 738 308 738 q 556 700 483 738 l 636 778 l 754 664 l 674 585 q 714 431 714 511 q 672 276 714 350 l 754 197 l 636 83 l 554 161 q 397 125 485 125 q 238 163 308 125 l 157 83 l 39 197 l 121 276 z "},"¥":{"ha":882,"x_min":13,"x_max":869,"o":"m 789 163 l 546 163 l 546 0 l 332 0 l 332 163 l 92 163 l 92 288 l 332 288 l 332 350 l 317 376 l 92 376 l 92 501 l 246 501 l 13 910 l 263 910 l 438 568 l 621 910 l 869 910 l 633 501 l 789 501 l 789 376 l 561 376 l 546 350 l 546 288 l 789 288 l 789 163 z "},"¦":{"ha":389,"x_min":97,"x_max":292,"o":"m 292 -162 l 97 -162 l 97 307 l 292 307 l 292 -162 m 292 513 l 97 513 l 97 982 l 292 982 l 292 513 z "},"§":{"ha":832,"x_min":79,"x_max":738,"o":"m 549 539 q 691 431 644 489 q 738 278 738 372 q 679 114 738 183 q 722 -11 722 57 q 633 -193 722 -126 q 383 -260 543 -260 q 119 -201 224 -260 l 119 14 q 389 -78 246 -78 q 503 -11 503 -78 q 461 52 503 25 q 247 154 419 79 q 79 408 79 229 q 143 571 79 494 q 101 693 101 624 q 187 876 101 807 q 416 944 272 944 q 665 896 560 944 l 665 696 q 438 763 550 763 q 325 694 325 763 q 339 658 325 669 q 363 638 353 646 q 395 619 374 631 q 435 597 417 607 q 488 571 454 588 q 549 539 521 554 m 521 233 q 532 276 532 256 q 524 313 532 297 q 506 341 517 329 q 473 367 496 353 q 432 389 450 381 q 300 456 367 422 q 285 397 285 429 q 321 336 285 365 q 426 277 357 307 q 521 233 496 247 z "},"¨":{"ha":694,"x_min":46,"x_max":649,"o":"m 160 1099 q 185 1099 160 1099 q 242 1066 210 1099 q 275 985 275 1033 q 242 905 275 938 q 160 872 210 872 q 78 905 111 872 q 46 985 46 938 q 78 1066 46 1033 q 160 1099 111 1099 m 533 1099 q 557 1099 533 1099 q 615 1066 582 1099 q 649 985 649 1033 q 615 905 649 938 q 533 872 582 872 q 451 905 483 872 q 418 985 418 938 q 451 1066 418 1033 q 533 1099 483 1099 z "},"©":{"ha":1057,"x_min":49,"x_max":1008,"o":"m 528 813 q 454 813 528 813 q 281 715 379 813 q 183 467 183 617 q 281 219 183 317 q 528 122 379 122 q 776 219 678 122 q 874 467 874 317 q 776 715 874 617 q 528 813 678 813 m 529 949 q 628 949 529 949 q 868 808 728 949 q 1008 469 1008 667 q 868 130 1008 271 q 529 -11 728 -11 q 190 130 331 -11 q 49 469 49 271 q 190 808 49 668 q 529 949 331 949 m 676 267 q 535 238 622 238 q 377 301 447 238 q 308 469 307 365 q 374 638 308 572 q 551 703 440 703 q 676 672 619 703 l 676 542 q 577 572 628 572 q 496 546 526 572 q 464 468 465 519 q 495 392 467 419 q 573 365 524 365 q 676 399 622 365 l 676 267 z "},"ª":{"ha":556,"x_min":14,"x_max":514,"o":"m 197 540 q 63 589 111 540 q 14 718 14 638 q 76 847 14 799 q 263 896 139 896 l 339 896 l 339 935 q 240 1010 339 1010 q 58 957 142 1010 l 58 1111 q 260 1150 131 1150 q 452 1096 390 1150 q 514 928 514 1042 l 514 544 l 347 544 l 347 617 q 197 540 311 540 m 263 661 q 318 684 297 661 q 339 744 339 707 l 339 789 l 282 789 q 215 770 239 789 q 192 721 192 751 q 263 661 192 661 z "},"«":{"ha":822,"x_min":36,"x_max":764,"o":"m 458 126 l 247 126 l 36 351 l 247 576 l 458 576 l 256 351 l 458 126 m 561 351 l 764 126 l 553 126 l 342 351 l 553 576 l 764 576 l 561 351 z "},"¬":{"ha":838,"x_min":63,"x_max":775,"o":"m 775 189 l 608 189 l 608 418 l 63 418 l 63 579 l 775 579 l 775 189 z "},"­":{"ha":496,"x_min":63,"x_max":433,"o":"m 433 281 l 63 281 l 63 447 l 433 447 l 433 281 z "},"®":{"ha":683,"x_min":14,"x_max":669,"o":"m 166 943 q 133 909 166 943 q 100 765 100 875 q 166 589 100 656 q 342 522 232 522 q 519 589 453 522 q 585 765 585 656 q 519 943 585 875 q 342 1011 453 1011 q 166 943 232 1011 m 576 999 q 623 953 576 999 q 669 765 669 907 q 576 532 669 624 q 341 440 483 440 q 106 531 199 440 q 14 765 14 622 q 106 1000 14 908 q 341 1092 199 1092 q 576 999 483 1092 m 342 878 l 317 878 l 317 793 l 347 793 q 376 806 365 793 q 386 836 386 818 q 342 878 386 878 m 317 611 l 242 611 l 242 940 l 339 940 q 465 836 465 940 q 413 744 465 769 l 496 611 l 404 611 l 335 731 l 317 731 l 317 611 z "},"¯":{"ha":694,"x_min":100,"x_max":594,"o":"m 594 904 l 100 904 l 100 1042 l 594 1042 l 594 904 z "},"°":{"ha":611,"x_min":42,"x_max":569,"o":"m 219 774 q 201 756 219 774 q 183 688 183 738 q 219 601 183 638 q 306 565 256 565 q 392 601 356 565 q 428 688 428 638 q 392 774 428 738 q 306 810 356 810 q 219 774 256 810 m 492 874 q 531 836 492 874 q 569 688 569 797 q 492 501 569 578 q 306 424 415 424 q 119 501 196 424 q 42 688 42 578 q 119 874 42 797 q 306 951 196 951 q 492 874 415 951 z "},"±":{"ha":818,"x_min":63,"x_max":756,"o":"m 756 39 l 63 39 l 63 206 l 756 206 l 756 39 m 756 453 l 501 453 l 501 258 l 315 258 l 315 453 l 63 453 l 63 619 l 315 619 l 315 813 l 501 813 l 501 619 l 756 619 l 756 453 z "},"²":{"ha":507,"x_min":49,"x_max":458,"o":"m 458 544 l 49 544 l 49 651 q 217 801 149 724 q 285 940 285 879 q 200 1011 285 1011 q 63 960 135 1011 l 63 1106 q 228 1151 135 1151 q 380 1101 321 1151 q 439 961 439 1050 q 233 669 439 801 l 458 669 l 458 544 z "},"³":{"ha":490,"x_min":49,"x_max":442,"o":"m 319 847 q 407 806 372 842 q 442 701 442 769 q 384 585 442 632 q 222 539 326 539 q 49 576 118 539 l 49 707 q 206 665 128 665 q 267 683 244 665 q 290 728 290 701 q 172 785 290 785 l 151 785 l 151 908 l 171 908 q 278 965 278 908 q 206 1022 278 1022 q 71 974 135 1022 l 71 1114 q 227 1151 136 1151 q 375 1105 318 1151 q 432 983 432 1058 q 402 894 432 929 q 319 847 372 858 z "},"´":{"ha":694,"x_min":186,"x_max":508,"o":"m 354 863 l 186 863 l 306 1108 l 508 1108 l 354 863 z "},"µ":{"ha":813,"x_min":83,"x_max":729,"o":"m 286 -250 l 83 -250 l 83 704 l 286 704 l 286 279 q 321 188 286 219 q 413 156 356 156 q 498 195 469 156 q 526 332 526 235 l 526 704 l 729 704 l 729 0 l 526 0 l 526 83 q 382 -6 479 -6 q 286 14 332 -6 l 286 -250 z "},"¶":{"ha":822,"x_min":14,"x_max":732,"o":"m 732 -206 l 578 -206 l 579 936 l 732 936 l 732 -206 m 450 -206 l 296 -206 l 296 440 q 88 513 161 440 q 14 690 14 586 q 90 865 14 793 q 322 936 165 936 l 450 936 l 450 -206 z "},"·":{"ha":372,"x_min":63,"x_max":310,"o":"m 274 438 q 292 419 274 438 q 310 350 310 401 q 274 263 310 299 q 186 226 238 226 q 99 263 135 226 q 63 350 63 299 q 99 438 63 401 q 186 474 135 474 q 274 438 238 474 z "},"¸":{"ha":694,"x_min":222,"x_max":471,"o":"m 471 -174 q 408 -317 471 -261 q 222 -372 344 -372 l 222 -246 q 299 -222 272 -246 q 326 -158 326 -199 q 290 -71 326 -118 l 447 -71 q 471 -174 471 -108 z "},"¹":{"ha":388,"x_min":14,"x_max":318,"o":"m 318 544 l 175 544 l 175 990 l 14 904 l 14 1040 l 200 1146 l 318 1146 l 318 544 z "},"º":{"ha":614,"x_min":14,"x_max":600,"o":"m 306 1018 q 221 969 249 1018 q 193 844 193 921 q 222 718 193 767 q 309 669 251 669 q 394 717 367 669 q 421 840 421 764 q 306 1018 421 1018 m 311 1153 q 380 1153 311 1153 q 524 1067 449 1153 q 600 846 600 981 q 523 624 600 711 q 306 536 446 536 q 90 621 167 536 q 14 840 14 706 q 94 1064 14 975 q 311 1153 174 1153 z "},"»":{"ha":821,"x_min":57,"x_max":785,"o":"m 268 126 l 57 126 l 260 351 l 57 576 l 268 576 l 479 351 l 268 126 m 785 351 l 574 126 l 363 126 l 565 351 l 363 576 l 574 576 l 785 351 z "},"¼":{"ha":1151,"x_min":14,"x_max":1140,"o":"m 1068 0 l 926 0 l 926 119 l 657 119 l 657 238 l 842 597 l 1068 597 l 1068 238 l 1140 238 l 1140 119 l 1068 119 l 1068 0 m 926 238 l 926 490 l 803 238 l 926 238 m 318 386 l 175 386 l 175 832 l 14 746 l 14 882 l 200 988 l 318 988 l 318 386 m 322 0 l 171 0 l 767 988 l 917 988 l 322 0 z "},"½":{"ha":1157,"x_min":14,"x_max":1135,"o":"m 1135 0 l 725 0 l 725 107 q 893 257 825 179 q 961 396 961 335 q 876 467 961 467 q 739 415 811 467 l 739 561 q 904 607 811 607 q 1056 556 997 607 q 1115 417 1115 506 q 910 125 1115 257 l 1135 125 l 1135 0 m 318 386 l 175 386 l 175 832 l 14 746 l 14 882 l 200 988 l 318 988 l 318 386 m 322 0 l 171 0 l 767 988 l 917 988 l 322 0 z "},"¾":{"ha":1247,"x_min":32,"x_max":1214,"o":"m 1142 0 l 1000 0 l 1000 119 l 731 119 l 731 238 l 915 597 l 1142 597 l 1142 238 l 1214 238 l 1214 119 l 1142 119 l 1142 0 m 1000 238 l 1000 490 l 876 238 l 1000 238 m 303 688 q 390 646 356 682 q 425 541 425 610 q 367 426 425 472 q 206 379 310 379 q 32 417 101 379 l 32 547 q 189 506 111 506 q 251 524 228 506 q 274 568 274 542 q 156 625 274 625 l 135 625 l 135 749 l 154 749 q 261 806 261 749 q 190 863 261 863 q 54 814 118 863 l 54 954 q 210 992 118 992 q 358 945 301 992 q 415 824 415 899 q 385 734 415 769 q 303 688 356 699 m 396 0 l 244 0 l 840 988 l 990 988 l 396 0 z "},"¿":{"ha":636,"x_min":90,"x_max":594,"o":"m 505 683 q 523 664 505 683 q 542 593 542 646 q 505 503 542 540 q 415 467 468 467 q 326 503 363 467 q 289 593 289 540 q 326 683 289 646 q 415 719 363 719 q 505 683 468 719 m 594 -200 q 381 -239 511 -239 q 171 -170 251 -239 q 90 15 90 -101 q 115 128 90 78 q 178 208 140 179 q 317 267 256 267 l 321 381 l 506 381 l 510 171 q 296 40 296 171 q 326 -40 296 -10 q 414 -69 356 -69 q 594 -10 504 -69 l 594 -200 z "},"À":{"ha":958,"x_min":32,"x_max":926,"o":"m 564 1001 l 396 1001 l 242 1247 l 444 1247 l 564 1001 m 256 0 l 32 0 l 344 936 l 614 936 l 926 0 l 697 0 l 640 192 l 313 192 l 256 0 m 476 781 q 364 364 468 719 l 589 364 q 476 781 496 682 z "},"Á":{"ha":958,"x_min":32,"x_max":926,"o":"m 578 1001 l 410 1001 l 529 1247 l 732 1247 l 578 1001 m 256 0 l 32 0 l 344 936 l 614 936 l 926 0 l 697 0 l 640 192 l 313 192 l 256 0 m 476 781 q 364 364 468 719 l 589 364 q 476 781 496 682 z "},"Â":{"ha":958,"x_min":32,"x_max":926,"o":"m 371 1001 l 178 1001 l 394 1247 l 567 1247 l 783 1001 l 590 1001 l 481 1135 l 371 1001 m 256 0 l 32 0 l 344 936 l 614 936 l 926 0 l 697 0 l 640 192 l 313 192 l 256 0 m 476 781 q 364 364 468 719 l 589 364 q 476 781 496 682 z "},"Ã":{"ha":958,"x_min":32,"x_max":926,"o":"m 568 1029 q 472 1053 522 1029 q 394 1078 422 1078 q 347 1066 367 1078 q 297 1018 328 1054 l 207 1107 q 273 1188 229 1154 q 367 1221 317 1221 q 474 1197 418 1221 q 557 1172 531 1172 q 654 1232 625 1172 l 757 1147 q 568 1029 697 1029 m 256 0 l 32 0 l 344 936 l 614 936 l 926 0 l 697 0 l 640 192 l 313 192 l 256 0 m 476 781 q 364 364 468 719 l 589 364 q 476 781 496 682 z "},"Ä":{"ha":958,"x_min":32,"x_max":926,"o":"m 302 1238 q 327 1238 302 1238 q 384 1205 351 1238 q 417 1124 417 1172 q 384 1044 417 1076 q 302 1011 351 1011 q 220 1044 253 1011 q 188 1124 188 1076 q 220 1205 188 1172 q 302 1238 253 1238 m 674 1238 q 699 1238 674 1238 q 757 1205 724 1238 q 790 1124 790 1172 q 757 1044 790 1076 q 674 1011 724 1011 q 592 1044 625 1011 q 560 1124 560 1076 q 592 1205 560 1172 q 674 1238 625 1238 m 256 0 l 32 0 l 344 936 l 614 936 l 926 0 l 697 0 l 640 192 l 313 192 l 256 0 m 476 781 q 364 364 468 719 l 589 364 q 476 781 496 682 z "},"Å":{"ha":958,"x_min":32,"x_max":926,"o":"m 432 1234 q 422 1223 432 1234 q 411 1179 411 1211 q 432 1124 411 1147 q 485 1101 453 1101 q 538 1124 517 1101 q 558 1179 558 1147 q 538 1234 558 1211 q 485 1257 517 1257 q 432 1234 453 1257 m 618 1308 q 646 1281 618 1308 q 674 1175 674 1253 q 618 1042 674 1097 q 485 986 563 986 q 351 1042 407 986 q 296 1175 296 1097 q 351 1308 296 1253 q 485 1364 407 1364 q 618 1308 563 1364 m 256 0 l 32 0 l 344 936 l 614 936 l 926 0 l 697 0 l 640 192 l 313 192 l 256 0 m 476 781 q 364 364 468 719 l 589 364 q 476 781 496 682 z "},"Æ":{"ha":1306,"x_min":11,"x_max":1222,"o":"m 649 364 l 649 853 q 418 364 601 731 l 649 364 m 1217 936 l 1217 765 l 856 765 l 856 553 l 1178 553 l 1178 383 l 856 383 l 856 171 l 1222 171 l 1222 0 l 649 0 l 649 192 l 331 192 l 235 0 l 11 0 l 463 936 l 1217 936 z "},"Ç":{"ha":851,"x_min":56,"x_max":782,"o":"m 622 -174 q 559 -317 622 -261 q 374 -372 496 -372 l 374 -246 q 451 -222 424 -246 q 478 -158 478 -199 q 442 -71 478 -118 l 599 -71 q 622 -174 622 -108 m 538 -11 q 194 122 332 -11 q 56 467 56 254 q 190 814 56 679 q 539 949 324 949 q 782 896 697 949 l 782 690 q 558 754 678 754 q 361 676 438 754 q 285 467 285 597 q 361 260 285 336 q 563 185 438 185 q 782 251 689 185 l 782 42 q 538 -11 697 -11 z "},"È":{"ha":756,"x_min":90,"x_max":672,"o":"m 481 1001 l 313 1001 l 158 1247 l 361 1247 l 481 1001 m 672 0 l 90 0 l 90 936 l 667 936 l 667 765 l 306 765 l 306 553 l 628 553 l 628 383 l 306 383 l 306 171 l 672 171 l 672 0 z "},"É":{"ha":756,"x_min":90,"x_max":672,"o":"m 476 1001 l 308 1001 l 428 1247 l 631 1247 l 476 1001 m 672 0 l 90 0 l 90 936 l 667 936 l 667 765 l 306 765 l 306 553 l 628 553 l 628 383 l 306 383 l 306 171 l 672 171 l 672 0 z "},"Ê":{"ha":756,"x_min":75,"x_max":681,"o":"m 268 1001 l 75 1001 l 292 1247 l 464 1247 l 681 1001 l 488 1001 l 378 1135 l 268 1001 m 672 0 l 90 0 l 90 936 l 667 936 l 667 765 l 306 765 l 306 553 l 628 553 l 628 383 l 306 383 l 306 171 l 672 171 l 672 0 z "},"Ë":{"ha":756,"x_min":76,"x_max":679,"o":"m 191 1236 q 216 1236 191 1236 q 273 1203 240 1236 q 306 1123 306 1171 q 273 1042 306 1075 q 191 1010 240 1010 q 109 1042 142 1010 q 76 1123 76 1075 q 109 1203 76 1171 q 191 1236 142 1236 m 563 1236 q 588 1236 563 1236 q 646 1203 613 1236 q 679 1123 679 1171 q 646 1042 679 1075 q 563 1010 613 1010 q 481 1042 514 1010 q 449 1123 449 1075 q 481 1203 449 1171 q 563 1236 514 1236 m 672 0 l 90 0 l 90 936 l 667 936 l 667 765 l 306 765 l 306 553 l 628 553 l 628 383 l 306 383 l 306 171 l 672 171 l 672 0 z "},"Ì":{"ha":422,"x_min":-33,"x_max":318,"o":"m 289 1001 l 121 1001 l -33 1247 l 169 1247 l 289 1001 m 318 0 l 104 0 l 104 936 l 318 936 l 318 0 z "},"Í":{"ha":422,"x_min":104,"x_max":453,"o":"m 299 1001 l 131 1001 l 250 1247 l 453 1247 l 299 1001 m 318 0 l 104 0 l 104 936 l 318 936 l 318 0 z "},"Î":{"ha":422,"x_min":-89,"x_max":517,"o":"m 104 1001 l -89 1001 l 128 1247 l 300 1247 l 517 1001 l 324 1001 l 214 1135 l 104 1001 m 318 0 l 104 0 l 104 936 l 318 936 l 318 0 z "},"Ï":{"ha":422,"x_min":-82,"x_max":521,"o":"m 33 1238 q 57 1238 33 1238 q 115 1205 82 1238 q 147 1124 147 1172 q 115 1044 147 1076 q 33 1011 82 1011 q -49 1044 -17 1011 q -82 1124 -82 1076 q -49 1205 -82 1172 q 33 1238 -17 1238 m 405 1238 q 430 1238 405 1238 q 488 1205 454 1238 q 521 1124 521 1172 q 488 1044 521 1076 q 405 1011 454 1011 q 323 1044 356 1011 q 290 1124 290 1076 q 323 1205 290 1172 q 405 1238 356 1238 m 318 0 l 104 0 l 104 936 l 318 936 l 318 0 z "},"Ð":{"ha":1040,"x_min":90,"x_max":985,"o":"m 593 374 l 401 374 l 401 175 l 499 175 q 698 256 628 175 q 768 472 768 336 q 697 684 768 608 q 497 760 626 760 l 401 760 l 401 546 l 593 546 l 593 374 m 501 0 l 182 0 l 182 374 l 90 374 l 90 546 l 182 546 l 182 936 l 504 936 q 850 806 715 936 q 985 483 985 676 q 852 129 985 258 q 501 0 719 0 z "},"Ñ":{"ha":968,"x_min":90,"x_max":878,"o":"m 578 1029 q 482 1053 532 1029 q 404 1078 432 1078 q 357 1066 376 1078 q 307 1018 338 1054 l 217 1107 q 283 1188 239 1154 q 377 1221 326 1221 q 484 1197 428 1221 q 567 1172 540 1172 q 664 1232 633 1172 l 767 1147 q 578 1029 708 1029 m 304 0 l 90 0 l 90 936 l 325 936 l 543 549 q 678 264 638 381 q 664 549 664 367 l 664 936 l 878 936 l 878 0 l 643 0 l 419 388 q 294 643 332 536 l 283 678 q 304 388 304 553 l 304 0 z "},"Ò":{"ha":1022,"x_min":56,"x_max":967,"o":"m 608 1001 l 440 1001 l 286 1247 l 489 1247 l 608 1001 m 346 680 q 315 641 346 680 q 285 471 285 603 q 346 262 285 339 q 511 185 407 185 q 676 262 615 185 q 738 471 738 339 q 676 680 738 603 q 511 757 615 757 q 346 680 407 757 m 512 951 q 616 951 512 951 q 843 819 719 951 q 967 472 967 688 q 842 123 967 256 q 510 -10 718 -10 q 179 122 303 -10 q 56 470 56 254 q 180 819 56 686 q 512 951 304 951 z "},"Ó":{"ha":1022,"x_min":56,"x_max":967,"o":"m 600 1001 l 432 1001 l 551 1247 l 754 1247 l 600 1001 m 346 680 q 315 641 346 680 q 285 471 285 603 q 346 262 285 339 q 511 185 407 185 q 676 262 615 185 q 738 471 738 339 q 676 680 738 603 q 511 757 615 757 q 346 680 407 757 m 512 951 q 616 951 512 951 q 843 819 719 951 q 967 472 967 688 q 842 123 967 256 q 510 -10 718 -10 q 179 122 303 -10 q 56 470 56 254 q 180 819 56 686 q 512 951 304 951 z "},"Ô":{"ha":1022,"x_min":56,"x_max":967,"o":"m 407 1001 l 214 1001 l 431 1247 l 603 1247 l 819 1001 l 626 1001 l 517 1135 l 407 1001 m 346 680 q 315 641 346 680 q 285 471 285 603 q 346 262 285 339 q 511 185 407 185 q 676 262 615 185 q 738 471 738 339 q 676 680 738 603 q 511 757 615 757 q 346 680 407 757 m 512 951 q 616 951 512 951 q 843 819 719 951 q 967 472 967 688 q 842 123 967 256 q 510 -10 718 -10 q 179 122 303 -10 q 56 470 56 254 q 180 819 56 686 q 512 951 304 951 z "},"Õ":{"ha":1022,"x_min":56,"x_max":967,"o":"m 597 1028 q 501 1052 551 1028 q 424 1076 451 1076 q 376 1065 396 1076 q 326 1017 357 1053 l 236 1106 q 302 1186 258 1153 q 397 1219 346 1219 q 503 1195 447 1219 q 586 1171 560 1171 q 683 1231 653 1171 l 786 1146 q 597 1028 728 1028 m 346 680 q 315 641 346 680 q 285 471 285 603 q 346 262 285 339 q 511 185 407 185 q 676 262 615 185 q 738 471 738 339 q 676 680 738 603 q 511 757 615 757 q 346 680 407 757 m 512 951 q 616 951 512 951 q 843 819 719 951 q 967 472 967 688 q 842 123 967 256 q 510 -10 718 -10 q 179 122 303 -10 q 56 470 56 254 q 180 819 56 686 q 512 951 304 951 z "},"Ö":{"ha":1022,"x_min":56,"x_max":967,"o":"m 337 1238 q 361 1238 337 1238 q 419 1205 386 1238 q 451 1124 451 1172 q 419 1044 451 1076 q 337 1011 386 1011 q 255 1044 288 1011 q 222 1124 222 1076 q 255 1205 222 1172 q 337 1238 288 1238 m 709 1238 q 734 1238 709 1238 q 792 1205 758 1238 q 825 1124 825 1172 q 792 1044 825 1076 q 709 1011 758 1011 q 627 1044 660 1011 q 594 1124 594 1076 q 627 1205 594 1172 q 709 1238 660 1238 m 346 680 q 315 641 346 680 q 285 471 285 603 q 346 262 285 339 q 511 185 407 185 q 676 262 615 185 q 738 471 738 339 q 676 680 738 603 q 511 757 615 757 q 346 680 407 757 m 512 951 q 616 951 512 951 q 843 819 719 951 q 967 472 967 688 q 842 123 967 256 q 510 -10 718 -10 q 179 122 303 -10 q 56 470 56 254 q 180 819 56 686 q 512 951 304 951 z "},"×":{"ha":736,"x_min":58,"x_max":676,"o":"m 676 290 l 549 163 l 368 342 l 192 165 l 60 296 l 238 474 l 58 651 l 186 779 l 365 601 l 542 778 l 674 647 l 496 469 l 676 290 z "},"Ø":{"ha":992,"x_min":53,"x_max":965,"o":"m 508 174 q 681 254 617 174 q 744 471 744 335 q 721 618 744 556 l 408 194 q 508 174 453 174 m 272 471 q 297 319 272 382 l 613 746 q 508 768 564 768 q 336 688 400 768 q 272 471 272 607 m 856 801 q 964 465 964 674 q 840 123 964 256 q 508 -10 715 -10 q 292 38 389 -10 l 257 -10 l 54 -10 l 163 138 q 53 476 53 267 q 177 819 53 686 q 508 951 301 951 q 729 903 632 951 l 764 950 l 965 950 l 856 801 z "},"Ù":{"ha":928,"x_min":83,"x_max":844,"o":"m 558 1001 l 390 1001 l 236 1247 l 439 1247 l 558 1001 m 844 363 q 742 83 844 179 q 465 -14 639 -14 q 188 82 292 -14 q 83 353 83 178 l 83 936 l 297 936 l 297 354 q 464 181 297 181 q 631 361 631 181 l 631 936 l 844 936 l 844 363 z "},"Ú":{"ha":928,"x_min":83,"x_max":844,"o":"m 567 1001 l 399 1001 l 518 1247 l 721 1247 l 567 1001 m 844 363 q 742 83 844 179 q 465 -14 639 -14 q 188 82 292 -14 q 83 353 83 178 l 83 936 l 297 936 l 297 354 q 464 181 297 181 q 631 361 631 181 l 631 936 l 844 936 l 844 363 z "},"Û":{"ha":928,"x_min":83,"x_max":844,"o":"m 351 1001 l 158 1001 l 375 1247 l 547 1247 l 764 1001 l 571 1001 l 461 1135 l 351 1001 m 844 363 q 742 83 844 179 q 465 -14 639 -14 q 188 82 292 -14 q 83 353 83 178 l 83 936 l 297 936 l 297 354 q 464 181 297 181 q 631 361 631 181 l 631 936 l 844 936 l 844 363 z "},"Ü":{"ha":928,"x_min":83,"x_max":844,"o":"m 284 1236 q 309 1236 284 1236 q 366 1203 333 1236 q 399 1123 399 1171 q 366 1042 399 1075 q 284 1010 333 1010 q 202 1042 235 1010 q 169 1123 169 1075 q 202 1203 169 1171 q 284 1236 235 1236 m 656 1236 q 681 1236 656 1236 q 739 1203 706 1236 q 772 1123 772 1171 q 739 1042 772 1075 q 656 1010 706 1010 q 574 1042 607 1010 q 542 1123 542 1075 q 574 1203 542 1171 q 656 1236 607 1236 m 844 363 q 742 83 844 179 q 465 -14 639 -14 q 188 82 292 -14 q 83 353 83 178 l 83 936 l 297 936 l 297 354 q 464 181 297 181 q 631 361 631 181 l 631 936 l 844 936 l 844 363 z "},"Ý":{"ha":893,"x_min":18,"x_max":875,"o":"m 550 1001 l 382 1001 l 501 1247 l 704 1247 l 550 1001 m 551 0 l 338 0 l 338 343 l 18 936 l 268 936 q 443 500 408 600 q 565 800 457 563 l 626 936 l 875 936 l 551 344 l 551 0 z "},"Þ":{"ha":782,"x_min":90,"x_max":761,"o":"m 396 613 l 304 613 l 304 322 l 396 322 q 507 363 469 322 q 544 465 544 403 q 510 569 544 526 q 396 613 475 613 m 413 153 l 304 153 l 304 0 l 90 0 l 90 936 l 304 936 l 304 783 l 413 783 q 665 697 569 783 q 761 465 761 610 q 660 237 761 321 q 413 153 560 153 z "},"ß":{"ha":831,"x_min":83,"x_max":803,"o":"m 803 221 q 734 51 803 115 q 552 -12 665 -12 q 389 21 439 -12 l 389 192 q 529 146 460 146 q 590 165 567 146 q 614 215 614 185 q 593 271 614 246 q 543 317 572 296 q 483 360 514 338 q 413 488 413 413 q 452 605 413 540 q 492 703 492 669 q 406 782 492 782 q 281 653 281 782 l 281 0 l 83 0 l 83 640 q 164 875 83 792 q 387 958 244 958 q 613 888 529 958 q 697 721 697 818 q 639 557 697 642 q 621 511 621 529 q 649 469 621 493 q 712 421 678 446 q 774 342 746 396 q 803 221 803 289 z "},"à":{"ha":717,"x_min":49,"x_max":640,"o":"m 453 769 l 285 769 l 131 1015 l 333 1015 l 453 769 m 267 -4 q 106 54 164 -4 q 49 207 49 113 q 123 358 49 301 q 343 414 197 414 l 432 414 l 432 463 q 316 551 432 551 q 103 488 200 551 l 103 669 q 340 717 186 717 q 567 652 493 717 q 640 451 640 588 l 640 0 l 442 0 l 442 86 q 267 -4 397 -4 m 342 139 q 408 165 385 139 q 432 238 432 192 l 432 289 l 367 289 q 288 267 315 289 q 260 210 260 244 q 342 139 260 139 z "},"á":{"ha":717,"x_min":49,"x_max":640,"o":"m 438 769 l 269 769 l 389 1015 l 592 1015 l 438 769 m 267 -4 q 106 54 164 -4 q 49 207 49 113 q 123 358 49 301 q 343 414 197 414 l 432 414 l 432 463 q 316 551 432 551 q 103 488 200 551 l 103 669 q 340 717 186 717 q 567 652 493 717 q 640 451 640 588 l 640 0 l 442 0 l 442 86 q 267 -4 397 -4 m 342 139 q 408 165 385 139 q 432 238 432 192 l 432 289 l 367 289 q 288 267 315 289 q 260 210 260 244 q 342 139 260 139 z "},"â":{"ha":717,"x_min":49,"x_max":658,"o":"m 246 769 l 53 769 l 269 1015 l 442 1015 l 658 769 l 465 769 l 356 903 l 246 769 m 267 -4 q 106 54 164 -4 q 49 207 49 113 q 123 358 49 301 q 343 414 197 414 l 432 414 l 432 463 q 316 551 432 551 q 103 488 200 551 l 103 669 q 340 717 186 717 q 567 652 493 717 q 640 451 640 588 l 640 0 l 442 0 l 442 86 q 267 -4 397 -4 m 342 139 q 408 165 385 139 q 432 238 432 192 l 432 289 l 367 289 q 288 267 315 289 q 260 210 260 244 q 342 139 260 139 z "},"ã":{"ha":717,"x_min":49,"x_max":640,"o":"m 442 797 q 346 822 396 797 q 268 846 296 846 q 221 834 240 846 q 171 786 201 822 l 81 875 q 147 956 103 922 q 241 989 190 989 q 348 965 292 989 q 431 940 404 940 q 528 1000 497 940 l 631 915 q 442 797 572 797 m 267 -4 q 106 54 164 -4 q 49 207 49 113 q 123 358 49 301 q 343 414 197 414 l 432 414 l 432 463 q 316 551 432 551 q 103 488 200 551 l 103 669 q 340 717 186 717 q 567 652 493 717 q 640 451 640 588 l 640 0 l 442 0 l 442 86 q 267 -4 397 -4 m 342 139 q 408 165 385 139 q 432 238 432 192 l 432 289 l 367 289 q 288 267 315 289 q 260 210 260 244 q 342 139 260 139 z "},"ä":{"ha":717,"x_min":49,"x_max":669,"o":"m 181 1006 q 206 1006 181 1006 q 263 973 231 1006 q 296 892 296 940 q 263 812 296 844 q 181 779 231 779 q 99 812 132 779 q 67 892 67 844 q 99 973 67 940 q 181 1006 132 1006 m 553 1006 q 578 1006 553 1006 q 636 973 603 1006 q 669 892 669 940 q 636 812 669 844 q 553 779 603 779 q 472 812 504 779 q 439 892 439 844 q 472 973 439 940 q 553 1006 504 1006 m 267 -4 q 106 54 164 -4 q 49 207 49 113 q 123 358 49 301 q 343 414 197 414 l 432 414 l 432 463 q 316 551 432 551 q 103 488 200 551 l 103 669 q 340 717 186 717 q 567 652 493 717 q 640 451 640 588 l 640 0 l 442 0 l 442 86 q 267 -4 397 -4 m 342 139 q 408 165 385 139 q 432 238 432 192 l 432 289 l 367 289 q 288 267 315 289 q 260 210 260 244 q 342 139 260 139 z "},"å":{"ha":717,"x_min":49,"x_max":640,"o":"m 308 1002 q 298 991 308 1002 q 288 947 288 979 q 308 892 288 915 q 361 869 329 869 q 414 892 393 869 q 435 947 435 915 q 414 1002 435 979 q 361 1025 393 1025 q 308 1002 329 1025 m 494 1076 q 522 1049 494 1076 q 550 943 550 1021 q 494 810 550 865 q 361 754 439 754 q 228 810 283 754 q 172 943 172 865 q 228 1076 172 1021 q 361 1132 283 1132 q 494 1076 439 1132 m 267 -4 q 106 54 164 -4 q 49 207 49 113 q 123 358 49 301 q 343 414 197 414 l 432 414 l 432 463 q 316 551 432 551 q 103 488 200 551 l 103 669 q 340 717 186 717 q 567 652 493 717 q 640 451 640 588 l 640 0 l 442 0 l 442 86 q 267 -4 397 -4 m 342 139 q 408 165 385 139 q 432 238 432 192 l 432 289 l 367 289 q 288 267 315 289 q 260 210 260 244 q 342 139 260 139 z "},"æ":{"ha":1122,"x_min":56,"x_max":1067,"o":"m 769 557 q 684 521 722 557 q 633 417 646 485 l 878 417 l 878 432 q 769 557 868 557 m 267 210 q 349 139 267 139 q 415 165 392 139 q 439 238 439 192 l 439 289 l 374 289 q 294 267 322 289 q 267 210 267 244 m 544 122 q 463 32 522 69 q 294 -6 403 -6 q 120 50 185 -6 q 56 203 56 106 q 130 358 56 301 q 350 414 204 414 l 439 414 l 439 463 q 323 551 439 551 q 110 488 207 551 l 110 669 q 336 717 193 717 q 466 689 411 717 q 543 614 521 661 q 633 685 575 660 q 761 711 692 711 q 985 628 903 711 q 1067 382 1067 546 q 1056 272 1067 350 l 640 272 q 714 182 663 214 q 838 150 765 150 q 1024 210 944 150 l 1024 40 q 813 -7 950 -7 q 658 25 733 -7 q 544 122 583 57 z "},"ç":{"ha":651,"x_min":49,"x_max":610,"o":"m 513 -174 q 449 -317 513 -261 q 264 -372 386 -372 l 264 -246 q 341 -222 314 -246 q 368 -158 368 -199 q 332 -71 368 -118 l 489 -71 q 513 -174 513 -108 m 413 -11 q 151 90 254 -11 q 49 350 49 190 q 151 612 51 508 q 425 715 251 715 q 610 675 532 715 l 610 501 q 449 547 536 547 q 308 497 361 547 q 254 350 256 446 q 310 206 260 257 q 444 154 360 154 q 610 203 529 154 l 610 33 q 413 -11 528 -11 z "},"è":{"ha":740,"x_min":49,"x_max":679,"o":"m 467 769 l 299 769 l 144 1015 l 347 1015 l 467 769 m 382 557 q 296 522 333 557 q 246 417 258 486 l 490 417 l 490 433 q 382 557 481 557 m 636 40 q 403 -7 564 -7 q 145 94 242 -7 q 49 358 49 194 q 142 616 49 521 q 376 711 236 711 q 597 628 515 711 q 679 382 679 546 q 668 272 679 350 l 254 272 q 326 182 275 214 q 450 150 378 150 q 636 210 557 150 l 636 40 z "},"é":{"ha":740,"x_min":49,"x_max":679,"o":"m 481 768 l 313 768 l 432 1014 l 635 1014 l 481 768 m 382 557 q 296 522 333 557 q 246 417 258 486 l 490 417 l 490 433 q 382 557 481 557 m 636 40 q 403 -7 564 -7 q 145 94 242 -7 q 49 358 49 194 q 142 616 49 521 q 376 711 236 711 q 597 628 515 711 q 679 382 679 546 q 668 272 679 350 l 254 272 q 326 182 275 214 q 450 150 378 150 q 636 210 557 150 l 636 40 z "},"ê":{"ha":740,"x_min":49,"x_max":679,"o":"m 264 769 l 71 769 l 288 1015 l 460 1015 l 676 769 l 483 769 l 374 903 l 264 769 m 382 557 q 296 522 333 557 q 246 417 258 486 l 490 417 l 490 433 q 382 557 481 557 m 636 40 q 403 -7 564 -7 q 145 94 242 -7 q 49 358 49 194 q 142 616 49 521 q 376 711 236 711 q 597 628 515 711 q 679 382 679 546 q 668 272 679 350 l 254 272 q 326 182 275 214 q 450 150 378 150 q 636 210 557 150 l 636 40 z "},"ë":{"ha":740,"x_min":49,"x_max":696,"o":"m 208 1006 q 232 1006 208 1006 q 290 973 257 1006 q 322 892 322 940 q 290 812 322 844 q 208 779 257 779 q 126 812 158 779 q 93 892 93 844 q 126 973 93 940 q 208 1006 158 1006 m 580 1006 q 605 1006 580 1006 q 663 973 629 1006 q 696 892 696 940 q 663 812 696 844 q 580 779 629 779 q 498 812 531 779 q 465 892 465 844 q 498 973 465 940 q 580 1006 531 1006 m 382 557 q 296 522 333 557 q 246 417 258 486 l 490 417 l 490 433 q 382 557 481 557 m 636 40 q 403 -7 564 -7 q 145 94 242 -7 q 49 358 49 194 q 142 616 49 521 q 376 711 236 711 q 597 628 515 711 q 679 382 679 546 q 668 272 679 350 l 254 272 q 326 182 275 214 q 450 150 378 150 q 636 210 557 150 l 636 40 z "},"ì":{"ha":383,"x_min":-60,"x_max":293,"o":"m 263 769 l 94 769 l -60 1015 l 143 1015 l 263 769 m 293 0 l 90 0 l 90 704 l 293 704 l 293 0 z "},"í":{"ha":383,"x_min":90,"x_max":440,"o":"m 286 769 l 118 769 l 238 1015 l 440 1015 l 286 769 m 293 0 l 90 0 l 90 704 l 293 704 l 293 0 z "},"î":{"ha":383,"x_min":-110,"x_max":496,"o":"m 83 769 l -110 769 l 107 1015 l 279 1015 l 496 769 l 303 769 l 193 903 l 83 769 m 293 0 l 90 0 l 90 704 l 293 704 l 293 0 z "},"ï":{"ha":383,"x_min":-108,"x_max":494,"o":"m 6 1006 q 31 1006 6 1006 q 88 973 56 1006 q 121 892 121 940 q 88 812 121 844 q 6 779 56 779 q -76 812 -43 779 q -108 892 -108 844 q -76 973 -108 940 q 6 1006 -43 1006 m 378 1006 q 403 1006 378 1006 q 461 973 428 1006 q 494 892 494 940 q 461 812 494 844 q 378 779 428 779 q 297 812 329 779 q 264 892 264 844 q 297 973 264 940 q 378 1006 329 1006 m 293 0 l 90 0 l 90 704 l 293 704 l 293 0 z "},"ð":{"ha":774,"x_min":49,"x_max":708,"o":"m 287 195 q 302 181 287 195 q 371 167 318 167 q 458 201 424 167 q 504 326 493 236 q 369 388 446 388 q 285 356 315 388 q 256 274 256 325 q 287 195 256 224 m 708 401 q 622 100 708 214 q 378 -14 536 -14 q 135 72 221 -14 q 49 283 49 158 q 123 483 49 407 q 313 558 197 558 q 503 488 428 558 q 417 711 485 607 l 218 614 l 218 726 l 353 792 q 178 936 283 867 l 433 936 q 513 871 472 908 l 669 947 l 669 835 l 579 790 q 675 599 642 703 q 708 401 708 496 z "},"ñ":{"ha":806,"x_min":83,"x_max":729,"o":"m 492 797 q 396 822 446 797 q 318 846 346 846 q 271 834 290 846 q 221 786 251 822 l 131 875 q 197 956 153 922 q 291 989 240 989 q 398 965 342 989 q 481 940 454 940 q 578 1000 547 940 l 681 915 q 492 797 622 797 m 729 0 l 526 0 l 526 419 q 497 515 526 482 q 414 547 468 547 q 323 503 360 547 q 286 372 286 460 l 286 0 l 83 0 l 83 704 l 286 704 l 286 585 q 367 677 313 643 q 499 711 422 711 q 668 647 607 711 q 729 457 729 582 l 729 0 z "},"ò":{"ha":788,"x_min":49,"x_max":739,"o":"m 492 768 l 324 768 l 169 1014 l 372 1014 l 492 768 m 293 499 q 276 470 293 499 q 260 351 260 442 q 294 203 260 261 q 395 146 328 146 q 495 202 463 146 q 528 349 528 258 q 393 556 528 556 q 293 499 326 556 m 398 715 q 478 715 398 715 q 649 614 558 715 q 739 354 739 513 q 648 92 739 196 q 393 -11 557 -11 q 139 88 229 -11 q 49 347 49 188 q 143 610 49 506 q 398 715 238 715 z "},"ó":{"ha":788,"x_min":49,"x_max":739,"o":"m 494 768 l 326 768 l 446 1014 l 649 1014 l 494 768 m 293 499 q 276 470 293 499 q 260 351 260 442 q 294 203 260 261 q 395 146 328 146 q 495 202 463 146 q 528 349 528 258 q 393 556 528 556 q 293 499 326 556 m 398 715 q 478 715 398 715 q 649 614 558 715 q 739 354 739 513 q 648 92 739 196 q 393 -11 557 -11 q 139 88 229 -11 q 49 347 49 188 q 143 610 49 506 q 398 715 238 715 z "},"ô":{"ha":788,"x_min":49,"x_max":739,"o":"m 289 768 l 96 768 l 313 1014 l 485 1014 l 701 768 l 508 768 l 399 901 l 289 768 m 293 499 q 276 470 293 499 q 260 351 260 442 q 294 203 260 261 q 395 146 328 146 q 495 202 463 146 q 528 349 528 258 q 393 556 528 556 q 293 499 326 556 m 398 715 q 478 715 398 715 q 649 614 558 715 q 739 354 739 513 q 648 92 739 196 q 393 -11 557 -11 q 139 88 229 -11 q 49 347 49 188 q 143 610 49 506 q 398 715 238 715 z "},"õ":{"ha":788,"x_min":49,"x_max":739,"o":"m 485 797 q 389 822 439 797 q 311 846 339 846 q 264 834 283 846 q 214 786 244 822 l 124 875 q 190 956 146 922 q 284 989 233 989 q 391 965 335 989 q 474 940 447 940 q 571 1000 542 940 l 674 915 q 485 797 614 797 m 293 499 q 276 470 293 499 q 260 351 260 442 q 294 203 260 261 q 395 146 328 146 q 495 202 463 146 q 528 349 528 258 q 393 556 528 556 q 293 499 326 556 m 398 715 q 478 715 398 715 q 649 614 558 715 q 739 354 739 513 q 648 92 739 196 q 393 -11 557 -11 q 139 88 229 -11 q 49 347 49 188 q 143 610 49 506 q 398 715 238 715 z "},"ö":{"ha":788,"x_min":49,"x_max":739,"o":"m 223 1007 q 248 1007 223 1007 q 305 974 272 1007 q 338 894 338 942 q 305 813 338 846 q 223 781 272 781 q 141 813 174 781 q 108 894 108 846 q 141 974 108 942 q 223 1007 174 1007 m 595 1007 q 620 1007 595 1007 q 678 974 644 1007 q 711 894 711 942 q 678 813 711 846 q 595 781 644 781 q 513 813 546 781 q 481 894 481 846 q 513 974 481 942 q 595 1007 546 1007 m 293 499 q 276 470 293 499 q 260 351 260 442 q 294 203 260 261 q 395 146 328 146 q 495 202 463 146 q 528 349 528 258 q 393 556 528 556 q 293 499 326 556 m 398 715 q 478 715 398 715 q 649 614 558 715 q 739 354 739 513 q 648 92 739 196 q 393 -11 557 -11 q 139 88 229 -11 q 49 347 49 188 q 143 610 49 506 q 398 715 238 715 z "},"÷":{"ha":818,"x_min":63,"x_max":756,"o":"m 477 791 q 493 775 477 791 q 508 717 508 760 q 477 642 508 674 q 403 611 446 611 q 328 642 360 611 q 297 717 297 674 q 328 791 297 760 q 403 822 360 822 q 477 791 446 822 m 477 302 q 493 286 477 302 q 508 228 508 271 q 477 153 508 185 q 403 122 446 122 q 328 153 360 122 q 297 228 297 185 q 328 302 297 271 q 403 333 360 333 q 477 302 446 333 m 756 382 l 63 382 l 63 563 l 756 563 l 756 382 z "},"ø":{"ha":781,"x_min":49,"x_max":739,"o":"m 396 124 q 514 186 475 124 q 553 349 553 249 q 543 443 553 403 l 326 140 q 396 124 356 124 m 235 351 q 244 263 235 301 l 461 564 q 393 578 429 578 q 275 515 315 578 q 235 351 235 451 m 658 603 q 739 352 739 508 q 648 92 739 196 q 394 -11 557 -11 q 239 19 307 -11 l 217 -11 l 49 -11 l 128 100 q 49 351 49 196 q 143 610 49 506 q 394 715 238 715 q 549 686 476 715 l 569 715 l 739 715 l 658 603 z "},"ù":{"ha":806,"x_min":76,"x_max":722,"o":"m 488 768 l 319 768 l 165 1014 l 368 1014 l 488 768 m 722 0 l 519 0 l 519 113 q 306 -6 464 -6 q 137 55 197 -6 q 76 233 76 115 l 76 704 l 279 704 l 279 279 q 388 156 279 156 q 519 332 519 156 l 519 704 l 722 704 l 722 0 z "},"ú":{"ha":806,"x_min":76,"x_max":722,"o":"m 499 768 l 331 768 l 450 1014 l 653 1014 l 499 768 m 722 0 l 519 0 l 519 113 q 306 -6 464 -6 q 137 55 197 -6 q 76 233 76 115 l 76 704 l 279 704 l 279 279 q 388 156 279 156 q 519 332 519 156 l 519 704 l 722 704 l 722 0 z "},"û":{"ha":806,"x_min":76,"x_max":722,"o":"m 290 769 l 97 769 l 314 1015 l 486 1015 l 703 769 l 510 769 l 400 903 l 290 769 m 722 0 l 519 0 l 519 113 q 306 -6 464 -6 q 137 55 197 -6 q 76 233 76 115 l 76 704 l 279 704 l 279 279 q 388 156 279 156 q 519 332 519 156 l 519 704 l 722 704 l 722 0 z "},"ü":{"ha":806,"x_min":76,"x_max":722,"o":"m 212 1006 q 236 1006 212 1006 q 294 973 261 1006 q 326 892 326 940 q 294 812 326 844 q 212 779 261 779 q 130 812 163 779 q 97 892 97 844 q 130 973 97 940 q 212 1006 163 1006 m 584 1006 q 609 1006 584 1006 q 667 973 633 1006 q 700 892 700 940 q 667 812 700 844 q 584 779 633 779 q 502 812 535 779 q 469 892 469 844 q 502 973 469 940 q 584 1006 535 1006 m 722 0 l 519 0 l 519 113 q 306 -6 464 -6 q 137 55 197 -6 q 76 233 76 115 l 76 704 l 279 704 l 279 279 q 388 156 279 156 q 519 332 519 156 l 519 704 l 722 704 l 722 0 z "},"ý":{"ha":739,"x_min":7,"x_max":732,"o":"m 479 769 l 311 769 l 431 1015 l 633 1015 l 479 769 m 143 -275 q 65 -268 100 -275 l 65 -107 q 113 -112 88 -112 q 279 11 228 -112 l 7 704 l 228 704 q 379 239 363 318 q 524 704 397 307 l 732 704 l 478 21 q 143 -275 368 -275 z "},"þ":{"ha":849,"x_min":83,"x_max":800,"o":"m 445 544 q 413 544 445 544 q 333 496 381 544 q 286 358 286 447 q 331 215 286 269 q 443 161 375 161 q 553 212 511 161 q 594 354 594 263 q 552 495 594 446 q 445 544 510 544 m 286 -260 l 83 -260 l 83 982 l 286 982 l 286 596 q 497 713 360 713 q 717 616 635 713 q 800 358 800 519 q 720 94 800 197 q 498 -8 640 -8 q 286 104 356 -8 l 286 -260 z "},"ÿ":{"ha":739,"x_min":7,"x_max":732,"o":"m 197 1006 q 221 1006 197 1006 q 278 973 246 1006 q 311 892 311 940 q 278 812 311 844 q 197 779 246 779 q 115 812 147 779 q 82 892 82 844 q 115 973 82 940 q 197 1006 147 1006 m 569 1006 q 593 1006 569 1006 q 651 973 618 1006 q 685 892 685 940 q 651 812 685 844 q 569 779 618 779 q 487 812 519 779 q 454 892 454 844 q 487 973 454 940 q 569 1006 519 1006 m 143 -275 q 65 -268 100 -275 l 65 -107 q 113 -112 88 -112 q 279 11 228 -112 l 7 704 l 228 704 q 379 239 363 318 q 524 704 397 307 l 732 704 l 478 21 q 143 -275 368 -275 z "},"Ā":{"ha":958,"x_min":32,"x_max":926,"o":"m 732 1057 l 238 1057 l 238 1194 l 732 1194 l 732 1057 m 256 0 l 32 0 l 344 936 l 614 936 l 926 0 l 697 0 l 640 192 l 313 192 l 256 0 m 476 781 q 364 364 468 719 l 589 364 q 476 781 496 682 z "},"ā":{"ha":717,"x_min":49,"x_max":640,"o":"m 606 824 l 111 824 l 111 961 l 606 961 l 606 824 m 267 -4 q 106 54 164 -4 q 49 207 49 113 q 123 358 49 301 q 343 414 197 414 l 432 414 l 432 463 q 316 551 432 551 q 103 488 200 551 l 103 669 q 340 717 186 717 q 567 652 493 717 q 640 451 640 588 l 640 0 l 442 0 l 442 86 q 267 -4 397 -4 m 342 139 q 408 165 385 139 q 432 238 432 192 l 432 289 l 367 289 q 288 267 315 289 q 260 210 260 244 q 342 139 260 139 z "},"Ă":{"ha":958,"x_min":32,"x_max":926,"o":"m 750 1247 q 674 1057 750 1118 q 475 996 599 996 q 276 1057 351 996 q 200 1247 200 1118 l 356 1247 q 388 1156 356 1189 q 475 1124 421 1124 q 562 1156 529 1124 q 594 1247 594 1189 l 750 1247 m 256 0 l 32 0 l 344 936 l 614 936 l 926 0 l 697 0 l 640 192 l 313 192 l 256 0 m 476 781 q 364 364 468 719 l 589 364 q 476 781 496 682 z "},"ă":{"ha":717,"x_min":49,"x_max":640,"o":"m 632 1014 q 556 824 632 885 q 357 763 481 763 q 158 824 233 763 q 82 1014 82 885 l 238 1014 q 270 923 238 956 q 357 890 303 890 q 444 923 411 890 q 476 1014 476 956 l 632 1014 m 267 -4 q 106 54 164 -4 q 49 207 49 113 q 123 358 49 301 q 343 414 197 414 l 432 414 l 432 463 q 316 551 432 551 q 103 488 200 551 l 103 669 q 340 717 186 717 q 567 652 493 717 q 640 451 640 588 l 640 0 l 442 0 l 442 86 q 267 -4 397 -4 m 342 139 q 408 165 385 139 q 432 238 432 192 l 432 289 l 367 289 q 288 267 315 289 q 260 210 260 244 q 342 139 260 139 z "},"Ą":{"ha":944,"x_min":25,"x_max":936,"o":"m 936 -326 q 778 -361 869 -361 q 641 -315 688 -361 q 594 -199 594 -269 q 690 0 594 -89 l 633 192 l 306 192 l 249 0 l 25 0 l 338 936 l 607 936 l 919 0 q 756 -181 756 -101 q 816 -228 756 -228 q 936 -186 876 -228 l 936 -326 m 469 781 q 357 364 461 719 l 582 364 q 469 781 489 682 z "},"ą":{"ha":710,"x_min":49,"x_max":657,"o":"m 657 -326 q 499 -361 590 -361 q 362 -315 408 -361 q 315 -199 315 -269 q 442 14 315 -81 l 442 86 q 267 -4 397 -4 q 106 54 164 -4 q 49 207 49 113 q 123 358 49 301 q 343 414 197 414 l 432 414 l 432 463 q 316 551 432 551 q 103 488 200 551 l 103 669 q 340 717 186 717 q 567 652 493 717 q 640 451 640 588 l 640 0 q 476 -181 476 -101 q 537 -228 476 -228 q 657 -186 597 -228 l 657 -326 m 342 139 q 408 165 385 139 q 432 238 432 192 l 432 289 l 367 289 q 288 267 315 289 q 260 210 260 244 q 342 139 260 139 z "},"Ć":{"ha":851,"x_min":56,"x_max":782,"o":"m 590 1001 l 422 1001 l 542 1247 l 744 1247 l 590 1001 m 538 -11 q 194 122 332 -11 q 56 467 56 254 q 190 814 56 679 q 539 949 324 949 q 782 896 697 949 l 782 690 q 558 754 678 754 q 361 676 438 754 q 285 467 285 597 q 361 260 285 336 q 563 185 438 185 q 782 251 689 185 l 782 42 q 538 -11 697 -11 z "},"ć":{"ha":651,"x_min":49,"x_max":651,"o":"m 497 768 l 329 768 l 449 1014 l 651 1014 l 497 768 m 413 -11 q 151 90 254 -11 q 49 350 49 190 q 151 612 51 508 q 425 715 251 715 q 610 675 532 715 l 610 501 q 449 547 536 547 q 308 497 361 547 q 254 350 256 446 q 310 206 260 257 q 444 154 360 154 q 610 203 529 154 l 610 33 q 413 -11 528 -11 z "},"Č":{"ha":851,"x_min":56,"x_max":803,"o":"m 586 1001 l 414 1001 l 197 1247 l 390 1247 l 500 1114 l 610 1247 l 803 1247 l 586 1001 m 538 -11 q 194 122 332 -11 q 56 467 56 254 q 190 814 56 679 q 539 949 324 949 q 782 896 697 949 l 782 690 q 558 754 678 754 q 361 676 438 754 q 285 467 285 597 q 361 260 285 336 q 563 185 438 185 q 782 251 689 185 l 782 42 q 538 -11 697 -11 z "},"č":{"ha":651,"x_min":49,"x_max":685,"o":"m 468 768 l 296 768 l 79 1014 l 272 1014 l 382 881 l 492 1014 l 685 1014 l 468 768 m 413 -11 q 151 90 254 -11 q 49 350 49 190 q 151 612 51 508 q 425 715 251 715 q 610 675 532 715 l 610 501 q 449 547 536 547 q 308 497 361 547 q 254 350 256 446 q 310 206 260 257 q 444 154 360 154 q 610 203 529 154 l 610 33 q 413 -11 528 -11 z "},"Ď":{"ha":949,"x_min":90,"x_max":893,"o":"m 531 1001 l 358 1001 l 142 1247 l 335 1247 l 444 1114 l 554 1247 l 747 1247 l 531 1001 m 406 760 l 310 760 l 310 175 l 407 175 q 606 256 536 175 q 676 472 676 336 q 606 684 676 608 q 406 760 535 760 m 410 0 l 90 0 l 90 936 l 413 936 q 758 806 624 936 q 893 483 893 676 q 760 129 893 258 q 410 0 628 0 z "},"ď":{"ha":1035,"x_min":49,"x_max":1140,"o":"m 979 690 l 832 690 l 931 983 l 1140 983 l 979 690 m 765 0 l 563 0 l 563 110 q 353 -8 492 -8 q 131 99 214 -8 q 49 363 49 206 q 135 617 49 521 q 356 713 221 713 q 563 596 490 713 l 563 982 l 765 982 l 765 0 m 406 544 q 374 544 406 544 q 298 493 342 544 q 254 353 254 442 q 299 213 254 265 q 410 161 343 161 q 519 215 476 161 q 563 358 563 269 q 516 496 563 447 q 406 544 469 544 z "},"Đ":{"ha":1040,"x_min":90,"x_max":985,"o":"m 593 374 l 401 374 l 401 175 l 499 175 q 698 256 628 175 q 768 472 768 336 q 697 684 768 608 q 497 760 626 760 l 401 760 l 401 546 l 593 546 l 593 374 m 501 0 l 182 0 l 182 374 l 90 374 l 90 546 l 182 546 l 182 936 l 504 936 q 850 806 715 936 q 985 483 985 676 q 852 129 985 258 q 501 0 719 0 z "},"đ":{"ha":849,"x_min":49,"x_max":844,"o":"m 765 0 l 563 0 l 563 110 q 353 -8 492 -8 q 131 99 214 -8 q 49 363 49 206 q 135 617 49 521 q 356 713 221 713 q 563 596 490 713 l 563 783 l 353 783 l 353 897 l 563 897 l 563 982 l 765 982 l 765 897 l 844 897 l 844 783 l 765 783 l 765 0 m 406 544 q 374 544 406 544 q 298 493 342 544 q 254 353 254 442 q 299 213 254 265 q 410 161 343 161 q 519 215 476 161 q 563 358 563 269 q 516 496 563 447 q 406 544 469 544 z "},"Ē":{"ha":756,"x_min":90,"x_max":672,"o":"m 625 1061 l 131 1061 l 131 1199 l 625 1199 l 625 1061 m 672 0 l 90 0 l 90 936 l 667 936 l 667 765 l 306 765 l 306 553 l 628 553 l 628 383 l 306 383 l 306 171 l 672 171 l 672 0 z "},"ē":{"ha":740,"x_min":49,"x_max":679,"o":"m 622 824 l 128 824 l 128 961 l 622 961 l 622 824 m 382 557 q 296 522 333 557 q 246 417 258 486 l 490 417 l 490 433 q 382 557 481 557 m 636 40 q 403 -7 564 -7 q 145 94 242 -7 q 49 358 49 194 q 142 616 49 521 q 376 711 236 711 q 597 628 515 711 q 679 382 679 546 q 668 272 679 350 l 254 272 q 326 182 275 214 q 450 150 378 150 q 636 210 557 150 l 636 40 z "},"Ė":{"ha":756,"x_min":90,"x_max":672,"o":"m 391 1238 q 416 1238 391 1238 q 473 1205 440 1238 q 506 1124 506 1172 q 473 1044 506 1076 q 391 1011 440 1011 q 309 1044 342 1011 q 276 1124 276 1076 q 309 1205 276 1172 q 391 1238 342 1238 m 672 0 l 90 0 l 90 936 l 667 936 l 667 765 l 306 765 l 306 553 l 628 553 l 628 383 l 306 383 l 306 171 l 672 171 l 672 0 z "},"ė":{"ha":740,"x_min":49,"x_max":679,"o":"m 388 1006 q 413 1006 388 1006 q 470 973 438 1006 q 503 892 503 940 q 470 812 503 844 q 388 779 438 779 q 306 812 339 779 q 274 892 274 844 q 306 973 274 940 q 388 1006 339 1006 m 382 557 q 296 522 333 557 q 246 417 258 486 l 490 417 l 490 433 q 382 557 481 557 m 636 40 q 403 -7 564 -7 q 145 94 242 -7 q 49 358 49 194 q 142 616 49 521 q 376 711 236 711 q 597 628 515 711 q 679 382 679 546 q 668 272 679 350 l 254 272 q 326 182 275 214 q 450 150 378 150 q 636 210 557 150 l 636 40 z "},"Ę":{"ha":756,"x_min":90,"x_max":689,"o":"m 689 -326 q 531 -361 622 -361 q 394 -315 440 -361 q 347 -199 347 -269 q 457 0 347 -89 l 90 0 l 90 936 l 667 936 l 667 765 l 306 765 l 306 553 l 628 553 l 628 383 l 306 383 l 306 171 l 672 171 l 672 0 q 508 -181 508 -101 q 569 -228 508 -228 q 689 -186 629 -228 l 689 -326 z "},"ę":{"ha":740,"x_min":49,"x_max":679,"o":"m 635 -296 q 477 -331 568 -331 q 340 -285 386 -331 q 293 -160 293 -239 q 365 -4 293 -81 q 131 108 214 10 q 49 364 49 207 q 142 616 49 521 q 376 711 236 711 q 597 628 515 711 q 679 382 679 546 q 668 272 679 350 l 254 272 q 326 182 275 214 q 450 150 378 150 q 636 210 557 150 l 636 40 q 617 29 633 38 q 454 -150 454 -72 q 515 -197 454 -197 q 635 -156 575 -197 l 635 -296 m 382 557 q 296 522 333 557 q 246 417 258 486 l 490 417 l 490 433 q 382 557 481 557 z "},"Ě":{"ha":756,"x_min":85,"x_max":690,"o":"m 474 1001 l 301 1001 l 85 1247 l 278 1247 l 388 1114 l 497 1247 l 690 1247 l 474 1001 m 672 0 l 90 0 l 90 936 l 667 936 l 667 765 l 306 765 l 306 553 l 628 553 l 628 383 l 306 383 l 306 171 l 672 171 l 672 0 z "},"ě":{"ha":740,"x_min":49,"x_max":681,"o":"m 464 768 l 292 768 l 75 1014 l 268 1014 l 378 881 l 488 1014 l 681 1014 l 464 768 m 382 557 q 296 522 333 557 q 246 417 258 486 l 490 417 l 490 433 q 382 557 481 557 m 636 40 q 403 -7 564 -7 q 145 94 242 -7 q 49 358 49 194 q 142 616 49 521 q 376 711 236 711 q 597 628 515 711 q 679 382 679 546 q 668 272 679 350 l 254 272 q 326 182 275 214 q 450 150 378 150 q 636 210 557 150 l 636 40 z "},"Ğ":{"ha":981,"x_min":56,"x_max":897,"o":"m 800 1247 q 724 1057 800 1118 q 525 996 649 996 q 326 1057 401 996 q 250 1247 250 1118 l 406 1247 q 438 1156 406 1189 q 525 1124 471 1124 q 612 1156 579 1124 q 644 1247 644 1189 l 800 1247 m 897 86 q 550 -11 764 -11 q 196 118 336 -11 q 56 468 56 247 q 202 821 56 689 q 574 953 349 953 q 847 894 732 953 l 847 681 q 578 757 714 757 q 364 678 442 757 q 286 469 286 600 q 363 260 286 338 q 571 182 439 182 q 689 200 631 182 l 689 376 l 538 376 l 538 558 l 897 558 l 897 86 z "},"ğ":{"ha":813,"x_min":56,"x_max":736,"o":"m 707 1015 q 631 825 707 886 q 432 764 556 764 q 233 825 308 764 q 157 1015 157 886 l 313 1015 q 345 924 313 957 q 432 892 378 892 q 519 924 486 892 q 551 1015 551 957 l 707 1015 m 397 542 q 301 494 336 542 q 267 362 267 447 q 300 231 267 276 q 397 185 333 185 q 498 234 461 185 q 535 353 535 283 q 397 542 535 542 m 736 68 q 635 -187 736 -101 q 383 -272 533 -272 q 121 -219 232 -272 l 121 -12 q 360 -90 218 -90 q 493 -51 451 -90 q 535 71 535 -12 l 535 118 q 349 24 474 24 q 140 110 224 24 q 56 356 56 196 q 137 613 56 515 q 347 711 218 711 q 535 611 475 711 l 535 704 l 736 704 l 736 68 z "},"Ģ":{"ha":981,"x_min":56,"x_max":897,"o":"m 465 -364 l 318 -364 l 417 -71 l 626 -71 l 465 -364 m 897 86 q 550 -11 764 -11 q 196 118 336 -11 q 56 468 56 247 q 202 821 56 689 q 574 953 349 953 q 847 894 732 953 l 847 681 q 578 757 714 757 q 364 678 442 757 q 286 469 286 600 q 363 260 286 338 q 571 182 439 182 q 689 200 631 182 l 689 376 l 538 376 l 538 558 l 897 558 l 897 86 z "},"ģ":{"ha":813,"x_min":56,"x_max":736,"o":"m 556 769 l 346 769 l 507 1063 l 654 1063 l 556 769 m 397 542 q 301 494 336 542 q 267 362 267 447 q 300 231 267 276 q 397 185 333 185 q 498 234 461 185 q 535 353 535 283 q 397 542 535 542 m 736 68 q 635 -187 736 -101 q 383 -272 533 -272 q 121 -219 232 -272 l 121 -12 q 360 -90 218 -90 q 493 -51 451 -90 q 535 71 535 -12 l 535 118 q 349 24 474 24 q 140 110 224 24 q 56 356 56 196 q 137 613 56 515 q 347 711 218 711 q 535 611 475 711 l 535 704 l 736 704 l 736 68 z "},"Ī":{"ha":422,"x_min":-36,"x_max":458,"o":"m 458 1056 l -36 1056 l -36 1193 l 458 1193 l 458 1056 m 318 0 l 104 0 l 104 936 l 318 936 l 318 0 z "},"ī":{"ha":383,"x_min":-56,"x_max":439,"o":"m 439 824 l -56 824 l -56 961 l 439 961 l 439 824 m 293 0 l 90 0 l 90 704 l 293 704 l 293 0 z "},"Į":{"ha":422,"x_min":-7,"x_max":335,"o":"m 335 -326 q 177 -361 268 -361 q 40 -315 86 -361 q -7 -199 -7 -269 q 104 1 -7 -89 l 104 936 l 318 936 l 318 0 q 154 -181 154 -101 q 215 -228 154 -228 q 335 -186 275 -228 l 335 -326 z "},"į":{"ha":383,"x_min":-32,"x_max":310,"o":"m 310 -326 q 152 -361 243 -361 q 15 -315 61 -361 q -32 -199 -32 -269 q 90 10 -32 -86 l 90 704 l 293 704 l 293 0 q 129 -181 129 -101 q 190 -228 129 -228 q 310 -186 250 -228 l 310 -326 m 275 992 q 292 974 275 992 q 310 908 310 957 q 275 825 310 860 q 192 790 240 790 q 108 825 143 790 q 74 908 74 860 q 108 992 74 957 q 192 1026 143 1026 q 275 992 240 1026 z "},"İ":{"ha":422,"x_min":99,"x_max":328,"o":"m 213 1238 q 238 1238 213 1238 q 295 1205 263 1238 q 328 1124 328 1172 q 295 1044 328 1076 q 213 1011 263 1011 q 131 1044 164 1011 q 99 1124 99 1076 q 131 1205 99 1172 q 213 1238 164 1238 m 318 0 l 104 0 l 104 936 l 318 936 l 318 0 z "},"ı":{"ha":383,"x_min":90,"x_max":293,"o":"m 293 0 l 90 0 l 90 704 l 293 704 l 293 0 z "},"Ķ":{"ha":919,"x_min":90,"x_max":896,"o":"m 304 0 l 90 0 l 90 936 l 304 936 l 304 0 m 410 -364 l 263 -364 l 361 -71 l 571 -71 l 410 -364 m 896 0 l 628 0 l 314 465 l 617 936 l 871 936 l 564 468 l 896 0 z "},"ķ":{"ha":761,"x_min":83,"x_max":746,"o":"m 353 -364 l 206 -364 l 304 -71 l 514 -71 l 353 -364 m 286 0 l 83 0 l 83 958 l 286 958 l 286 389 l 508 704 l 742 704 l 497 367 l 746 0 l 511 0 l 286 346 l 286 0 z "},"Ĺ":{"ha":678,"x_min":90,"x_max":678,"o":"m 524 1001 l 356 1001 l 475 1247 l 678 1247 l 524 1001 m 650 0 l 90 0 l 90 936 l 304 936 l 304 188 l 650 188 l 650 0 z "},"ĺ":{"ha":383,"x_min":90,"x_max":426,"o":"m 272 1047 l 104 1047 l 224 1293 l 426 1293 l 272 1047 m 293 0 l 90 0 l 90 982 l 293 982 l 293 0 z "},"Ļ":{"ha":678,"x_min":90,"x_max":650,"o":"m 650 0 l 90 0 l 90 936 l 304 936 l 304 188 l 650 188 l 650 0 m 340 -364 l 193 -364 l 292 -71 l 501 -71 l 340 -364 z "},"ļ":{"ha":383,"x_min":-15,"x_max":293,"o":"m 132 -364 l -15 -364 l 83 -71 l 293 -71 l 132 -364 m 293 0 l 90 0 l 90 982 l 293 982 l 293 0 z "},"Ľ":{"ha":678,"x_min":90,"x_max":696,"o":"m 535 678 l 388 678 l 486 971 l 696 971 l 535 678 m 650 0 l 90 0 l 90 936 l 304 936 l 304 188 l 650 188 l 650 0 z "},"ľ":{"ha":383,"x_min":90,"x_max":682,"o":"m 521 692 l 374 692 l 472 985 l 682 985 l 521 692 m 293 0 l 90 0 l 90 982 l 293 982 l 293 0 z "},"Ł":{"ha":782,"x_min":63,"x_max":733,"o":"m 388 188 l 733 188 l 733 0 l 174 0 l 174 285 l 63 222 l 63 390 l 174 453 l 174 936 l 388 936 l 388 572 l 615 700 l 615 532 l 388 404 l 388 188 z "},"ł":{"ha":474,"x_min":35,"x_max":460,"o":"m 344 0 l 142 0 l 142 365 l 35 292 l 35 460 l 142 533 l 142 982 l 344 982 l 344 671 l 460 750 l 460 582 l 344 503 l 344 0 z "},"Ń":{"ha":968,"x_min":90,"x_max":878,"o":"m 588 1001 l 419 1001 l 539 1247 l 742 1247 l 588 1001 m 304 0 l 90 0 l 90 936 l 325 936 l 543 549 q 678 264 638 381 q 664 549 664 367 l 664 936 l 878 936 l 878 0 l 643 0 l 419 388 q 294 643 332 536 l 283 678 q 304 388 304 553 l 304 0 z "},"ń":{"ha":806,"x_min":83,"x_max":729,"o":"m 526 769 l 358 769 l 478 1015 l 681 1015 l 526 769 m 729 0 l 526 0 l 526 419 q 497 515 526 482 q 414 547 468 547 q 323 503 360 547 q 286 372 286 460 l 286 0 l 83 0 l 83 704 l 286 704 l 286 585 q 367 677 313 643 q 499 711 422 711 q 668 647 607 711 q 729 457 729 582 l 729 0 z "},"Ņ":{"ha":968,"x_min":90,"x_max":878,"o":"m 438 -364 l 290 -364 l 389 -71 l 599 -71 l 438 -364 m 304 0 l 90 0 l 90 936 l 325 936 l 543 549 q 678 264 638 381 q 664 549 664 367 l 664 936 l 878 936 l 878 0 l 643 0 l 419 388 q 294 643 332 536 l 283 678 q 304 388 304 553 l 304 0 z "},"ņ":{"ha":806,"x_min":83,"x_max":729,"o":"m 354 -364 l 207 -364 l 306 -71 l 515 -71 l 354 -364 m 729 0 l 526 0 l 526 419 q 497 515 526 482 q 414 547 468 547 q 323 503 360 547 q 286 372 286 460 l 286 0 l 83 0 l 83 704 l 286 704 l 286 585 q 367 677 313 643 q 499 711 422 711 q 668 647 607 711 q 729 457 729 582 l 729 0 z "},"Ň":{"ha":968,"x_min":90,"x_max":878,"o":"m 576 1001 l 404 1001 l 188 1247 l 381 1247 l 490 1114 l 600 1247 l 793 1247 l 576 1001 m 304 0 l 90 0 l 90 936 l 325 936 l 543 549 q 678 264 638 381 q 664 549 664 367 l 664 936 l 878 936 l 878 0 l 643 0 l 419 388 q 294 643 332 536 l 283 678 q 304 388 304 553 l 304 0 z "},"ň":{"ha":806,"x_min":83,"x_max":729,"o":"m 501 769 l 329 769 l 113 1015 l 306 1015 l 415 882 l 525 1015 l 718 1015 l 501 769 m 729 0 l 526 0 l 526 419 q 497 515 526 482 q 414 547 468 547 q 323 503 360 547 q 286 372 286 460 l 286 0 l 83 0 l 83 704 l 286 704 l 286 585 q 367 677 313 643 q 499 711 422 711 q 668 647 607 711 q 729 457 729 582 l 729 0 z "},"Ō":{"ha":1022,"x_min":56,"x_max":967,"o":"m 757 1056 l 263 1056 l 263 1193 l 757 1193 l 757 1056 m 346 680 q 315 641 346 680 q 285 471 285 603 q 346 262 285 339 q 511 185 407 185 q 676 262 615 185 q 738 471 738 339 q 676 680 738 603 q 511 757 615 757 q 346 680 407 757 m 512 951 q 616 951 512 951 q 843 819 719 951 q 967 472 967 688 q 842 123 967 256 q 510 -10 718 -10 q 179 122 303 -10 q 56 470 56 254 q 180 819 56 686 q 512 951 304 951 z "},"ō":{"ha":788,"x_min":49,"x_max":739,"o":"m 642 824 l 147 824 l 147 961 l 642 961 l 642 824 m 293 499 q 276 470 293 499 q 260 351 260 442 q 294 203 260 261 q 395 146 328 146 q 495 202 463 146 q 528 349 528 258 q 393 556 528 556 q 293 499 326 556 m 398 715 q 478 715 398 715 q 649 614 558 715 q 739 354 739 513 q 648 92 739 196 q 393 -11 557 -11 q 139 88 229 -11 q 49 347 49 188 q 143 610 49 506 q 398 715 238 715 z "},"Ő":{"ha":1022,"x_min":56,"x_max":967,"o":"m 467 1001 l 317 1001 l 436 1247 l 621 1247 l 467 1001 m 726 1001 l 576 1001 l 707 1247 l 908 1247 l 726 1001 m 346 680 q 315 641 346 680 q 285 471 285 603 q 346 262 285 339 q 511 185 407 185 q 676 262 615 185 q 738 471 738 339 q 676 680 738 603 q 511 757 615 757 q 346 680 407 757 m 512 951 q 616 951 512 951 q 843 819 719 951 q 967 472 967 688 q 842 123 967 256 q 510 -10 718 -10 q 179 122 303 -10 q 56 470 56 254 q 180 819 56 686 q 512 951 304 951 z "},"ő":{"ha":788,"x_min":49,"x_max":801,"o":"m 360 769 l 210 769 l 329 1015 l 514 1015 l 360 769 m 619 769 l 469 769 l 600 1015 l 801 1015 l 619 769 m 293 499 q 276 470 293 499 q 260 351 260 442 q 294 203 260 261 q 395 146 328 146 q 495 202 463 146 q 528 349 528 258 q 393 556 528 556 q 293 499 326 556 m 398 715 q 478 715 398 715 q 649 614 558 715 q 739 354 739 513 q 648 92 739 196 q 393 -11 557 -11 q 139 88 229 -11 q 49 347 49 188 q 143 610 49 506 q 398 715 238 715 z "},"Œ":{"ha":1389,"x_min":56,"x_max":1306,"o":"m 1306 0 l 724 0 l 724 61 q 504 -10 626 -10 q 176 122 297 -10 q 56 470 56 253 q 176 819 56 688 q 504 951 297 951 q 724 882 626 951 l 724 936 l 1300 936 l 1300 765 l 925 765 l 925 553 l 1261 553 l 1261 383 l 925 383 l 925 171 l 1306 171 l 1306 0 m 343 680 q 314 641 343 680 q 285 471 285 603 q 343 262 285 339 q 504 185 401 185 q 665 262 607 185 q 724 471 724 339 q 665 680 724 603 q 504 757 607 757 q 343 680 401 757 z "},"œ":{"ha":1221,"x_min":49,"x_max":1168,"o":"m 1125 40 q 897 -7 1053 -7 q 639 96 742 -7 q 388 -11 546 -11 q 139 88 229 -11 q 49 347 49 188 q 143 610 49 506 q 391 715 238 715 q 636 615 544 715 q 868 711 732 711 q 1086 628 1004 711 q 1168 382 1168 546 q 1157 272 1168 350 l 743 272 q 815 182 764 214 q 939 150 867 150 q 1125 210 1046 150 l 1125 40 m 871 557 q 785 522 822 557 q 735 417 747 486 l 979 417 l 978 446 q 871 557 965 557 m 293 499 q 276 470 293 499 q 260 351 260 442 q 294 203 260 261 q 396 146 328 146 q 501 203 464 146 q 538 349 538 260 q 501 497 538 439 q 396 556 465 556 q 293 499 326 556 z "},"Ŕ":{"ha":853,"x_min":90,"x_max":828,"o":"m 493 1001 l 325 1001 l 444 1247 l 647 1247 l 493 1001 m 304 0 l 90 0 l 90 936 l 414 936 q 666 853 571 936 q 761 636 761 769 q 590 360 761 436 l 828 0 l 572 0 l 369 325 l 304 325 l 304 0 m 410 763 l 304 763 l 304 499 l 406 499 q 544 635 544 499 q 508 728 544 694 q 410 763 472 763 z "},"ŕ":{"ha":514,"x_min":82,"x_max":543,"o":"m 389 769 l 221 769 l 340 1015 l 543 1015 l 389 769 m 285 0 l 82 0 l 83 704 l 285 704 l 285 574 q 349 672 304 635 q 454 708 394 708 q 507 703 488 708 l 507 511 q 431 526 474 526 q 325 478 365 526 q 285 351 285 431 l 285 0 z "},"Ŗ":{"ha":853,"x_min":90,"x_max":828,"o":"m 304 0 l 90 0 l 90 936 l 414 936 q 666 853 571 936 q 761 636 761 769 q 590 360 761 436 l 828 0 l 572 0 l 369 325 l 304 325 l 304 0 m 376 -364 l 229 -364 l 328 -71 l 538 -71 l 376 -364 m 410 763 l 304 763 l 304 499 l 406 499 q 544 635 544 499 q 508 728 544 694 q 410 763 472 763 z "},"ŗ":{"ha":514,"x_min":-28,"x_max":507,"o":"m 285 0 l 82 0 l 83 704 l 285 704 l 285 574 q 349 672 304 635 q 454 708 394 708 q 507 703 488 708 l 507 511 q 431 526 474 526 q 325 478 365 526 q 285 351 285 431 l 285 0 m 119 -364 l -28 -364 l 71 -71 l 281 -71 l 119 -364 z "},"Ř":{"ha":853,"x_min":90,"x_max":828,"o":"m 525 1001 l 353 1001 l 136 1247 l 329 1247 l 439 1114 l 549 1247 l 742 1247 l 525 1001 m 304 0 l 90 0 l 90 936 l 414 936 q 666 853 571 936 q 761 636 761 769 q 590 360 761 436 l 828 0 l 572 0 l 369 325 l 304 325 l 304 0 m 410 763 l 304 763 l 304 499 l 406 499 q 544 635 544 499 q 508 728 544 694 q 410 763 472 763 z "},"ř":{"ha":514,"x_min":-8,"x_max":597,"o":"m 381 769 l 208 769 l -8 1015 l 185 1015 l 294 882 l 404 1015 l 597 1015 l 381 769 m 285 0 l 82 0 l 83 704 l 285 704 l 285 574 q 349 672 304 635 q 454 708 394 708 q 507 703 488 708 l 507 511 q 431 526 474 526 q 325 478 365 526 q 285 351 285 431 l 285 0 z "},"Ś":{"ha":714,"x_min":54,"x_max":672,"o":"m 449 1001 l 281 1001 l 400 1247 l 603 1247 l 449 1001 m 672 272 q 579 67 672 146 q 326 -11 486 -11 q 63 47 167 -11 l 63 263 q 332 171 189 171 q 413 197 381 171 q 444 264 444 222 q 429 310 444 294 q 403 333 414 325 q 373 351 393 340 q 339 368 353 361 q 254 407 296 389 q 109 510 164 449 q 54 682 54 571 q 143 867 54 793 q 381 942 232 942 q 631 894 529 942 l 631 694 q 397 760 518 760 q 315 738 343 760 q 286 681 286 715 q 321 619 286 646 q 412 567 356 592 q 497 527 468 542 q 562 487 525 513 q 619 433 599 461 q 672 272 672 364 z "},"ś":{"ha":606,"x_min":74,"x_max":574,"o":"m 419 769 l 251 769 l 371 1015 l 574 1015 l 419 769 m 564 213 q 489 51 564 108 q 288 -6 414 -6 q 76 38 163 -6 l 76 218 q 279 151 172 151 q 356 200 356 151 q 325 244 356 226 q 265 273 303 257 q 214 296 228 289 q 74 496 74 363 q 152 656 74 599 q 343 713 231 713 q 528 683 456 713 l 528 510 q 356 553 454 553 q 300 538 319 553 q 281 506 281 524 q 288 478 281 489 q 310 457 294 467 q 341 440 326 447 q 381 421 356 432 q 519 331 475 381 q 564 213 564 281 z "},"Ş":{"ha":714,"x_min":54,"x_max":672,"o":"m 471 -174 q 408 -317 471 -261 q 222 -372 344 -372 l 222 -246 q 299 -222 272 -246 q 326 -158 326 -199 q 290 -71 326 -118 l 447 -71 q 471 -174 471 -108 m 672 272 q 579 67 672 146 q 326 -11 486 -11 q 63 47 167 -11 l 63 263 q 332 171 189 171 q 413 197 381 171 q 444 264 444 222 q 429 310 444 294 q 403 333 414 325 q 373 351 393 340 q 339 368 353 361 q 254 407 296 389 q 109 510 164 449 q 54 682 54 571 q 143 867 54 793 q 381 942 232 942 q 631 894 529 942 l 631 694 q 397 760 518 760 q 315 738 343 760 q 286 681 286 715 q 321 619 286 646 q 412 567 356 592 q 497 527 468 542 q 562 487 525 513 q 619 433 599 461 q 672 272 672 364 z "},"ş":{"ha":606,"x_min":74,"x_max":564,"o":"m 415 -174 q 352 -317 415 -261 q 167 -372 289 -372 l 167 -246 q 244 -222 217 -246 q 271 -158 271 -199 q 235 -71 271 -118 l 392 -71 q 415 -174 415 -108 m 564 213 q 489 51 564 108 q 288 -6 414 -6 q 76 38 163 -6 l 76 218 q 279 151 172 151 q 356 200 356 151 q 325 244 356 226 q 265 273 303 257 q 214 296 228 289 q 74 496 74 363 q 152 656 74 599 q 343 713 231 713 q 528 683 456 713 l 528 510 q 356 553 454 553 q 300 538 319 553 q 281 506 281 524 q 288 478 281 489 q 310 457 294 467 q 341 440 326 447 q 381 421 356 432 q 519 331 475 381 q 564 213 564 281 z "},"Š":{"ha":714,"x_min":54,"x_max":672,"o":"m 456 1001 l 283 1001 l 67 1247 l 260 1247 l 369 1114 l 479 1247 l 672 1247 l 456 1001 m 672 272 q 579 67 672 146 q 326 -11 486 -11 q 63 47 167 -11 l 63 263 q 332 171 189 171 q 413 197 381 171 q 444 264 444 222 q 429 310 444 294 q 403 333 414 325 q 373 351 393 340 q 339 368 353 361 q 254 407 296 389 q 109 510 164 449 q 54 682 54 571 q 143 867 54 793 q 381 942 232 942 q 631 894 529 942 l 631 694 q 397 760 518 760 q 315 738 343 760 q 286 681 286 715 q 321 619 286 646 q 412 567 356 592 q 497 527 468 542 q 562 487 525 513 q 619 433 599 461 q 672 272 672 364 z "},"š":{"ha":606,"x_min":29,"x_max":635,"o":"m 418 768 l 246 768 l 29 1014 l 222 1014 l 332 881 l 442 1014 l 635 1014 l 418 768 m 564 213 q 489 51 564 108 q 288 -6 414 -6 q 76 38 163 -6 l 76 218 q 279 151 172 151 q 356 200 356 151 q 325 244 356 226 q 265 273 303 257 q 214 296 228 289 q 74 496 74 363 q 152 656 74 599 q 343 713 231 713 q 528 683 456 713 l 528 510 q 356 553 454 553 q 300 538 319 553 q 281 506 281 524 q 288 478 281 489 q 310 457 294 467 q 341 440 326 447 q 381 421 356 432 q 519 331 475 381 q 564 213 564 281 z "},"Ţ":{"ha":756,"x_min":42,"x_max":714,"o":"m 485 -174 q 422 -317 485 -261 q 236 -372 358 -372 l 236 -246 q 313 -222 286 -246 q 340 -158 340 -199 q 304 -71 340 -118 l 461 -71 q 485 -174 485 -108 m 714 764 l 486 764 l 486 0 l 271 0 l 271 764 l 42 764 l 42 936 l 714 936 l 714 764 z "},"ţ":{"ha":536,"x_min":14,"x_max":494,"o":"m 401 -174 q 338 -317 401 -261 q 153 -372 275 -372 l 153 -246 q 230 -222 203 -246 q 257 -158 257 -199 q 221 -71 257 -118 l 378 -71 q 401 -174 401 -108 m 356 -7 q 115 233 115 -7 l 115 556 l 14 556 l 14 704 l 115 704 l 115 871 l 318 871 l 318 704 l 482 704 l 482 556 l 318 556 l 318 232 q 340 175 318 194 q 406 156 361 156 q 494 183 451 156 l 494 15 q 356 -7 443 -7 z "},"Ť":{"ha":756,"x_min":42,"x_max":714,"o":"m 464 1001 l 292 1001 l 75 1247 l 268 1247 l 378 1114 l 488 1247 l 681 1247 l 464 1001 m 714 764 l 486 764 l 486 0 l 271 0 l 271 764 l 42 764 l 42 936 l 714 936 l 714 764 z "},"ť":{"ha":536,"x_min":14,"x_max":697,"o":"m 536 817 l 389 817 l 488 1110 l 697 1110 l 536 817 m 356 -7 q 115 233 115 -7 l 115 556 l 14 556 l 14 704 l 115 704 l 115 871 l 318 871 l 318 704 l 482 704 l 482 556 l 318 556 l 318 232 q 340 175 318 194 q 406 156 361 156 q 494 183 451 156 l 494 15 q 356 -7 443 -7 z "},"Ū":{"ha":928,"x_min":83,"x_max":844,"o":"m 722 1056 l 228 1056 l 228 1193 l 722 1193 l 722 1056 m 844 363 q 742 83 844 179 q 465 -14 639 -14 q 188 82 292 -14 q 83 353 83 178 l 83 936 l 297 936 l 297 354 q 464 181 297 181 q 631 361 631 181 l 631 936 l 844 936 l 844 363 z "},"ū":{"ha":806,"x_min":76,"x_max":722,"o":"m 644 824 l 150 824 l 150 961 l 644 961 l 644 824 m 722 0 l 519 0 l 519 113 q 306 -6 464 -6 q 137 55 197 -6 q 76 233 76 115 l 76 704 l 279 704 l 279 279 q 388 156 279 156 q 519 332 519 156 l 519 704 l 722 704 l 722 0 z "},"Ů":{"ha":928,"x_min":83,"x_max":844,"o":"m 414 1234 q 403 1223 414 1234 q 393 1179 393 1211 q 414 1124 393 1147 q 467 1101 435 1101 q 519 1124 499 1101 q 540 1179 540 1147 q 519 1234 540 1211 q 467 1257 499 1257 q 414 1234 435 1257 m 600 1308 q 628 1281 600 1308 q 656 1175 656 1253 q 600 1042 656 1097 q 467 986 544 986 q 333 1042 389 986 q 278 1175 278 1097 q 333 1308 278 1253 q 467 1364 389 1364 q 600 1308 544 1364 m 844 363 q 742 83 844 179 q 465 -14 639 -14 q 188 82 292 -14 q 83 353 83 178 l 83 936 l 297 936 l 297 354 q 464 181 297 181 q 631 361 631 181 l 631 936 l 844 936 l 844 363 z "},"ů":{"ha":806,"x_min":76,"x_max":722,"o":"m 351 1002 q 341 991 351 1002 q 331 947 331 979 q 351 892 331 915 q 404 869 372 869 q 457 892 436 869 q 478 947 478 915 q 457 1002 478 979 q 404 1025 436 1025 q 351 1002 372 1025 m 538 1076 q 565 1049 538 1076 q 593 943 593 1021 q 538 810 593 865 q 404 754 482 754 q 271 810 326 754 q 215 943 215 865 q 271 1076 215 1021 q 404 1132 326 1132 q 538 1076 482 1132 m 722 0 l 519 0 l 519 113 q 306 -6 464 -6 q 137 55 197 -6 q 76 233 76 115 l 76 704 l 279 704 l 279 279 q 388 156 279 156 q 519 332 519 156 l 519 704 l 722 704 l 722 0 z "},"Ű":{"ha":928,"x_min":83,"x_max":856,"o":"m 414 1001 l 264 1001 l 383 1247 l 568 1247 l 414 1001 m 674 1001 l 524 1001 l 654 1247 l 856 1247 l 674 1001 m 844 363 q 742 83 844 179 q 465 -14 639 -14 q 188 82 292 -14 q 83 353 83 178 l 83 936 l 297 936 l 297 354 q 464 181 297 181 q 631 361 631 181 l 631 936 l 844 936 l 844 363 z "},"ű":{"ha":806,"x_min":76,"x_max":800,"o":"m 358 769 l 208 769 l 328 1015 l 513 1015 l 358 769 m 618 769 l 468 769 l 599 1015 l 800 1015 l 618 769 m 722 0 l 519 0 l 519 113 q 306 -6 464 -6 q 137 55 197 -6 q 76 233 76 115 l 76 704 l 279 704 l 279 279 q 388 156 279 156 q 519 332 519 156 l 519 704 l 722 704 l 722 0 z "},"Ų":{"ha":928,"x_min":83,"x_max":844,"o":"m 844 363 q 785 137 844 226 q 622 11 726 47 q 458 -169 458 -90 q 519 -217 458 -217 q 639 -175 579 -217 l 639 -315 q 481 -350 572 -350 q 344 -304 390 -350 q 297 -187 297 -258 q 385 -8 297 -93 q 165 106 246 13 q 83 353 83 199 l 83 936 l 297 936 l 297 354 q 464 181 297 181 q 631 361 631 181 l 631 936 l 844 936 l 844 363 z "},"ų":{"ha":806,"x_min":76,"x_max":739,"o":"m 739 -326 q 581 -361 672 -361 q 444 -315 490 -361 q 397 -199 397 -269 q 519 10 397 -86 l 519 113 q 306 -6 464 -6 q 137 55 197 -6 q 76 233 76 115 l 76 704 l 279 704 l 279 279 q 388 156 279 156 q 519 332 519 156 l 519 704 l 722 704 l 722 0 q 558 -181 558 -101 q 619 -228 558 -228 q 739 -186 679 -228 l 739 -326 z "},"Ÿ":{"ha":893,"x_min":18,"x_max":875,"o":"m 270 1236 q 295 1236 270 1236 q 352 1203 319 1236 q 385 1123 385 1171 q 352 1042 385 1075 q 270 1010 319 1010 q 188 1042 221 1010 q 156 1123 156 1075 q 188 1203 156 1171 q 270 1236 221 1236 m 642 1236 q 667 1236 642 1236 q 725 1203 692 1236 q 758 1123 758 1171 q 725 1042 758 1075 q 642 1010 692 1010 q 560 1042 593 1010 q 528 1123 528 1075 q 560 1203 528 1171 q 642 1236 593 1236 m 551 0 l 338 0 l 338 343 l 18 936 l 268 936 q 443 500 408 600 q 565 800 457 563 l 626 936 l 875 936 l 551 344 l 551 0 z "},"Ź":{"ha":863,"x_min":83,"x_max":779,"o":"m 546 1001 l 378 1001 l 497 1247 l 700 1247 l 546 1001 m 779 0 l 83 0 l 83 157 l 503 764 l 92 764 l 92 936 l 763 936 l 763 785 l 340 172 l 779 172 l 779 0 z "},"ź":{"ha":665,"x_min":56,"x_max":610,"o":"m 446 768 l 278 768 l 397 1014 l 600 1014 l 446 768 m 610 0 l 56 0 l 56 146 l 364 549 l 68 549 l 68 704 l 593 704 l 593 564 l 285 157 l 610 157 l 610 0 z "},"Ż":{"ha":863,"x_min":83,"x_max":779,"o":"m 456 1238 q 481 1238 456 1238 q 538 1205 506 1238 q 571 1124 571 1172 q 538 1044 571 1076 q 456 1011 506 1011 q 374 1044 407 1011 q 342 1124 342 1076 q 374 1205 342 1172 q 456 1238 407 1238 m 779 0 l 83 0 l 83 157 l 503 764 l 92 764 l 92 936 l 763 936 l 763 785 l 340 172 l 779 172 l 779 0 z "},"ż":{"ha":665,"x_min":56,"x_max":610,"o":"m 349 1004 q 374 1004 349 1004 q 431 972 399 1004 q 464 891 464 939 q 431 810 464 843 q 349 778 399 778 q 267 810 300 778 q 235 891 235 843 q 267 972 235 939 q 349 1004 300 1004 m 610 0 l 56 0 l 56 146 l 364 549 l 68 549 l 68 704 l 593 704 l 593 564 l 285 157 l 610 157 l 610 0 z "},"Ž":{"ha":863,"x_min":83,"x_max":779,"o":"m 531 1001 l 358 1001 l 142 1247 l 335 1247 l 444 1114 l 554 1247 l 747 1247 l 531 1001 m 779 0 l 83 0 l 83 157 l 503 764 l 92 764 l 92 936 l 763 936 l 763 785 l 340 172 l 779 172 l 779 0 z "},"ž":{"ha":665,"x_min":56,"x_max":663,"o":"m 446 769 l 274 769 l 57 1015 l 250 1015 l 360 882 l 469 1015 l 663 1015 l 446 769 m 610 0 l 56 0 l 56 146 l 364 549 l 68 549 l 68 704 l 593 704 l 593 564 l 285 157 l 610 157 l 610 0 z "},"ƒ":{"ha":725,"x_min":-42,"x_max":683,"o":"m 92 -356 q -42 -335 7 -356 l -42 -171 q 57 -193 3 -193 q 137 -156 111 -193 q 174 -44 163 -119 l 240 388 l 119 388 l 119 536 l 264 536 l 281 646 q 372 863 301 782 q 564 943 443 943 q 683 929 643 943 l 683 765 q 604 781 644 781 q 482 632 504 781 l 467 536 l 600 536 l 600 388 l 444 388 l 375 -58 q 283 -275 354 -194 q 92 -356 213 -356 z "},"Ș":{"ha":714,"x_min":54,"x_max":672,"o":"m 313 -364 l 165 -364 l 264 -71 l 474 -71 l 313 -364 m 672 272 q 579 67 672 146 q 326 -11 486 -11 q 63 47 167 -11 l 63 263 q 332 171 189 171 q 413 197 381 171 q 444 264 444 222 q 429 310 444 294 q 403 333 414 325 q 373 351 393 340 q 339 368 353 361 q 254 407 296 389 q 109 510 164 449 q 54 682 54 571 q 143 867 54 793 q 381 942 232 942 q 631 894 529 942 l 631 694 q 397 760 518 760 q 315 738 343 760 q 286 681 286 715 q 321 619 286 646 q 412 567 356 592 q 497 527 468 542 q 562 487 525 513 q 619 433 599 461 q 672 272 672 364 z "},"ș":{"ha":606,"x_min":74,"x_max":564,"o":"m 257 -364 l 110 -364 l 208 -71 l 418 -71 l 257 -364 m 564 213 q 489 51 564 108 q 288 -6 414 -6 q 76 38 163 -6 l 76 218 q 279 151 172 151 q 356 200 356 151 q 325 244 356 226 q 265 273 303 257 q 214 296 228 289 q 74 496 74 363 q 152 656 74 599 q 343 713 231 713 q 528 683 456 713 l 528 510 q 356 553 454 553 q 300 538 319 553 q 281 506 281 524 q 288 478 281 489 q 310 457 294 467 q 341 440 326 447 q 381 421 356 432 q 519 331 475 381 q 564 213 564 281 z "},"Ț":{"ha":756,"x_min":42,"x_max":714,"o":"m 714 764 l 486 764 l 486 0 l 271 0 l 271 764 l 42 764 l 42 936 l 714 936 l 714 764 m 321 -364 l 174 -364 l 272 -71 l 482 -71 l 321 -364 z "},"ț":{"ha":536,"x_min":14,"x_max":494,"o":"m 297 -364 l 150 -364 l 249 -71 l 458 -71 l 297 -364 m 356 -7 q 115 233 115 -7 l 115 556 l 14 556 l 14 704 l 115 704 l 115 871 l 318 871 l 318 704 l 482 704 l 482 556 l 318 556 l 318 232 q 340 175 318 194 q 406 156 361 156 q 494 183 451 156 l 494 15 q 356 -7 443 -7 z "},"ˆ":{"ha":694,"x_min":44,"x_max":650,"o":"m 238 863 l 44 863 l 261 1108 l 433 1108 l 650 863 l 457 863 l 347 996 l 238 863 z "},"ˇ":{"ha":694,"x_min":44,"x_max":650,"o":"m 433 863 l 261 863 l 44 1108 l 238 1108 l 347 975 l 457 1108 l 650 1108 l 433 863 z "},"ˉ":{"ha":694,"x_min":100,"x_max":594,"o":"m 594 904 l 100 904 l 100 1042 l 594 1042 l 594 904 z "},"˘":{"ha":694,"x_min":72,"x_max":622,"o":"m 622 1108 q 547 918 622 979 q 347 857 471 857 q 148 918 224 857 q 72 1108 72 979 l 228 1108 q 260 1017 228 1050 q 347 985 293 985 q 434 1017 401 985 q 467 1108 467 1050 l 622 1108 z "},"˙":{"ha":694,"x_min":232,"x_max":461,"o":"m 347 1100 q 371 1100 347 1100 q 428 1067 396 1100 q 461 987 461 1035 q 428 906 461 939 q 347 874 396 874 q 265 906 297 874 q 232 987 232 939 q 265 1067 232 1035 q 347 1100 297 1100 z "},"˚":{"ha":694,"x_min":158,"x_max":536,"o":"m 294 1045 q 284 1034 294 1045 q 274 990 274 1022 q 294 935 274 958 q 347 913 315 913 q 400 935 379 913 q 421 990 421 958 q 400 1045 421 1022 q 347 1068 379 1068 q 294 1045 315 1068 m 481 1119 q 508 1092 481 1119 q 536 986 536 1064 q 481 853 536 908 q 347 797 425 797 q 214 853 269 797 q 158 986 158 908 q 214 1119 158 1064 q 347 1175 269 1175 q 481 1119 425 1175 z "},"˛":{"ha":694,"x_min":176,"x_max":518,"o":"m 518 -307 q 360 -342 451 -342 q 223 -296 269 -342 q 176 -187 176 -250 q 204 -75 176 -125 q 276 11 232 -25 q 433 108 351 72 l 501 19 q 338 -161 338 -82 q 398 -208 338 -208 q 518 -167 458 -208 l 518 -307 z "},"˜":{"ha":694,"x_min":72,"x_max":622,"o":"m 433 863 q 338 887 388 863 q 260 911 288 911 q 213 899 232 911 q 163 851 193 888 l 72 940 q 138 1021 94 988 q 233 1054 182 1054 q 340 1030 283 1054 q 422 1006 396 1006 q 519 1065 489 1006 l 622 981 q 433 863 564 863 z "},"˝":{"ha":694,"x_min":51,"x_max":643,"o":"m 201 863 l 51 863 l 171 1108 l 356 1108 l 201 863 m 461 863 l 311 863 l 442 1108 l 643 1108 l 461 863 z "},"π":{"ha":842,"x_min":28,"x_max":828,"o":"m 828 556 l 717 556 l 717 0 l 514 0 l 514 556 l 342 556 l 342 300 q 274 66 342 132 q 54 0 207 0 l 54 165 q 120 188 101 165 q 139 279 139 211 l 139 556 l 28 556 l 28 704 l 828 704 l 828 556 z "},"।":{"ha":663,"x_min":299,"x_max":496,"o":"m 496 0 l 299 0 l 299 932 l 496 932 l 496 0 z "},"॥":{"ha":1010,"x_min":299,"x_max":843,"o":"m 496 0 l 299 0 l 299 932 l 496 932 l 496 0 m 843 0 l 646 0 l 646 932 l 843 932 l 843 0 z "},"ഁ":{"ha":0,"x_min":-565,"x_max":150,"o":"m -203 1435 q -177 1435 -203 1435 q -118 1403 -150 1435 q -86 1317 -86 1371 q -117 1232 -86 1264 q -203 1200 -149 1200 q -289 1232 -257 1200 q -321 1317 -321 1264 q -289 1403 -321 1371 q -203 1435 -257 1435 m 150 1236 q 62 1006 150 1090 q -203 921 -26 921 q -473 1006 -381 921 q -565 1236 -565 1092 l -378 1236 q -335 1130 -378 1169 q -202 1090 -292 1090 q -75 1126 -112 1090 q -37 1236 -37 1161 l 150 1236 z "},"ം":{"ha":694,"x_min":56,"x_max":653,"o":"m 140 73 q 98 116 140 73 q 56 294 56 160 q 140 517 56 429 q 356 604 225 604 q 569 517 486 604 q 653 295 653 431 q 569 73 653 160 q 354 -14 485 -14 q 140 73 224 -14 m 353 425 q 329 425 353 425 q 272 388 304 425 q 240 292 240 351 q 273 199 240 233 q 356 165 306 165 q 437 199 406 165 q 468 294 468 232 q 435 390 468 356 q 353 425 403 425 z "},"ഃ":{"ha":500,"x_min":56,"x_max":444,"o":"m 251 -14 q 209 -14 251 -14 q 112 43 168 -14 q 56 188 56 100 q 112 333 56 276 q 251 390 168 390 q 390 333 335 390 q 444 188 444 276 q 389 42 444 99 q 251 -14 333 -14 m 200 244 q 190 233 200 244 q 181 186 181 222 q 200 128 181 150 q 250 107 219 107 q 300 128 281 107 q 319 188 319 150 q 301 246 319 225 q 251 267 282 267 q 200 244 219 267 m 251 443 q 209 443 251 443 q 112 500 168 443 q 56 645 56 557 q 112 790 56 733 q 251 847 168 847 q 390 790 335 847 q 444 644 444 733 q 389 499 444 556 q 251 443 333 443 m 200 701 q 190 690 200 701 q 181 643 181 679 q 200 585 181 607 q 250 564 219 564 q 300 585 281 564 q 319 644 319 607 q 301 703 319 682 q 251 724 282 724 q 200 701 219 724 z "},"അ":{"ha":2288,"x_min":63,"x_max":2225,"o":"m 1840 343 q 1824 326 1840 343 q 1808 265 1808 310 q 1840 188 1808 221 q 1917 154 1871 154 q 1994 188 1963 154 q 2025 265 2025 221 q 1994 343 2025 310 q 1917 376 1963 376 q 1840 343 1871 376 m 832 665 q 692 392 692 574 q 741 224 692 294 q 871 154 790 154 q 938 176 913 154 q 964 233 964 199 q 835 322 964 322 l 790 322 l 790 489 l 842 489 q 939 571 939 489 q 832 665 939 635 m 493 174 l 493 -14 q 179 101 296 -14 q 63 407 63 215 q 203 723 63 599 q 549 847 343 847 q 792 806 686 847 q 998 847 879 847 q 1226 794 1117 847 q 1390 644 1335 742 q 1551 794 1449 742 q 1768 846 1654 846 q 2090 714 1956 846 q 2225 383 2225 582 q 2138 98 2225 210 q 1919 -14 2051 -14 q 1701 63 1786 -14 q 1615 262 1615 140 q 1690 463 1615 383 q 1878 543 1765 543 q 1970 522 1926 543 q 2038 471 2014 501 q 1946 622 2026 561 q 1769 683 1865 683 q 1569 595 1649 683 q 1489 371 1489 507 l 1489 0 l 1292 0 l 1292 378 q 1219 597 1292 506 q 1042 708 1146 688 q 1142 567 1142 638 q 1100 456 1142 497 q 986 408 1058 414 q 1118 354 1067 400 q 1169 236 1169 308 q 1088 53 1169 119 q 875 -14 1006 -14 q 599 103 703 -14 q 494 392 494 219 q 618 690 494 564 q 549 692 596 692 q 347 615 425 692 q 268 403 268 539 q 327 235 268 296 q 493 174 386 174 z "},"ആ":{"ha":2375,"x_min":63,"x_max":2333,"o":"m 832 665 q 692 392 692 574 q 741 224 692 294 q 871 154 790 154 q 938 176 913 154 q 964 233 964 199 q 835 322 964 322 l 790 322 l 790 489 l 842 489 q 939 571 939 489 q 832 665 939 635 m 792 806 q 998 847 879 847 q 1226 794 1117 847 q 1390 644 1335 742 q 1542 790 1443 733 q 1765 847 1640 847 q 2092 717 1974 847 q 2221 392 2210 586 q 2333 89 2333 265 q 2203 -238 2333 -119 q 1857 -357 2074 -357 q 1688 -339 1767 -357 l 1688 -157 q 1856 -185 1785 -185 q 2070 -115 1992 -185 q 2154 119 2149 -44 q 1910 -14 2065 -14 q 1701 63 1786 -14 q 1615 263 1615 140 q 1701 460 1615 385 q 1918 536 1788 536 q 2021 521 1968 536 q 1767 683 1954 683 q 1566 603 1643 683 q 1489 378 1489 522 l 1489 0 l 1292 0 l 1292 378 q 1219 597 1292 506 q 1042 708 1146 688 q 1142 567 1142 638 q 1100 456 1142 497 q 986 408 1058 414 q 1118 354 1067 400 q 1169 236 1169 308 q 1088 53 1169 119 q 875 -14 1006 -14 q 599 103 703 -14 q 494 392 494 219 q 618 690 494 564 q 549 692 596 692 q 347 615 425 692 q 268 403 268 539 q 327 235 268 296 q 493 174 386 174 l 493 -14 q 179 101 296 -14 q 63 407 63 215 q 203 723 63 599 q 549 847 343 847 q 792 806 686 847 m 1810 265 q 1810 241 1810 265 q 1840 185 1810 218 q 1927 153 1871 153 q 2019 199 1983 153 q 2054 326 2054 244 q 1929 375 1990 375 q 1839 343 1868 375 q 1810 265 1810 311 z "},"ഇ":{"ha":1340,"x_min":63,"x_max":1271,"o":"m 960 847 q 1184 757 1097 847 q 1271 499 1271 667 q 1158 161 1271 307 q 1001 43 1101 88 q 769 -1 901 -1 l 336 -1 q 284 -18 304 -1 q 264 -62 264 -35 q 286 -109 264 -90 q 340 -128 308 -128 l 1256 -128 l 1256 -297 l 301 -297 q 126 -228 190 -297 q 63 -62 63 -160 q 129 102 63 36 q 321 168 196 168 l 728 168 q 984 261 900 168 q 1068 489 1068 354 q 1033 638 1068 589 q 938 686 997 686 q 835 631 878 686 q 793 489 793 575 l 793 308 l 596 308 l 596 461 q 540 626 596 567 q 400 685 485 685 q 304 651 343 685 q 265 568 265 618 q 294 489 265 518 q 361 457 322 460 q 450 461 400 454 l 450 281 q 367 274 411 274 q 147 347 231 274 q 63 552 63 421 q 151 765 63 683 q 382 847 239 847 q 571 799 483 847 q 694 676 658 751 q 793 800 722 753 q 960 847 864 847 z "},"ഈ":{"ha":2486,"x_min":63,"x_max":2417,"o":"m 2417 469 q 2294 120 2417 254 q 1974 -14 2172 -14 q 1829 10 1893 -14 l 1829 192 q 1965 174 1896 174 q 2144 242 2076 174 q 2211 450 2211 310 q 2082 678 2211 678 q 2006 645 2033 678 q 1978 550 1978 613 l 1978 422 l 1775 422 l 1775 536 q 1665 678 1775 678 q 1584 636 1613 678 q 1556 531 1556 594 q 1589 385 1556 467 l 1388 385 q 1357 529 1357 446 q 1433 753 1357 660 q 1649 847 1510 847 q 1790 809 1731 847 q 1882 715 1850 771 q 1965 808 1906 769 q 2100 847 2025 847 q 2337 741 2257 847 q 2417 469 2417 635 m 1256 -297 l 301 -297 q 126 -228 190 -297 q 63 -62 63 -160 q 129 102 63 36 q 321 168 196 168 l 728 168 q 984 261 900 168 q 1068 489 1068 354 q 1033 638 1068 589 q 938 686 997 686 q 835 631 878 686 q 793 489 793 575 l 793 308 l 596 308 l 596 461 q 540 626 596 567 q 400 685 485 685 q 304 651 343 685 q 265 568 265 618 q 294 489 265 518 q 361 457 322 460 q 450 461 400 454 l 450 281 q 367 274 411 274 q 147 347 231 274 q 63 552 63 421 q 151 765 63 683 q 382 847 239 847 q 571 799 483 847 q 694 676 658 751 q 793 800 722 753 q 960 847 864 847 q 1184 757 1097 847 q 1271 499 1271 667 q 1158 161 1271 307 q 1001 43 1101 88 q 769 -1 901 -1 l 336 -1 q 284 -18 304 -1 q 264 -62 264 -35 q 286 -109 264 -90 q 340 -128 308 -128 l 1256 -128 l 1256 -297 z "},"ഉ":{"ha":1046,"x_min":63,"x_max":976,"o":"m 256 483 q 244 471 256 483 q 233 426 233 458 q 256 370 233 394 q 313 346 278 346 q 370 370 347 346 q 393 426 393 394 q 370 483 393 458 q 313 508 347 508 q 256 483 278 508 m 976 -297 l 315 -297 q 140 -228 204 -297 q 76 -60 76 -160 q 145 99 76 39 q 332 158 214 158 l 532 158 q 715 237 654 158 q 775 430 775 315 q 700 611 775 544 q 513 678 625 678 q 321 615 401 678 q 489 585 414 646 q 564 420 564 524 q 493 254 564 317 q 313 192 422 192 q 133 264 204 192 q 63 461 63 336 q 197 731 63 615 q 530 847 332 847 q 852 724 728 847 q 976 429 976 600 q 860 103 976 225 q 524 -18 743 -18 l 338 -17 q 294 -31 311 -17 q 278 -71 278 -44 q 299 -112 278 -97 q 354 -128 321 -128 l 976 -128 l 976 -297 z "},"ഊ":{"ha":2174,"x_min":63,"x_max":2104,"o":"m 2104 469 q 1982 120 2104 254 q 1661 -14 1860 -14 q 1517 10 1581 -14 l 1517 192 q 1653 174 1583 174 q 1831 242 1764 174 q 1899 450 1899 310 q 1769 678 1899 678 q 1693 645 1721 678 q 1665 550 1665 613 l 1665 422 l 1463 422 l 1463 536 q 1353 678 1463 678 q 1272 636 1300 678 q 1243 531 1243 594 q 1276 385 1243 467 l 1075 385 q 1044 529 1044 446 q 1121 753 1044 660 q 1336 847 1197 847 q 1478 809 1418 847 q 1569 715 1538 771 q 1653 808 1593 769 q 1788 847 1713 847 q 2024 741 1944 847 q 2104 469 2104 635 m 256 483 q 244 471 256 483 q 233 426 233 458 q 256 370 233 394 q 313 346 278 346 q 370 370 347 346 q 393 426 393 394 q 370 483 393 458 q 313 508 347 508 q 256 483 278 508 m 976 -297 l 315 -297 q 140 -228 204 -297 q 76 -60 76 -160 q 145 99 76 39 q 332 158 214 158 l 532 158 q 715 237 654 158 q 775 430 775 315 q 700 611 775 544 q 513 678 625 678 q 321 615 401 678 q 489 585 414 646 q 564 420 564 524 q 493 254 564 317 q 313 192 422 192 q 133 264 204 192 q 63 461 63 336 q 197 731 63 615 q 530 847 332 847 q 852 724 728 847 q 976 429 976 600 q 860 103 976 225 q 524 -18 743 -18 l 338 -17 q 294 -31 311 -17 q 278 -71 278 -44 q 299 -112 278 -97 q 354 -128 321 -128 l 976 -128 l 976 -297 z "},"ഋ":{"ha":1314,"x_min":69,"x_max":1244,"o":"m 967 693 q 947 693 967 693 q 899 665 926 693 q 872 597 872 636 q 899 528 872 557 q 967 499 926 499 q 1035 528 1008 499 q 1063 597 1063 557 q 1035 665 1063 636 q 967 693 1008 693 m 347 693 q 326 693 347 693 q 278 665 306 693 q 251 597 251 636 q 278 528 251 557 q 347 499 306 499 q 415 528 388 499 q 442 597 442 557 q 415 665 442 636 q 347 693 388 693 m 303 6 q 394 -91 303 -58 q 649 -124 485 -124 q 911 -89 813 -124 q 1010 8 1010 -54 q 910 99 1010 69 q 653 128 810 128 q 400 97 497 128 q 303 6 303 67 m 1215 3 q 1073 -213 1215 -133 q 660 -293 931 -293 q 243 -212 389 -293 q 97 0 97 -132 q 153 141 97 85 q 299 214 208 197 q 137 354 204 260 q 69 581 69 449 q 151 767 69 688 q 356 847 232 847 q 551 771 479 847 q 624 595 624 694 q 561 433 624 496 q 418 371 499 371 q 325 393 365 371 q 661 292 435 292 q 993 393 888 292 q 911 371 953 371 q 760 433 829 371 q 690 594 690 494 q 762 771 690 694 q 958 847 833 847 q 1164 766 1083 847 q 1244 565 1244 685 q 1177 351 1244 444 q 1017 214 1110 258 q 1159 140 1103 197 q 1215 3 1215 83 z "},"ഌ":{"ha":1744,"x_min":69,"x_max":1675,"o":"m 1301 361 q 1385 156 1301 156 q 1469 375 1469 156 q 1386 633 1469 539 q 1301 361 1301 533 m 275 375 q 359 156 275 156 q 443 361 443 156 q 358 633 443 533 q 275 375 275 539 m 649 361 q 567 83 649 179 q 359 -14 486 -14 q 151 85 232 -14 q 69 387 69 185 q 198 718 69 589 q 524 847 326 847 q 740 794 650 847 q 872 676 829 742 q 1005 794 915 742 q 1221 847 1094 847 q 1547 718 1418 847 q 1675 387 1675 589 q 1594 85 1675 185 q 1385 -14 1513 -14 q 1177 83 1258 -14 q 1096 361 1096 179 q 1135 536 1096 446 q 1235 675 1174 626 l 1224 675 q 1045 601 1117 672 q 974 392 974 531 l 974 0 l 771 0 l 771 392 q 701 601 771 531 q 525 675 631 671 l 510 675 q 610 536 571 626 q 649 361 649 446 z "},"എ":{"ha":2008,"x_min":63,"x_max":1918,"o":"m 1288 -129 q 1340 -76 1340 -129 l 1340 0 l 1151 0 q 1288 -129 1194 -129 m 1521 -33 q 1459 -228 1521 -157 q 1285 -299 1397 -299 q 1079 -219 1172 -299 q 944 0 986 -139 l 531 0 l 531 163 q 603 332 603 242 q 556 470 603 422 q 437 518 508 518 q 317 468 365 518 q 268 343 268 418 q 303 222 268 268 q 392 174 338 176 l 392 -14 q 156 84 250 -12 q 63 336 63 181 q 172 590 63 492 q 436 688 281 688 q 700 590 592 688 q 808 335 808 492 q 742 164 808 246 q 851 169 783 169 l 928 168 q 925 239 925 213 q 1060 677 925 507 q 1428 847 1194 847 q 1694 767 1582 847 q 1863 554 1807 688 q 1918 249 1918 421 q 1794 -271 1918 -1 l 1575 -271 q 1713 243 1713 -8 q 1638 567 1713 456 q 1429 678 1563 678 q 1213 559 1296 678 q 1131 253 1131 440 q 1133 168 1131 221 l 1340 168 l 1340 560 l 1521 560 l 1521 -33 z "},"ഏ":{"ha":2100,"x_min":63,"x_max":2024,"o":"m 1288 -129 q 1340 -76 1340 -129 l 1340 0 l 1151 0 q 1288 -129 1194 -129 m 1521 -33 q 1459 -228 1521 -157 q 1285 -299 1397 -299 q 1079 -219 1172 -299 q 944 0 986 -139 l 531 0 l 531 163 q 603 332 603 242 q 556 470 603 422 q 437 518 508 518 q 317 468 365 518 q 268 343 268 418 q 303 222 268 268 q 392 174 338 176 l 392 -14 q 156 84 250 -12 q 63 336 63 181 q 172 590 63 492 q 436 688 281 688 q 700 590 592 688 q 808 335 808 492 q 738 164 808 238 q 851 169 779 169 l 928 169 q 925 239 925 214 q 999 544 925 404 q 1207 765 1074 683 q 1503 847 1340 847 q 1858 740 1724 847 q 1993 476 1993 632 q 1957 337 1993 401 q 1857 251 1921 272 q 1976 178 1929 233 q 2024 40 2024 124 q 1941 -186 2024 -101 q 1710 -271 1858 -271 q 1592 -253 1651 -271 l 1592 -76 q 1695 -87 1640 -87 q 1784 -53 1750 -87 q 1818 40 1818 -18 q 1779 133 1818 99 q 1669 168 1740 168 l 1610 168 l 1610 335 l 1669 335 q 1762 374 1729 335 q 1794 476 1794 414 q 1712 626 1794 574 q 1503 678 1629 678 q 1235 558 1339 678 q 1131 253 1131 439 q 1133 168 1131 188 l 1340 168 l 1340 546 l 1521 546 l 1521 -33 z "},"ഐ":{"ha":3099,"x_min":69,"x_max":3008,"o":"m 2378 -129 q 2431 -76 2431 -129 l 2431 0 l 2242 0 q 2378 -129 2285 -129 m 2611 -33 q 2549 -228 2611 -157 q 2375 -299 2488 -299 q 2169 -219 2263 -299 q 2035 0 2076 -139 l 1621 0 l 1621 163 q 1693 332 1693 242 q 1646 470 1693 422 q 1527 518 1599 518 q 1407 468 1456 518 q 1358 343 1358 418 q 1393 222 1358 268 q 1482 174 1428 176 l 1482 -14 q 1247 84 1340 -12 q 1153 336 1153 181 q 1262 590 1153 492 q 1526 688 1371 688 q 1790 590 1682 688 q 1899 335 1899 492 q 1832 164 1899 246 q 1942 169 1874 169 l 2018 168 q 2015 239 2015 213 q 2150 677 2015 507 q 2518 847 2285 847 q 2785 767 2672 847 q 2953 554 2897 688 q 3008 249 3008 421 q 2885 -271 3008 -1 l 2665 -271 q 2803 243 2803 -8 q 2728 567 2803 456 q 2519 678 2653 678 q 2303 559 2386 678 q 2221 253 2221 440 q 2224 168 2221 221 l 2431 168 l 2431 560 l 2611 560 l 2611 -33 m 431 540 q 623 465 553 540 q 693 272 693 390 q 610 70 693 154 q 388 -14 526 -14 q 160 94 250 -14 q 69 365 69 201 q 128 597 69 488 q 300 776 186 706 q 557 847 414 847 q 888 714 750 847 q 1025 392 1025 581 q 917 0 1025 176 l 688 0 q 819 392 819 192 q 745 603 819 528 q 563 678 671 678 q 379 622 456 678 q 276 472 303 567 q 343 519 299 499 q 431 540 388 540 m 394 371 q 371 371 394 371 q 319 339 349 371 q 289 264 289 307 q 319 188 289 221 q 394 156 349 156 q 469 188 439 156 q 499 264 499 221 q 469 339 499 307 q 394 371 439 371 z "},"ഒ":{"ha":1196,"x_min":69,"x_max":1119,"o":"m 387 371 q 364 371 387 371 q 312 338 342 371 q 282 263 282 306 q 312 188 282 221 q 387 156 342 156 q 462 188 432 156 q 492 263 492 221 q 462 338 492 306 q 387 371 432 371 m 639 847 q 947 772 819 847 q 1075 568 1075 696 q 953 410 1075 440 q 1074 351 1028 401 q 1119 233 1119 300 q 1044 56 1119 125 q 847 -14 968 -14 q 743 -3 783 -14 l 743 171 q 826 163 782 163 q 897 184 869 163 q 924 245 924 206 q 894 306 924 285 q 813 326 864 326 l 767 326 l 767 493 l 799 493 q 876 575 876 493 q 814 653 876 626 q 642 681 751 681 q 276 494 349 681 q 421 540 338 540 q 610 462 533 540 q 686 263 686 383 q 599 64 686 142 q 380 -14 513 -14 q 158 84 247 -14 q 69 333 69 182 q 220 712 69 576 q 639 847 371 847 z "},"ഓ":{"ha":1847,"x_min":69,"x_max":1792,"o":"m 1681 726 q 1736 665 1681 726 q 1792 421 1792 604 q 1681 116 1792 238 q 1396 -6 1569 -6 q 1204 29 1301 -6 l 1204 199 q 1382 164 1317 164 q 1529 234 1472 164 q 1586 421 1586 304 q 1529 608 1586 538 q 1382 678 1472 678 q 1204 643 1317 678 l 1204 813 q 1396 847 1301 847 q 1681 726 1569 847 m 387 371 q 364 371 387 371 q 312 338 342 371 q 282 263 282 306 q 312 188 282 221 q 387 156 342 156 q 462 188 432 156 q 492 263 492 221 q 462 338 492 306 q 387 371 432 371 m 639 847 q 947 772 819 847 q 1075 568 1075 696 q 953 410 1075 440 q 1074 351 1028 401 q 1119 233 1119 300 q 1044 56 1119 125 q 847 -14 968 -14 q 743 -3 783 -14 l 743 171 q 826 163 782 163 q 897 184 869 163 q 924 245 924 206 q 894 306 924 285 q 813 326 864 326 l 767 326 l 767 493 l 799 493 q 876 575 876 493 q 814 653 876 626 q 642 681 751 681 q 276 494 349 681 q 421 540 338 540 q 610 462 533 540 q 686 263 686 383 q 599 64 686 142 q 380 -14 513 -14 q 158 84 247 -14 q 69 333 69 182 q 220 712 69 576 q 639 847 371 847 z "},"ഔ":{"ha":2292,"x_min":69,"x_max":2229,"o":"m 387 371 q 364 371 387 371 q 312 338 342 371 q 282 263 282 306 q 312 188 282 221 q 387 156 342 156 q 462 188 432 156 q 492 263 492 221 q 462 338 492 306 q 387 371 432 371 m 639 847 q 947 772 819 847 q 1075 568 1075 696 q 953 410 1075 440 q 1074 351 1028 401 q 1119 233 1119 300 q 1044 56 1119 125 q 847 -14 968 -14 q 743 -3 783 -14 l 743 171 q 826 163 782 163 q 897 184 869 163 q 924 245 924 206 q 894 306 924 285 q 813 326 864 326 l 767 326 l 767 493 l 799 493 q 876 575 876 493 q 814 653 876 626 q 642 681 751 681 q 276 494 349 681 q 421 540 338 540 q 610 462 533 540 q 686 263 686 383 q 599 64 686 142 q 380 -14 513 -14 q 158 84 247 -14 q 69 333 69 182 q 220 712 69 576 q 639 847 371 847 m 2229 469 q 2107 120 2229 254 q 1786 -14 1985 -14 q 1642 10 1706 -14 l 1642 192 q 1778 174 1708 174 q 1956 242 1889 174 q 2024 450 2024 310 q 1894 678 2024 678 q 1818 645 1846 678 q 1790 550 1790 613 l 1790 422 l 1588 422 l 1588 536 q 1478 678 1588 678 q 1397 636 1425 678 q 1368 531 1368 594 q 1401 385 1368 467 l 1200 385 q 1169 529 1169 446 q 1246 753 1169 660 q 1461 847 1322 847 q 1603 809 1543 847 q 1694 715 1663 771 q 1778 808 1718 769 q 1913 847 1838 847 q 2149 741 2069 847 q 2229 469 2229 635 z "},"ക":{"ha":1574,"x_min":69,"x_max":1504,"o":"m 688 199 q 709 171 688 199 q 799 143 731 143 q 910 199 867 143 q 961 365 953 254 l 638 367 q 688 199 646 256 m 954 524 q 799 690 924 690 q 644 524 674 690 l 954 524 m 1313 257 q 1153 365 1313 365 q 1042 91 1139 196 q 797 -14 946 -14 q 551 93 647 -14 q 362 -14 489 -14 q 152 62 235 -14 q 69 259 69 138 q 158 452 69 381 q 393 524 247 524 l 453 524 q 572 762 478 676 q 798 847 665 847 q 1025 761 931 847 q 1146 524 1119 675 q 1405 455 1306 524 q 1504 260 1504 386 q 1431 60 1504 133 q 1246 -12 1357 -12 q 1203 -11 1218 -12 l 1203 164 q 1313 257 1313 164 m 261 257 q 290 175 261 206 q 363 144 318 144 q 439 178 408 144 q 463 267 469 213 q 446 367 450 311 l 407 367 q 261 257 261 367 z "},"ഖ":{"ha":1500,"x_min":69,"x_max":1403,"o":"m 394 371 q 371 371 394 371 q 319 339 349 371 q 289 264 289 307 q 319 188 289 221 q 394 156 349 156 q 469 188 439 156 q 499 264 499 221 q 469 339 499 307 q 394 371 439 371 m 742 163 q 851 380 851 246 q 773 596 851 514 q 567 678 694 678 q 388 623 465 678 q 276 472 310 568 q 440 540 333 540 q 619 465 546 540 q 693 272 693 389 q 610 70 693 154 q 388 -14 526 -14 q 159 89 249 -14 q 69 373 69 192 q 215 701 69 554 q 573 847 360 847 q 919 720 786 847 q 1053 392 1053 593 q 985 169 1053 268 l 1200 169 l 1200 833 l 1403 833 l 1403 0 l 742 0 l 742 163 z "},"ഗ":{"ha":1286,"x_min":63,"x_max":1224,"o":"m 751 331 q 654 74 751 161 q 401 -14 557 -14 q 153 99 244 -14 q 63 417 63 213 q 106 633 63 533 q 169 733 131 690 q 275 805 208 776 q 426 833 342 833 l 426 646 q 309 594 350 646 q 268 415 268 543 q 309 221 268 286 q 415 156 350 156 q 547 324 547 156 l 547 496 q 640 752 547 657 q 888 847 733 847 q 1133 735 1043 847 q 1224 417 1224 622 q 1192 219 1224 297 q 1123 99 1161 142 q 1017 28 1085 57 q 860 0 949 0 l 860 188 q 977 239 936 188 q 1018 418 1018 290 q 981 612 1018 546 q 879 678 943 678 q 751 503 751 678 l 751 331 z "},"ഘ":{"ha":1849,"x_min":56,"x_max":1751,"o":"m 939 513 l 939 460 l 1233 460 l 1233 513 q 1194 635 1233 592 q 1086 678 1156 678 q 978 635 1017 678 q 939 513 939 592 m 127 364 q 91 401 127 364 q 56 556 56 438 q 142 753 56 674 q 353 833 229 833 q 562 758 476 833 q 647 572 647 683 q 603 456 647 497 q 704 460 636 460 l 736 460 l 736 513 q 831 757 736 667 q 1084 847 925 847 q 1336 757 1243 847 q 1429 513 1429 667 l 1429 297 l 939 297 l 939 168 l 1549 168 l 1549 833 l 1751 833 l 1751 0 l 736 0 l 736 297 l 421 297 l 421 440 q 479 567 479 481 q 444 651 479 617 q 353 686 408 686 q 264 651 299 686 q 229 563 229 615 q 251 481 229 511 q 307 447 272 451 l 307 288 q 127 364 199 290 z "},"ങ":{"ha":1675,"x_min":69,"x_max":1599,"o":"m 379 360 q 358 360 379 360 q 309 331 336 360 q 282 258 282 301 q 309 185 282 214 q 379 156 336 156 q 451 185 422 156 q 479 258 479 214 q 451 331 479 301 q 379 360 422 360 m 414 529 q 598 452 524 529 q 672 256 672 375 q 591 61 672 136 q 376 -14 510 -14 q 156 83 242 -14 q 69 338 69 179 q 185 685 69 532 q 331 803 240 758 q 538 847 422 847 q 753 785 654 847 q 899 631 851 722 q 1030 787 942 726 q 1239 847 1118 847 q 1455 785 1360 847 q 1550 614 1550 722 q 1512 490 1550 542 q 1408 428 1474 439 q 1545 369 1492 418 q 1599 242 1599 319 q 1247 -14 1599 -14 q 1115 -1 1178 -14 l 1115 171 q 1247 160 1178 160 q 1393 249 1393 160 q 1214 338 1393 338 l 1171 338 l 1171 507 l 1200 507 q 1308 532 1272 507 q 1344 597 1344 557 q 1315 658 1344 638 q 1235 678 1285 678 q 1068 602 1136 678 q 1000 378 1000 526 l 1000 0 l 797 0 l 797 378 q 722 603 797 528 q 543 678 647 678 q 373 622 439 678 q 281 469 307 567 q 414 529 329 529 z "},"ച":{"ha":1269,"x_min":0,"x_max":1172,"o":"m 156 425 q 242 628 156 544 q 469 713 329 713 q 701 625 608 713 q 793 414 793 538 q 756 265 793 328 q 664 169 718 201 l 969 169 l 969 833 l 1172 833 l 1172 0 l 0 0 l 0 169 l 282 169 q 517 235 447 169 q 588 403 588 300 q 556 505 588 467 q 467 543 524 543 q 383 509 411 543 q 354 419 354 475 q 385 303 354 364 l 179 303 q 156 425 156 361 z "},"ഛ":{"ha":1894,"x_min":0,"x_max":1832,"o":"m 1458 361 q 1542 156 1458 156 q 1626 375 1626 156 q 1543 633 1626 539 q 1458 361 1458 533 m 1352 847 q 1456 847 1352 847 q 1696 715 1560 847 q 1832 383 1832 582 q 1751 85 1832 185 q 1542 -14 1669 -14 q 1334 83 1415 -14 q 1253 361 1253 179 q 1292 536 1253 446 q 1392 675 1331 626 q 1351 676 1381 676 q 1155 597 1233 676 q 1076 382 1076 518 q 1186 163 1076 246 l 1186 0 l 0 0 l 0 169 l 282 169 q 517 235 447 169 q 588 403 588 300 q 556 505 588 467 q 467 543 524 543 q 383 509 411 543 q 354 419 354 475 q 385 303 354 364 l 179 303 q 156 425 156 361 q 242 628 156 544 q 469 713 329 713 q 701 625 608 713 q 793 414 793 538 q 756 265 793 328 q 664 169 718 201 l 943 169 q 875 392 875 268 q 1010 715 875 583 q 1352 847 1144 847 z "},"ജ":{"ha":1160,"x_min":63,"x_max":1090,"o":"m 810 243 q 791 243 810 243 q 748 217 772 243 q 724 155 724 190 q 749 92 724 119 q 810 65 774 65 q 873 92 847 65 q 899 155 899 119 q 873 217 899 190 q 810 243 847 243 m 257 147 q 286 94 257 115 q 367 72 315 72 q 628 210 517 72 l 342 210 q 257 147 257 210 m 346 -97 q 135 -28 208 -97 q 63 144 63 42 q 142 307 63 247 q 367 367 221 367 l 653 367 q 840 422 781 367 q 900 545 900 478 q 869 645 900 613 q 790 678 838 678 q 705 638 743 678 q 667 517 667 597 l 667 425 l 497 425 l 497 496 q 452 644 497 592 q 333 697 407 697 q 266 674 293 697 q 239 617 239 650 q 262 560 239 585 q 308 536 285 536 q 344 539 331 536 l 344 396 q 311 394 336 394 q 135 456 206 394 q 65 617 65 517 q 139 783 65 718 q 311 847 213 847 q 575 710 496 847 q 673 810 613 772 q 806 847 733 847 q 1008 765 926 847 q 1090 557 1090 683 q 1059 427 1090 488 q 985 331 1028 367 q 1061 258 1033 304 q 1089 156 1089 211 q 1009 -23 1089 49 q 813 -94 929 -94 q 688 -66 746 -94 q 597 8 629 -37 q 494 -64 561 -31 q 346 -97 428 -97 z "},"ഝ":{"ha":2358,"x_min":63,"x_max":2296,"o":"m 678 375 q 762 156 678 156 q 846 361 846 156 q 761 633 846 533 q 678 375 678 539 m 1483 -15 q 1267 74 1344 -15 q 1190 317 1190 164 l 1190 446 q 1140 620 1190 551 q 985 689 1089 689 q 931 685 960 689 q 1053 378 1053 571 q 972 85 1053 185 q 763 -14 890 -14 q 553 83 636 -14 q 471 372 471 179 q 592 685 471 565 q 514 692 553 692 q 338 609 407 692 q 268 411 268 526 q 313 235 268 296 q 438 174 357 174 l 438 -14 q 165 101 267 -14 q 63 405 63 217 q 187 720 63 593 q 501 847 311 847 q 743 789 635 847 q 968 847 844 847 q 1270 747 1147 847 q 1393 446 1393 646 l 1393 317 q 1497 156 1393 156 q 1601 317 1601 156 l 1601 833 l 1804 833 l 1804 317 q 1931 156 1804 156 q 2043 222 1997 156 q 2089 415 2089 288 q 2048 594 2089 543 q 1931 646 2007 646 l 1931 833 q 2199 720 2103 833 q 2296 413 2296 607 q 2190 102 2296 219 q 1940 -15 2085 -15 q 1800 19 1863 -15 q 1706 114 1738 53 q 1619 21 1678 57 q 1483 -15 1560 -15 z "},"ഞ":{"ha":2197,"x_min":69,"x_max":2135,"o":"m 1357 375 q 1441 156 1357 156 q 1525 361 1525 156 q 1440 633 1525 533 q 1357 375 1357 539 m 379 360 q 358 360 379 360 q 309 331 336 360 q 282 258 282 301 q 309 185 282 214 q 379 156 336 156 q 451 185 422 156 q 479 258 479 214 q 451 331 479 301 q 379 360 422 360 m 1285 682 l 1236 683 q 1064 612 1128 683 q 1000 433 1000 540 l 1000 0 l 797 0 l 797 419 q 721 609 797 540 q 541 678 644 678 q 369 622 438 678 q 274 469 300 565 q 423 529 322 529 q 598 452 524 529 q 672 256 672 375 q 591 61 672 136 q 376 -14 510 -14 q 156 83 242 -14 q 69 338 69 179 q 185 685 69 532 q 331 803 240 758 q 538 847 422 847 q 751 787 653 847 q 897 640 850 726 q 1028 785 933 724 q 1244 847 1124 847 q 1465 797 1365 847 q 1672 847 1558 847 q 2001 721 1868 847 q 2135 403 2135 594 q 2038 99 2135 213 q 1769 -14 1942 -14 l 1769 174 q 1929 403 1929 174 q 1862 605 1929 528 q 1686 682 1794 682 q 1613 676 1646 682 q 1696 541 1663 621 q 1729 375 1729 461 q 1648 85 1729 185 q 1439 -14 1567 -14 q 1229 80 1311 -14 q 1147 361 1147 174 q 1187 545 1147 458 q 1285 682 1226 632 z "},"ട":{"ha":786,"x_min":56,"x_max":731,"o":"m 317 156 q 525 244 525 156 q 481 301 525 286 q 394 322 456 311 q 114 436 192 363 q 56 600 56 492 q 154 778 56 708 q 397 847 253 847 q 674 800 540 847 l 674 625 q 408 678 510 678 q 261 603 261 678 q 277 565 261 576 q 305 547 293 553 q 337 534 317 540 q 372 524 357 528 q 471 497 418 511 q 564 467 524 483 q 647 422 604 450 q 731 242 731 367 q 622 52 731 118 q 317 -14 514 -14 q 72 24 201 -14 l 72 200 q 317 156 239 156 z "},"ഠ":{"ha":892,"x_min":49,"x_max":843,"o":"m 443 678 q 397 678 443 678 q 303 603 351 678 q 254 413 254 528 q 306 226 254 299 q 449 154 357 154 q 590 225 540 154 q 639 414 639 296 q 587 605 639 532 q 443 678 535 678 m 735 726 q 789 666 735 726 q 843 415 843 606 q 735 105 843 225 q 447 -15 626 -15 q 158 105 267 -15 q 49 415 49 225 q 158 726 49 606 q 447 847 267 847 q 735 726 626 847 z "},"ഡ":{"ha":1760,"x_min":63,"x_max":1697,"o":"m 860 -14 q 635 81 724 -14 q 547 338 547 176 l 547 510 q 415 678 547 678 q 309 613 350 678 q 268 419 268 547 q 309 239 268 290 q 426 188 350 188 l 426 0 q 275 28 342 0 q 169 100 208 57 q 106 200 131 143 q 63 417 63 300 q 153 734 63 621 q 401 847 244 847 q 654 760 557 847 q 751 503 751 672 l 751 331 q 873 156 751 156 q 994 344 994 156 l 994 833 l 1197 833 l 1197 344 q 1237 202 1197 249 q 1344 156 1276 156 q 1451 221 1411 156 q 1492 415 1492 286 q 1451 594 1492 543 q 1333 646 1410 646 l 1333 833 q 1485 805 1418 833 q 1590 733 1551 776 q 1654 633 1629 690 q 1697 417 1697 533 q 1603 100 1697 214 q 1346 -14 1508 -14 q 1191 26 1260 -14 q 1094 129 1122 67 q 860 -14 1021 -14 z "},"ഢ":{"ha":1946,"x_min":63,"x_max":1876,"o":"m 1567 678 q 1545 678 1567 678 q 1495 649 1524 678 q 1467 576 1467 619 q 1495 503 1467 532 q 1567 474 1524 474 q 1637 503 1610 474 q 1664 576 1664 532 q 1637 649 1664 619 q 1567 678 1610 678 m 832 -14 q 625 76 703 -14 q 547 329 547 167 l 547 510 q 415 678 547 678 q 309 613 350 678 q 268 419 268 547 q 309 239 268 290 q 426 188 350 188 l 426 0 q 275 28 342 0 q 169 100 208 57 q 106 200 131 143 q 63 417 63 300 q 153 734 63 621 q 401 847 244 847 q 654 760 557 847 q 751 503 751 672 l 751 331 q 773 200 751 244 q 847 156 794 156 q 923 209 900 156 q 946 400 946 263 l 946 833 l 1149 833 l 1149 414 q 1223 220 1149 285 q 1402 156 1297 156 q 1573 211 1507 156 q 1665 364 1639 267 q 1532 304 1617 304 q 1348 381 1422 304 q 1274 578 1274 458 q 1355 772 1274 697 q 1570 847 1436 847 q 1790 751 1704 847 q 1876 496 1876 654 q 1761 149 1876 301 q 1615 31 1706 75 q 1411 -14 1524 -14 q 1069 167 1168 -14 q 984 33 1046 81 q 832 -14 922 -14 z "},"ണ":{"ha":2049,"x_min":69,"x_max":1986,"o":"m 394 371 q 371 371 394 371 q 319 339 349 371 q 289 264 289 307 q 319 188 289 221 q 394 156 349 156 q 469 188 439 156 q 499 264 499 221 q 469 339 499 307 q 394 371 439 371 m 431 540 q 623 465 553 540 q 693 272 693 390 q 610 70 693 154 q 388 -14 526 -14 q 159 89 249 -14 q 69 375 69 192 q 200 703 69 558 q 535 847 331 847 q 747 807 647 847 q 908 690 846 767 q 1002 803 938 758 q 1151 847 1067 847 q 1297 801 1235 847 q 1385 690 1360 756 q 1489 808 1424 768 q 1635 847 1554 847 q 1892 733 1797 847 q 1986 417 1986 619 q 1943 200 1986 300 q 1879 100 1918 143 q 1774 28 1840 57 q 1622 0 1707 0 l 1622 188 q 1740 239 1699 188 q 1781 419 1781 290 q 1738 613 1781 547 q 1631 678 1696 678 q 1526 631 1565 678 q 1486 489 1486 585 l 1486 0 l 1283 0 l 1283 489 q 1247 631 1283 583 q 1151 678 1211 678 q 1057 631 1092 678 q 1022 489 1022 585 l 1022 0 l 819 0 l 819 419 q 737 613 819 547 q 549 678 654 678 q 373 622 443 678 q 276 472 303 567 q 343 519 299 499 q 431 540 388 540 z "},"ത":{"ha":1492,"x_min":63,"x_max":1429,"o":"m 665 375 q 749 156 665 156 q 833 361 833 156 q 749 633 833 533 q 665 375 665 539 m 428 174 l 428 -14 q 159 99 256 -14 q 63 403 63 213 q 196 721 63 594 q 525 847 329 847 q 774 797 674 847 q 981 847 869 847 q 1302 722 1175 847 q 1429 404 1429 596 q 1333 99 1429 213 q 1064 -14 1236 -14 l 1064 174 q 1222 403 1222 174 q 1156 605 1222 528 q 981 682 1089 682 q 921 676 953 682 q 1005 547 972 628 q 1038 375 1038 465 q 956 85 1038 185 q 747 -14 875 -14 q 538 80 619 -14 q 456 361 456 174 q 492 543 456 458 q 583 676 529 628 q 511 682 549 682 q 336 605 403 682 q 269 403 269 528 q 428 174 269 174 z "},"ഥ":{"ha":1293,"x_min":97,"x_max":1196,"o":"m 300 168 l 531 168 l 531 483 q 617 753 531 658 q 862 847 703 847 q 1108 753 1021 847 q 1196 483 1196 658 l 1196 0 l 97 0 l 97 833 l 300 833 l 300 168 m 993 483 q 960 631 993 583 q 860 678 928 678 q 759 631 792 678 q 726 483 726 583 l 726 168 l 993 168 l 993 483 z "},"ദ":{"ha":1057,"x_min":76,"x_max":994,"o":"m 994 247 q 901 55 994 124 q 643 -14 808 -14 q 511 -1 574 -14 l 511 171 q 635 156 568 156 q 789 247 789 156 q 610 338 789 338 l 553 338 l 553 507 l 596 507 q 740 592 740 507 q 569 678 740 678 q 362 590 442 678 q 282 387 282 503 q 314 185 282 271 q 414 0 346 100 l 185 0 q 76 375 76 176 q 200 696 76 554 q 355 806 258 764 q 569 847 451 847 q 849 776 753 847 q 946 593 946 704 q 804 428 946 453 q 942 369 890 417 q 994 247 994 321 z "},"ധ":{"ha":1332,"x_min":63,"x_max":1269,"o":"m 667 115 q 428 -14 599 -14 q 160 101 257 -14 q 63 417 63 215 q 106 633 63 533 q 169 733 131 690 q 275 805 208 776 q 426 833 342 833 l 426 646 q 309 594 350 646 q 268 415 268 543 q 313 222 268 288 q 424 156 357 156 q 567 344 567 156 l 567 833 l 769 833 l 769 344 q 911 156 769 156 q 1021 221 978 156 q 1064 415 1064 286 q 1023 594 1064 543 q 906 646 982 646 l 906 833 q 1057 805 990 833 q 1163 733 1124 776 q 1226 633 1201 690 q 1269 417 1269 533 q 1172 101 1269 215 q 911 -14 1075 -14 q 763 21 832 -14 q 667 115 694 56 z "},"ന":{"ha":1332,"x_min":63,"x_max":1269,"o":"m 63 417 q 160 733 63 618 q 428 847 257 847 q 667 718 599 847 q 763 813 694 778 q 911 847 832 847 q 1172 733 1075 847 q 1269 417 1269 618 q 1226 200 1269 300 q 1163 100 1201 143 q 1057 28 1124 57 q 906 0 990 0 l 906 188 q 1023 239 982 188 q 1064 419 1064 290 q 1021 613 1064 547 q 911 678 978 678 q 769 489 769 678 l 769 0 l 567 0 l 567 489 q 424 678 567 678 q 313 612 357 678 q 268 418 268 546 q 309 239 268 290 q 426 188 350 188 l 426 0 q 275 28 342 0 q 169 100 208 57 q 106 200 131 143 q 63 417 63 300 z "},"ഩ":{"ha":1571,"x_min":69,"x_max":1508,"o":"m 306 343 q 291 326 306 343 q 275 265 275 310 q 306 188 275 221 q 383 154 338 154 q 460 188 429 154 q 492 265 492 221 q 460 343 492 310 q 383 376 429 376 q 306 343 338 376 m 422 543 q 610 463 535 543 q 685 262 685 383 q 599 63 685 140 q 381 -14 514 -14 q 159 98 249 -14 q 69 383 69 210 q 203 715 69 583 q 532 846 336 846 q 733 801 636 846 q 892 672 831 756 q 997 789 924 744 q 1157 833 1069 833 q 1414 719 1319 833 q 1508 403 1508 606 q 1465 186 1508 286 q 1401 86 1440 129 q 1296 15 1363 43 q 1144 -14 1229 -14 l 1144 174 q 1262 225 1221 174 q 1303 405 1303 276 q 1263 599 1303 533 q 1155 664 1222 664 q 1048 617 1088 664 q 1008 475 1008 571 l 1008 0 l 811 0 l 811 371 q 731 595 811 507 q 531 683 651 683 q 354 622 435 683 q 263 471 274 561 q 330 522 286 501 q 422 543 374 543 z "},"പ":{"ha":1292,"x_min":63,"x_max":1194,"o":"m 386 -14 q 154 87 246 -10 q 63 334 63 183 q 175 586 63 485 q 442 688 288 688 q 710 591 597 688 q 822 349 822 494 q 802 245 822 296 q 751 164 782 194 q 867 169 789 169 l 999 169 l 999 833 l 1194 833 l 1194 0 l 531 0 l 531 163 q 617 342 617 224 q 566 470 617 422 q 442 518 515 518 q 319 468 369 518 q 268 343 268 418 q 299 224 268 268 q 386 174 331 179 l 386 -14 z "},"ഫ":{"ha":1735,"x_min":63,"x_max":1638,"o":"m 1174 485 l 1174 168 l 1435 168 l 1435 485 q 1403 631 1435 585 q 1302 678 1371 678 q 1203 632 1233 678 q 1174 485 1174 586 m 386 -14 q 154 87 246 -10 q 63 334 63 183 q 175 586 63 485 q 442 688 288 688 q 710 591 597 688 q 822 349 822 494 q 802 245 822 296 q 751 164 782 194 q 867 169 789 169 l 972 169 l 972 485 q 1058 753 972 660 q 1303 847 1143 847 q 1550 753 1463 847 q 1638 485 1638 660 l 1638 0 l 531 0 l 531 163 q 617 342 617 224 q 566 470 617 422 q 442 518 515 518 q 319 468 369 518 q 268 343 268 418 q 299 224 268 268 q 386 174 331 179 l 386 -14 z "},"ബ":{"ha":2010,"x_min":69,"x_max":1913,"o":"m 306 343 q 291 326 306 343 q 275 265 275 310 q 306 188 275 221 q 383 154 338 154 q 460 188 429 154 q 492 265 492 221 q 460 343 492 310 q 383 376 429 376 q 306 343 338 376 m 1303 414 q 1263 600 1303 536 q 1155 664 1222 664 q 1048 617 1088 664 q 1008 475 1008 571 l 1008 0 l 811 0 l 811 371 q 731 595 811 507 q 531 683 651 683 q 354 622 435 683 q 263 471 274 561 q 330 522 286 501 q 422 543 374 543 q 610 463 535 543 q 685 262 685 383 q 599 63 685 140 q 381 -14 514 -14 q 159 98 249 -14 q 69 383 69 210 q 203 715 69 583 q 532 846 336 846 q 733 801 636 846 q 892 672 831 756 q 997 789 924 744 q 1157 833 1069 833 q 1414 722 1319 833 q 1508 417 1508 610 q 1486 282 1508 354 q 1436 169 1464 210 l 1710 169 l 1710 833 l 1913 833 l 1913 0 l 1193 0 l 1193 163 q 1303 414 1303 226 z "},"ഭ":{"ha":986,"x_min":97,"x_max":924,"o":"m 685 414 l 603 417 q 564 390 564 417 q 590 365 564 372 q 688 357 615 357 q 924 181 924 357 q 606 -21 924 -21 q 388 18 478 -21 l 388 188 q 594 140 503 140 q 713 147 686 140 q 740 172 740 154 q 714 200 740 196 q 643 203 690 203 q 381 394 381 203 q 439 526 381 478 q 581 575 497 575 l 653 572 q 713 618 713 572 q 665 661 713 644 q 522 678 618 678 q 363 619 425 678 q 300 449 300 561 l 300 0 l 97 0 l 97 449 q 217 741 97 635 q 531 847 336 847 q 794 781 688 847 q 901 617 901 714 q 843 467 901 521 q 685 414 785 414 z "},"മ":{"ha":1106,"x_min":97,"x_max":1008,"o":"m 97 0 l 97 438 q 223 740 97 632 q 557 847 349 847 q 887 740 765 847 q 1008 438 1008 633 l 1008 0 l 97 0 m 821 438 q 685 668 821 608 q 719 553 725 607 q 715 497 717 521 q 694 438 713 474 q 666 382 675 401 q 627 322 657 363 q 586 267 597 282 q 539 209 575 253 q 494 154 503 165 l 821 154 l 821 438 m 285 438 l 285 154 q 464 400 425 336 q 501 689 567 574 q 343 606 401 675 q 285 438 285 538 z "},"യ":{"ha":1583,"x_min":69,"x_max":1521,"o":"m 582 167 q 631 169 600 167 q 504 408 547 268 q 481 510 493 449 q 461 600 468 571 q 433 653 454 629 q 371 678 413 678 q 302 637 329 678 q 275 525 275 596 q 365 268 275 369 q 582 167 456 167 m 799 244 q 922 512 922 346 q 794 678 922 678 q 703 639 738 678 q 668 540 668 600 q 684 487 674 522 q 699 440 694 451 q 799 244 736 310 m 1110 517 q 1071 338 1110 432 q 963 165 1032 243 q 1040 160 994 160 q 1238 245 1160 160 q 1315 444 1315 331 q 1270 609 1315 558 q 1157 660 1225 660 l 1157 847 q 1422 740 1324 847 q 1521 447 1521 632 q 1387 124 1521 261 q 1035 -14 1253 -14 q 799 39 911 -14 q 572 -14 693 -14 q 218 135 367 -14 q 69 513 69 285 q 151 754 69 661 q 364 847 232 847 q 492 819 440 847 q 585 731 544 792 q 674 815 615 783 q 794 847 732 847 q 1024 760 938 847 q 1110 517 1110 674 z "},"ര":{"ha":1097,"x_min":69,"x_max":1028,"o":"m 656 375 q 740 156 656 156 q 824 361 824 156 q 739 633 824 533 q 656 375 656 539 m 1028 375 q 947 85 1028 185 q 738 -14 865 -14 q 528 80 610 -14 q 446 361 446 174 q 485 538 446 453 q 588 675 524 624 q 549 678 557 678 q 349 591 422 678 q 275 388 275 504 q 307 185 275 271 q 407 0 339 100 l 178 0 q 69 375 69 176 q 122 599 69 493 q 287 776 175 704 q 537 847 399 847 q 781 797 675 847 q 958 638 888 747 q 1028 375 1028 528 z "},"റ":{"ha":908,"x_min":56,"x_max":853,"o":"m 379 0 q 139 120 222 0 q 56 426 56 240 q 167 730 56 613 q 456 847 278 847 q 744 731 635 847 q 853 428 853 615 q 769 121 853 242 q 528 0 685 0 l 528 188 q 615 247 582 188 q 647 426 647 307 q 595 611 647 544 q 456 678 543 678 q 315 609 368 678 q 261 423 261 540 q 293 247 261 306 q 379 188 325 188 l 379 0 z "},"ല":{"ha":1265,"x_min":97,"x_max":1168,"o":"m 301 542 l 301 488 l 568 488 l 568 540 q 529 643 568 608 q 434 678 490 678 q 340 644 378 678 q 301 542 301 610 m 97 486 q 187 754 97 661 q 433 847 276 847 q 676 755 589 847 q 763 486 763 663 l 763 319 l 300 319 l 300 169 l 965 169 l 965 833 l 1168 833 l 1168 0 l 97 0 l 97 486 z "},"ള":{"ha":1107,"x_min":69,"x_max":1051,"o":"m 263 483 q 251 471 263 483 q 240 426 240 458 q 263 370 240 394 q 319 346 285 346 q 377 370 354 346 q 400 426 400 394 q 377 483 400 458 q 319 508 354 508 q 263 483 285 508 m 781 -18 l 331 -17 q 288 -31 304 -17 q 271 -71 271 -44 q 292 -112 271 -97 q 347 -128 314 -128 l 1051 -128 l 1051 -297 l 308 -297 q 133 -228 197 -297 q 69 -60 69 -160 q 138 99 69 39 q 325 158 207 158 l 747 158 q 828 181 800 158 q 856 244 856 204 q 725 326 856 326 l 679 326 l 679 493 l 725 493 q 808 575 808 493 q 745 656 808 626 q 582 685 682 685 q 338 614 419 685 q 381 618 361 618 q 517 560 463 618 q 571 409 571 501 q 500 254 571 317 q 320 192 429 192 q 140 264 211 192 q 69 461 69 336 q 209 736 69 625 q 579 847 349 847 q 883 772 758 847 q 1007 575 1007 696 q 973 463 1007 511 q 885 410 939 415 q 1009 347 967 396 q 1051 229 1051 297 q 979 50 1051 118 q 781 -18 907 -18 z "},"ഴ":{"ha":1050,"x_min":69,"x_max":981,"o":"m 565 228 q 139 397 274 228 q 69 595 69 485 q 111 833 69 706 l 314 833 q 272 619 272 708 q 325 470 272 529 q 468 390 378 411 q 397 584 397 476 q 477 769 397 692 q 684 847 557 847 q 896 774 811 847 q 981 576 981 700 q 919 373 981 453 q 754 257 858 293 l 754 247 q 662 49 754 113 q 417 -14 569 -14 q 232 14 315 -14 l 232 204 q 417 164 333 165 q 582 228 561 161 l 565 228 m 689 678 q 667 678 689 678 q 621 651 646 678 q 596 585 596 625 q 609 509 596 544 q 636 454 622 474 q 675 404 650 435 q 755 477 728 431 q 782 573 782 524 q 757 650 782 622 q 689 678 732 678 z "},"വ":{"ha":1400,"x_min":63,"x_max":1303,"o":"m 417 0 q 272 28 336 0 q 169 99 207 56 q 106 199 131 142 q 63 414 63 297 q 180 727 63 607 q 481 847 297 847 q 781 728 664 847 q 899 417 899 608 q 826 169 899 272 l 1100 169 l 1100 833 l 1303 833 l 1303 0 l 583 0 l 583 163 q 693 414 693 232 q 634 608 693 538 q 481 678 575 678 q 327 608 386 678 q 268 419 268 538 q 314 240 268 300 q 417 181 360 181 l 417 0 z "},"ശ":{"ha":1453,"x_min":63,"x_max":1383,"o":"m 1008 375 q 1092 156 1008 156 q 1176 361 1176 156 q 1092 633 1176 533 q 1008 375 1008 539 m 725 338 q 642 79 725 172 q 401 -14 560 -14 q 153 99 243 -14 q 63 417 63 211 q 94 614 63 536 q 163 734 125 692 q 269 805 201 776 q 426 833 338 833 l 426 646 q 309 594 350 646 q 268 415 268 543 q 306 222 268 288 q 406 156 343 156 q 494 198 468 156 q 521 331 521 240 l 521 444 q 564 638 521 547 q 699 788 607 728 q 915 847 792 847 q 1250 722 1117 847 q 1383 375 1383 596 q 1302 85 1383 185 q 1093 -14 1221 -14 q 883 80 965 -14 q 801 369 801 174 q 939 675 801 564 l 924 675 q 783 617 840 675 q 725 444 725 560 l 725 338 z "},"ഷ":{"ha":1982,"x_min":63,"x_max":1885,"o":"m 1426 169 l 1683 169 l 1683 325 q 1694 489 1683 424 q 1581 375 1656 422 q 1426 308 1507 328 l 1426 169 m 1142 678 q 1078 651 1101 678 q 1056 579 1056 625 q 1096 499 1056 533 q 1225 460 1136 465 l 1225 567 q 1142 678 1225 678 m 376 -14 q 153 85 244 -11 q 63 333 63 182 q 174 586 63 485 q 436 688 286 688 q 697 591 586 688 q 808 349 808 494 q 788 245 808 296 q 738 164 768 194 q 825 169 757 169 l 1225 169 l 1225 290 l 1222 290 q 953 372 1051 290 q 854 572 854 453 q 938 769 854 692 q 1147 847 1021 847 q 1349 778 1272 847 q 1426 590 1426 708 l 1426 478 q 1580 563 1504 489 q 1685 738 1656 638 l 1885 738 l 1885 0 l 524 0 l 524 163 q 603 342 603 222 q 555 470 603 422 q 437 518 507 518 q 317 468 367 518 q 268 344 268 418 q 300 223 268 269 q 376 174 332 176 l 376 -14 z "},"സ":{"ha":1731,"x_min":63,"x_max":1668,"o":"m 1668 417 q 1575 99 1668 213 q 1327 -14 1482 -14 q 1082 81 1172 -14 q 992 338 992 175 l 992 458 q 872 678 992 678 q 756 489 756 678 l 756 0 l 553 0 l 553 489 q 419 678 553 678 q 311 613 354 678 q 268 420 268 547 q 313 240 268 293 q 426 188 357 188 l 426 0 q 275 28 342 0 q 169 100 208 57 q 106 200 131 143 q 63 417 63 300 q 160 733 63 618 q 420 847 257 847 q 653 718 583 847 q 744 813 686 778 q 875 847 803 847 q 1114 741 1032 847 q 1196 457 1196 635 l 1196 331 q 1324 156 1196 156 q 1425 222 1388 156 q 1463 414 1463 288 q 1418 593 1463 540 q 1304 646 1374 646 l 1304 833 q 1461 805 1393 833 q 1567 734 1529 776 q 1629 633 1606 692 q 1668 417 1668 536 z "},"ഹ":{"ha":1760,"x_min":63,"x_max":1697,"o":"m 376 -14 q 153 85 244 -11 q 63 333 63 182 q 174 586 63 485 q 436 688 286 688 q 697 591 586 688 q 808 349 808 494 q 788 245 808 296 q 738 164 768 194 q 825 169 757 169 l 907 169 q 996 164 968 169 q 901 419 901 261 q 1014 729 901 611 q 1300 847 1126 847 q 1585 729 1474 847 q 1697 419 1697 611 q 1666 209 1697 303 q 1558 51 1635 115 q 1365 -14 1481 -14 l 1365 174 q 1458 251 1425 175 q 1492 414 1492 328 q 1440 608 1492 539 q 1300 678 1389 678 q 1159 608 1211 678 q 1107 414 1107 539 q 1138 264 1107 329 q 1217 163 1168 199 l 1217 0 l 524 0 l 524 163 q 603 342 603 222 q 555 470 603 422 q 437 518 507 518 q 317 468 367 518 q 268 344 268 418 q 300 223 268 269 q 376 174 332 176 l 376 -14 z "},"ഺ":{"ha":872,"x_min":97,"x_max":900,"o":"m 97 0 l 97 833 l 300 833 l 300 169 l 900 169 l 900 0 l 707 0 l 707 -299 l 503 -299 l 503 0 l 97 0 z "},"ഽ":{"ha":676,"x_min":139,"x_max":639,"o":"m 490 -117 q 403 -346 490 -271 q 179 -421 315 -421 q 139 -419 151 -421 l 139 -244 q 189 -246 151 -246 q 257 -213 226 -246 q 288 -117 288 -181 l 288 864 q 375 1093 288 1018 q 599 1168 463 1168 q 639 1167 626 1168 l 639 992 q 589 993 626 993 q 521 960 551 993 q 490 864 490 928 l 490 -117 z "},"ാ":{"ha":685,"x_min":42,"x_max":629,"o":"m 518 726 q 574 665 518 726 q 629 421 629 604 q 518 116 629 238 q 233 -6 407 -6 q 42 29 139 -6 l 42 199 q 219 164 154 164 q 367 234 310 164 q 424 421 424 304 q 367 608 424 538 q 219 678 310 678 q 42 643 154 678 l 42 813 q 233 847 139 847 q 518 726 407 847 z "},"ി":{"ha":397,"x_min":-301,"x_max":300,"o":"m 300 0 l 97 0 l 97 1015 q 70 1094 97 1067 q -7 1122 43 1122 q -104 1015 -104 1122 l -104 981 l -301 981 l -301 1022 q -220 1217 -301 1149 q -6 1286 -139 1286 q 214 1217 128 1286 q 300 1024 300 1149 l 300 0 z "},"ീ":{"ha":397,"x_min":-410,"x_max":300,"o":"m -182 1158 q -197 1158 -182 1158 q -230 1138 -211 1158 q -249 1091 -249 1118 q -229 1044 -249 1064 q -182 1024 -210 1024 q -134 1044 -154 1024 q -114 1091 -114 1064 q -133 1138 -114 1118 q -182 1158 -153 1158 m 300 0 l 97 0 l 97 993 q 67 1119 97 1076 q -11 1160 36 1161 q 42 1058 42 1135 q -19 928 42 982 q -180 874 -79 874 q -345 935 -281 874 q -410 1079 -410 997 q -326 1256 -410 1182 q -78 1329 -243 1329 q 193 1237 86 1329 q 300 993 300 1144 l 300 0 z "},"ു":{"ha":525,"x_min":-62,"x_max":463,"o":"m 199 -171 q 179 -171 199 -171 q 137 -201 158 -171 q 115 -280 115 -231 q 138 -358 115 -329 q 200 -386 160 -386 q 285 -279 285 -386 q 263 -199 285 -228 q 199 -171 240 -171 m 463 -279 q 391 -481 463 -404 q 200 -557 319 -557 q 9 -481 81 -557 q -62 -292 -62 -404 q -15 -108 -62 -179 q 117 -12 33 -37 l 164 161 q 233 539 233 411 q 196 641 233 604 q 90 678 158 678 q 32 671 67 678 l 32 843 q 90 847 64 847 q 342 772 247 847 q 436 539 436 697 q 367 161 436 432 l 318 -24 q 424 -122 386 -56 q 463 -279 463 -189 z "},"ൂ":{"ha":539,"x_min":-42,"x_max":483,"o":"m 110 -346 q 223 -432 136 -432 q 333 -346 310 -432 l 110 -346 m 338 -232 q 222 -125 318 -125 q 104 -232 125 -125 l 338 -232 m 483 -279 q 412 -481 483 -404 q 221 -557 340 -557 q 30 -481 101 -557 q -42 -292 -42 -404 q 6 -108 -42 -179 q 138 -12 54 -37 l 185 161 q 254 539 254 411 q 217 641 254 604 q 111 678 179 678 q 53 671 88 678 l 53 843 q 111 847 83 847 q 363 772 268 847 q 457 539 457 697 q 388 161 457 432 l 339 -24 q 445 -122 407 -56 q 483 -279 483 -189 z "},"ൃ":{"ha":547,"x_min":-97,"x_max":547,"o":"m 113 -247 q 99 -247 113 -247 q 67 -266 85 -247 q 50 -312 50 -285 q 67 -357 50 -339 q 113 -375 85 -375 q 158 -357 140 -375 q 175 -312 175 -339 q 158 -267 175 -286 q 113 -247 140 -247 m 547 -193 q 447 -451 547 -350 q 183 -553 347 -553 q -16 -481 65 -553 q -97 -317 -97 -410 q -40 -165 -97 -225 q 110 -106 17 -106 q 254 -159 204 -106 q 304 -287 304 -212 q 250 -408 304 -362 q 323 -331 296 -389 q 350 -190 350 -274 q 314 -11 350 -106 q 235 156 278 83 q 157 342 193 229 q 121 581 121 456 q 163 833 121 706 l 361 833 q 322 590 322 707 q 358 369 322 472 q 435 196 393 267 q 512 20 476 125 q 547 -193 547 -85 z "},"ൄ":{"ha":547,"x_min":-232,"x_max":547,"o":"m -69 -360 q -75 -326 -75 -346 q -56 -292 -75 -307 q -7 -276 -37 -276 q 44 -293 24 -276 q 96 -276 65 -276 q 145 -292 126 -276 q 164 -326 164 -307 q 158 -360 164 -346 l 103 -360 q 110 -339 110 -349 q 91 -321 110 -321 q 72 -343 72 -321 l 72 -360 l 17 -360 l 17 -343 q -2 -321 17 -321 q -21 -339 -21 -321 q -14 -360 -21 -349 l -69 -360 m 44 -208 q 9 -208 44 -208 q -72 -239 -26 -208 q -118 -327 -118 -269 q -73 -415 -118 -385 q 44 -444 -28 -444 q 161 -415 115 -444 q 207 -328 207 -386 q 160 -240 207 -271 q 44 -208 114 -208 m 547 -193 q 422 -451 547 -349 q 100 -553 296 -553 q -144 -492 -57 -553 q -232 -334 -232 -431 q -152 -174 -232 -237 q 46 -110 -72 -110 q 235 -169 164 -110 q 307 -310 307 -229 q 294 -381 307 -343 q 350 -193 350 -314 q 314 -11 350 -106 q 235 156 278 83 q 157 342 193 229 q 121 581 121 456 q 163 833 121 706 l 361 833 q 322 590 322 707 q 358 369 322 472 q 435 196 393 267 q 512 20 476 125 q 547 -193 547 -85 z "},"െ":{"ha":1094,"x_min":69,"x_max":1025,"o":"m 557 847 q 888 714 750 847 q 1025 392 1025 581 q 917 0 1025 176 l 688 0 q 819 392 819 192 q 745 603 819 528 q 563 678 671 678 q 379 622 456 678 q 276 472 303 567 q 343 519 299 499 q 431 540 388 540 q 623 465 553 540 q 693 272 693 390 q 610 70 693 154 q 388 -14 526 -14 q 160 94 250 -14 q 69 365 69 201 q 128 597 69 488 q 300 776 186 706 q 557 847 414 847 m 394 371 q 371 371 394 371 q 319 339 349 371 q 289 264 289 307 q 319 188 289 221 q 394 156 349 156 q 469 188 439 156 q 499 264 499 221 q 469 339 499 307 q 394 371 439 371 z "},"േ":{"ha":922,"x_min":69,"x_max":860,"o":"m 645 700 q 630 700 645 700 q 597 680 615 700 q 578 630 578 660 q 597 580 578 600 q 645 560 615 560 q 694 580 675 560 q 714 630 714 600 q 694 680 714 660 q 645 700 675 700 m 645 274 q 630 274 645 274 q 597 253 615 274 q 578 203 578 233 q 597 153 578 174 q 645 133 615 133 q 694 153 675 133 q 714 203 714 174 q 694 253 714 233 q 645 274 675 274 m 650 406 q 698 406 650 406 q 803 352 746 406 q 860 208 860 299 q 788 52 860 118 q 556 -14 715 -14 q 201 108 332 -14 q 69 417 69 231 q 201 725 69 603 q 556 847 332 847 q 788 781 715 847 q 860 625 860 715 q 803 481 860 535 q 650 428 746 428 q 497 476 554 428 q 440 584 440 525 q 472 686 440 643 q 328 596 389 667 q 268 415 268 525 q 329 232 268 306 q 469 150 390 158 q 440 249 440 189 q 497 357 440 308 q 650 406 554 406 z "},"ൈ":{"ha":2147,"x_min":69,"x_max":2078,"o":"m 1610 847 q 1940 714 1803 847 q 2078 392 2078 581 q 1969 0 2078 176 l 1740 0 q 1872 392 1872 192 q 1798 603 1872 528 q 1616 678 1724 678 q 1432 622 1508 678 q 1329 472 1356 567 q 1396 519 1351 499 q 1483 540 1440 540 q 1676 465 1606 540 q 1746 272 1746 390 q 1663 70 1746 154 q 1441 -14 1579 -14 q 1213 94 1303 -14 q 1122 365 1122 201 q 1181 597 1122 488 q 1353 776 1239 706 q 1610 847 1467 847 m 1447 371 q 1424 371 1447 371 q 1372 339 1401 371 q 1342 264 1342 307 q 1372 188 1342 221 q 1447 156 1401 156 q 1522 188 1492 156 q 1551 264 1551 221 q 1522 339 1551 307 q 1447 371 1492 371 m 557 847 q 888 714 750 847 q 1025 392 1025 581 q 917 0 1025 176 l 688 0 q 819 392 819 192 q 745 603 819 528 q 563 678 671 678 q 379 622 456 678 q 276 472 303 567 q 343 519 299 499 q 431 540 388 540 q 623 465 553 540 q 693 272 693 390 q 610 70 693 154 q 388 -14 526 -14 q 160 94 250 -14 q 69 365 69 201 q 128 597 69 488 q 300 776 186 706 q 557 847 414 847 m 394 371 q 371 371 394 371 q 319 339 349 371 q 289 264 289 307 q 319 188 289 221 q 394 156 349 156 q 469 188 439 156 q 499 264 499 221 q 469 339 499 307 q 394 371 439 371 z "},"ൊ":{"ha":2560,"x_min":69,"x_max":2504,"o":"m 2393 726 q 2449 665 2393 726 q 2504 421 2504 604 q 2393 116 2504 238 q 2108 -6 2282 -6 q 1917 29 2014 -6 l 1917 199 q 2094 164 2029 164 q 2242 234 2185 164 q 2299 421 2299 304 q 2242 608 2299 538 q 2094 678 2185 678 q 1917 643 2029 678 l 1917 813 q 2108 847 2014 847 q 2393 726 2282 847 m 1811 676 q 1818 669 1811 676 q 1825 643 1825 663 q 1811 610 1825 624 q 1777 596 1797 596 q 1743 610 1757 596 q 1729 643 1729 624 q 1743 676 1729 663 q 1777 690 1757 690 q 1811 676 1797 690 m 1681 771 q 1688 764 1681 771 q 1694 738 1694 757 q 1681 704 1694 718 q 1647 690 1667 690 q 1613 704 1626 690 q 1599 738 1599 718 q 1613 771 1599 757 q 1647 785 1626 785 q 1681 771 1667 785 m 1881 511 q 1888 504 1881 511 q 1894 478 1894 497 q 1881 444 1894 458 q 1847 431 1867 431 q 1813 444 1826 431 q 1799 478 1799 458 q 1813 511 1799 497 q 1847 525 1826 525 q 1881 511 1867 525 m 1504 790 q 1511 783 1504 790 q 1518 757 1518 776 q 1504 724 1518 738 q 1470 710 1490 710 q 1436 724 1450 710 q 1422 757 1422 738 q 1436 790 1422 776 q 1470 804 1450 804 q 1504 790 1490 804 m 1867 325 q 1874 318 1867 325 q 1881 292 1881 311 q 1867 258 1881 272 q 1833 244 1853 244 q 1799 258 1813 244 q 1785 292 1785 272 q 1799 325 1785 311 q 1833 339 1813 339 q 1867 325 1853 339 m 1340 731 q 1347 724 1340 731 q 1354 697 1354 717 q 1340 664 1354 678 q 1306 650 1326 650 q 1272 664 1286 650 q 1258 697 1258 678 q 1272 731 1258 717 q 1306 744 1286 744 q 1340 731 1326 744 m 1767 189 q 1774 182 1767 189 q 1781 156 1781 175 q 1767 122 1781 136 q 1733 108 1753 108 q 1699 122 1713 108 q 1685 156 1685 136 q 1699 189 1685 175 q 1733 203 1713 203 q 1767 189 1753 203 m 1229 578 q 1236 571 1229 578 q 1243 544 1243 564 q 1229 511 1243 525 q 1195 497 1215 497 q 1161 511 1175 497 q 1147 544 1147 525 q 1161 578 1147 564 q 1195 592 1175 592 q 1229 578 1215 592 m 1599 115 q 1606 108 1599 115 q 1613 82 1613 101 q 1599 49 1613 63 q 1565 35 1585 35 q 1531 49 1544 35 q 1517 82 1517 63 q 1531 115 1517 101 q 1565 129 1544 129 q 1599 115 1585 129 m 1210 404 q 1217 397 1210 404 q 1224 371 1224 390 q 1210 338 1224 351 q 1176 324 1196 324 q 1142 338 1156 324 q 1128 371 1128 351 q 1142 404 1128 390 q 1176 418 1156 418 q 1210 404 1196 418 m 1422 136 q 1429 129 1422 136 q 1436 103 1436 122 q 1422 69 1436 83 q 1388 56 1408 56 q 1354 69 1368 56 q 1340 103 1340 83 q 1354 136 1340 122 q 1388 150 1368 150 q 1422 136 1408 150 m 1281 242 q 1288 235 1281 242 q 1294 208 1294 228 q 1281 175 1294 189 q 1247 161 1267 161 q 1213 175 1226 161 q 1199 208 1199 189 q 1213 242 1199 228 q 1247 256 1226 256 q 1281 242 1267 256 m 394 371 q 371 371 394 371 q 319 339 349 371 q 289 264 289 307 q 319 188 289 221 q 394 156 349 156 q 469 188 439 156 q 499 264 499 221 q 469 339 499 307 q 394 371 439 371 m 431 540 q 623 465 553 540 q 693 272 693 390 q 610 70 693 154 q 388 -14 526 -14 q 159 89 249 -14 q 69 375 69 192 q 206 703 69 558 q 551 847 342 847 q 892 719 760 847 q 1025 383 1025 590 q 917 0 1025 176 l 688 0 q 819 392 819 192 q 745 603 819 528 q 563 678 671 678 q 379 622 456 678 q 276 472 303 567 q 343 519 299 499 q 431 540 388 540 z "},"ോ":{"ha":2393,"x_min":69,"x_max":2338,"o":"m 2226 726 q 2282 665 2226 726 q 2338 421 2338 604 q 2226 116 2338 238 q 1942 -6 2115 -6 q 1750 29 1847 -6 l 1750 199 q 1928 164 1863 164 q 2075 234 2018 164 q 2132 421 2132 304 q 2075 608 2132 538 q 1928 678 2018 678 q 1750 643 1863 678 l 1750 813 q 1942 847 1847 847 q 2226 726 2115 847 m 1658 676 q 1665 669 1658 676 q 1672 643 1672 663 q 1658 610 1672 624 q 1624 596 1644 596 q 1590 610 1604 596 q 1576 643 1576 624 q 1590 676 1576 663 q 1624 690 1604 690 q 1658 676 1644 690 m 1528 771 q 1535 764 1528 771 q 1542 738 1542 757 q 1528 704 1542 718 q 1494 690 1514 690 q 1460 704 1474 690 q 1446 738 1446 718 q 1460 771 1446 757 q 1494 785 1474 785 q 1528 771 1514 785 m 1728 511 q 1735 504 1728 511 q 1742 478 1742 497 q 1728 444 1742 458 q 1694 431 1714 431 q 1660 444 1674 431 q 1646 478 1646 458 q 1660 511 1646 497 q 1694 525 1674 525 q 1728 511 1714 525 m 1351 790 q 1358 783 1351 790 q 1365 757 1365 776 q 1351 724 1365 738 q 1317 710 1338 710 q 1283 724 1297 710 q 1269 757 1269 738 q 1283 790 1269 776 q 1317 804 1297 804 q 1351 790 1338 804 m 1714 325 q 1721 318 1714 325 q 1728 292 1728 311 q 1714 258 1728 272 q 1680 244 1700 244 q 1646 258 1660 244 q 1632 292 1632 272 q 1646 325 1632 311 q 1680 339 1660 339 q 1714 325 1700 339 m 1188 731 q 1194 724 1188 731 q 1201 697 1201 717 q 1188 664 1201 678 q 1153 650 1174 650 q 1119 664 1133 650 q 1106 697 1106 678 q 1119 731 1106 717 q 1153 744 1133 744 q 1188 731 1174 744 m 1614 189 q 1621 182 1614 189 q 1628 156 1628 175 q 1614 122 1628 136 q 1580 108 1600 108 q 1546 122 1560 108 q 1532 156 1532 136 q 1546 189 1532 175 q 1580 203 1560 203 q 1614 189 1600 203 m 1076 578 q 1083 571 1076 578 q 1090 544 1090 564 q 1076 511 1090 525 q 1042 497 1063 497 q 1008 511 1022 497 q 994 544 994 525 q 1008 578 994 564 q 1042 592 1022 592 q 1076 578 1063 592 m 1446 115 q 1453 108 1446 115 q 1460 82 1460 101 q 1446 49 1460 63 q 1412 35 1432 35 q 1378 49 1392 35 q 1364 82 1364 63 q 1378 115 1364 101 q 1412 129 1392 129 q 1446 115 1432 129 m 1057 404 q 1064 397 1057 404 q 1071 371 1071 390 q 1057 338 1071 351 q 1023 324 1043 324 q 989 338 1003 324 q 975 371 975 351 q 989 404 975 390 q 1023 418 1003 418 q 1057 404 1043 418 m 1269 136 q 1276 129 1269 136 q 1283 103 1283 122 q 1269 69 1283 83 q 1235 56 1256 56 q 1201 69 1215 56 q 1188 103 1188 83 q 1201 136 1188 122 q 1235 150 1215 150 q 1269 136 1256 150 m 1128 242 q 1135 235 1128 242 q 1142 208 1142 228 q 1128 175 1142 189 q 1094 161 1114 161 q 1060 175 1074 161 q 1046 208 1046 189 q 1060 242 1046 228 q 1094 256 1074 256 q 1128 242 1114 256 m 644 703 q 629 703 644 703 q 594 682 614 703 q 575 630 575 661 q 594 578 575 599 q 644 557 614 557 q 696 578 675 557 q 717 630 717 599 q 696 682 717 661 q 644 703 675 703 m 644 276 q 629 276 644 276 q 594 256 614 276 q 575 203 575 235 q 594 151 575 172 q 644 131 614 131 q 696 151 675 131 q 717 203 717 172 q 696 256 717 235 q 644 276 675 276 m 650 406 q 698 406 650 406 q 803 352 746 406 q 860 208 860 299 q 788 52 860 118 q 556 -14 715 -14 q 201 108 332 -14 q 69 417 69 231 q 201 725 69 603 q 556 847 332 847 q 788 781 715 847 q 860 625 860 715 q 803 481 860 535 q 650 428 746 428 q 497 476 554 428 q 440 584 440 525 q 472 686 440 643 q 333 594 392 667 q 275 416 275 522 q 333 234 275 310 q 469 150 392 158 q 440 249 440 189 q 497 357 440 308 q 650 406 554 406 z "},"ൌ":{"ha":2078,"x_min":86,"x_max":2008,"o":"m 769 676 q 776 669 769 676 q 783 643 783 663 q 769 610 783 624 q 735 596 756 596 q 701 610 715 596 q 688 643 688 624 q 701 676 688 663 q 735 690 715 690 q 769 676 756 690 m 639 771 q 646 764 639 771 q 653 738 653 757 q 639 704 653 718 q 605 690 625 690 q 571 704 585 690 q 557 738 557 718 q 571 771 557 757 q 605 785 585 785 q 639 771 625 785 m 839 511 q 846 504 839 511 q 853 478 853 497 q 839 444 853 458 q 805 431 825 431 q 771 444 785 431 q 757 478 757 458 q 771 511 757 497 q 805 525 785 525 q 839 511 825 525 m 463 790 q 469 783 463 790 q 476 757 476 776 q 463 724 476 738 q 428 710 449 710 q 394 724 408 710 q 381 757 381 738 q 394 790 381 776 q 428 804 408 804 q 463 790 449 804 m 825 325 q 832 318 825 325 q 839 292 839 311 q 825 258 839 272 q 791 244 811 244 q 757 258 771 244 q 743 292 743 272 q 757 325 743 311 q 791 339 771 339 q 825 325 811 339 m 299 731 q 306 724 299 731 q 313 697 313 717 q 299 664 313 678 q 265 650 285 650 q 231 664 244 650 q 217 697 217 678 q 231 731 217 717 q 265 744 244 744 q 299 731 285 744 m 725 189 q 732 182 725 189 q 739 156 739 175 q 725 122 739 136 q 691 108 711 108 q 657 122 671 108 q 643 156 643 136 q 657 189 643 175 q 691 203 671 203 q 725 189 711 203 m 188 578 q 194 571 188 578 q 201 544 201 564 q 188 511 201 525 q 153 497 174 497 q 119 511 133 497 q 106 544 106 525 q 119 578 106 564 q 153 592 133 592 q 188 578 174 592 m 557 115 q 564 108 557 115 q 571 82 571 101 q 557 49 571 63 q 523 35 543 35 q 489 49 503 35 q 475 82 475 63 q 489 115 475 101 q 523 129 503 129 q 557 115 543 129 m 168 404 q 175 397 168 404 q 182 371 182 390 q 168 338 182 351 q 134 324 154 324 q 100 338 114 324 q 86 371 86 351 q 100 404 86 390 q 134 418 114 418 q 168 404 154 418 m 381 136 q 388 129 381 136 q 394 103 394 122 q 381 69 394 83 q 347 56 367 56 q 313 69 326 56 q 299 103 299 83 q 313 136 299 122 q 347 150 326 150 q 381 136 367 150 m 239 242 q 246 235 239 242 q 253 208 253 228 q 239 175 253 189 q 205 161 225 161 q 171 175 185 161 q 157 208 157 189 q 171 242 157 228 q 205 256 185 256 q 239 242 225 256 m 2008 469 q 1886 120 2008 254 q 1565 -14 1764 -14 q 1421 10 1485 -14 l 1421 192 q 1557 174 1488 174 q 1735 242 1668 174 q 1803 450 1803 310 q 1674 678 1803 678 q 1597 645 1625 678 q 1569 550 1569 613 l 1569 422 l 1367 422 l 1367 536 q 1257 678 1367 678 q 1176 636 1204 678 q 1147 531 1147 594 q 1181 385 1147 467 l 979 385 q 949 529 949 446 q 1025 753 949 660 q 1240 847 1101 847 q 1382 809 1322 847 q 1474 715 1442 771 q 1557 808 1497 769 q 1692 847 1617 847 q 1928 741 1849 847 q 2008 469 2008 635 z "},"്":{"ha":0,"x_min":-503,"x_max":93,"o":"m 93 1217 q 15 1001 93 1082 q -204 921 -64 921 q -424 1001 -344 921 q -503 1217 -503 1082 l -322 1217 q -292 1124 -322 1157 q -204 1090 -262 1090 q -87 1217 -87 1090 l 93 1217 z "},"ൎ":{"ha":0,"x_min":-319,"x_max":-85,"o":"m -202 1301 q -175 1301 -202 1301 q -117 1269 -149 1301 q -85 1184 -85 1238 q -116 1099 -85 1131 q -201 1067 -147 1067 q -287 1099 -256 1067 q -319 1184 -319 1131 q -287 1269 -319 1238 q -202 1301 -256 1301 z "},"ൗ":{"ha":1185,"x_min":56,"x_max":1115,"o":"m 1115 469 q 993 120 1115 254 q 672 -14 871 -14 q 528 10 592 -14 l 528 192 q 664 174 594 174 q 842 242 775 174 q 910 450 910 310 q 781 678 910 678 q 704 645 732 678 q 676 550 676 613 l 676 422 l 474 422 l 474 536 q 364 678 474 678 q 283 636 311 678 q 254 531 254 594 q 288 385 254 467 l 86 385 q 56 529 56 446 q 132 753 56 660 q 347 847 208 847 q 489 809 429 847 q 581 715 549 771 q 664 808 604 769 q 799 847 724 847 q 1035 741 956 847 q 1115 469 1115 635 z "},"ൠ":{"ha":1314,"x_min":69,"x_max":1244,"o":"m 967 697 q 945 697 967 697 q 896 668 924 697 q 868 597 868 639 q 897 525 868 556 q 967 494 925 494 q 1038 525 1010 494 q 1067 597 1067 556 q 1039 668 1067 639 q 967 697 1011 697 m 347 697 q 325 697 347 697 q 275 668 303 697 q 247 597 247 639 q 276 525 247 556 q 347 494 304 494 q 417 525 389 494 q 446 597 446 556 q 418 668 446 639 q 347 697 390 697 m 386 -50 q 430 47 386 13 q 542 82 474 82 q 657 42 610 82 q 772 82 704 82 q 884 47 840 82 q 928 -50 928 13 q 914 -110 928 -79 l 788 -110 q 804 -60 804 -82 q 760 -19 804 -19 q 717 -71 717 -19 l 717 -110 l 597 -110 l 597 -71 q 553 -19 597 -19 q 510 -60 510 -19 q 526 -110 510 -82 l 400 -110 q 386 -50 386 -79 m 289 -22 q 656 -185 289 -185 q 1024 -19 1024 -185 q 656 133 1024 133 q 289 -22 289 133 m 1215 -25 q 1074 -265 1215 -181 q 659 -349 933 -349 q 241 -263 385 -349 q 97 -28 97 -178 q 149 124 97 61 q 299 214 201 188 q 137 354 204 260 q 69 581 69 449 q 151 767 69 688 q 356 847 232 847 q 551 771 479 847 q 624 595 624 694 q 561 433 624 496 q 418 371 499 371 q 325 393 365 371 q 662 288 440 288 q 993 393 883 288 q 911 371 953 371 q 760 433 829 371 q 690 594 690 494 q 762 771 690 694 q 958 847 833 847 q 1164 766 1083 847 q 1244 565 1244 685 q 1177 351 1244 444 q 1017 214 1110 258 q 1163 124 1110 189 q 1215 -25 1215 58 z "},"ൡ":{"ha":1903,"x_min":69,"x_max":1861,"o":"m 394 371 q 371 371 394 371 q 319 339 349 371 q 289 264 289 307 q 319 188 289 221 q 394 156 349 156 q 469 188 439 156 q 499 264 499 221 q 469 339 499 307 q 394 371 439 371 m 1861 89 q 1731 -238 1861 -119 q 1385 -357 1601 -357 q 1215 -339 1294 -357 l 1215 -157 q 1383 -185 1313 -185 q 1598 -115 1519 -185 q 1682 119 1676 -44 q 1438 -14 1593 -14 q 1228 63 1314 -14 q 1143 263 1143 140 q 1229 460 1143 385 q 1446 536 1315 536 q 1549 521 1496 536 q 1294 683 1482 683 q 1094 603 1171 683 q 1017 378 1017 522 l 1017 0 l 819 0 l 819 392 q 735 601 819 525 q 535 678 651 678 q 373 622 443 678 q 276 472 303 567 q 343 519 299 499 q 431 540 388 540 q 623 465 553 540 q 693 272 693 390 q 610 70 693 154 q 388 -14 526 -14 q 159 89 249 -14 q 69 375 69 192 q 200 703 69 558 q 535 847 331 847 q 767 790 661 847 q 918 644 872 732 q 1069 790 971 733 q 1293 847 1168 847 q 1619 717 1501 847 q 1749 392 1738 586 q 1861 89 1861 265 m 1338 265 q 1338 241 1338 265 q 1368 185 1338 218 q 1455 153 1399 153 q 1547 199 1511 153 q 1582 326 1582 244 q 1457 375 1518 375 q 1367 343 1396 375 q 1338 265 1338 311 z "},"ൢ":{"ha":0,"x_min":-1068,"x_max":-97,"o":"m -275 -250 q -319 -408 -319 -293 q -275 -522 -319 -522 q -233 -412 -233 -522 q -275 -250 -233 -303 m -890 -250 q -932 -412 -932 -303 q -890 -522 -932 -522 q -846 -408 -846 -522 q -890 -250 -846 -293 m -793 -224 q -711 -402 -711 -281 q -762 -578 -711 -524 q -890 -633 -812 -633 q -1017 -576 -967 -633 q -1068 -393 -1068 -518 q -992 -190 -1068 -268 q -803 -112 -917 -112 q -669 -143 -726 -112 q -583 -208 -612 -174 q -502 -142 -556 -172 q -372 -112 -449 -112 q -177 -191 -257 -112 q -97 -394 -97 -269 q -148 -576 -97 -518 q -276 -633 -199 -633 q -403 -578 -353 -633 q -454 -402 -454 -524 q -372 -224 -454 -281 q -475 -264 -433 -229 q -517 -362 -517 -299 l -517 -625 l -650 -625 l -650 -362 q -691 -264 -650 -299 q -793 -224 -732 -229 z "},"ൣ":{"ha":0,"x_min":-1185,"x_max":-97,"o":"m -984 -407 q -996 -407 -984 -407 q -1024 -424 -1008 -407 q -1040 -464 -1040 -442 q -1024 -504 -1040 -486 q -985 -522 -1008 -522 q -944 -504 -961 -522 q -928 -464 -928 -486 q -944 -424 -928 -442 q -984 -407 -960 -407 m -168 -386 q -97 -583 -97 -464 q -177 -772 -97 -701 q -390 -843 -257 -843 q -496 -832 -449 -843 l -496 -712 q -392 -731 -433 -731 q -265 -692 -311 -731 q -214 -560 -219 -654 q -352 -633 -271 -633 q -486 -587 -433 -633 q -539 -466 -539 -540 q -485 -345 -539 -392 q -353 -299 -432 -299 q -299 -306 -329 -299 q -442 -219 -336 -219 q -561 -267 -517 -219 q -606 -401 -606 -315 l -606 -625 l -735 -625 l -735 -392 q -783 -267 -735 -311 q -892 -224 -832 -224 q -992 -253 -953 -224 q -1047 -332 -1032 -283 q -1008 -307 -1035 -318 q -958 -296 -982 -296 q -842 -342 -885 -296 q -800 -459 -800 -387 q -851 -582 -800 -531 q -989 -633 -903 -633 q -1130 -571 -1075 -633 q -1185 -398 -1185 -508 q -1106 -200 -1185 -287 q -903 -112 -1026 -112 q -761 -146 -825 -112 q -669 -231 -697 -179 q -577 -146 -636 -179 q -443 -112 -518 -112 q -247 -190 -317 -112 q -168 -386 -176 -268 m -353 -524 q -276 -432 -276 -524 q -348 -404 -315 -404 q -396 -422 -381 -404 q -411 -464 -411 -439 q -394 -506 -411 -489 q -353 -524 -378 -524 z "},"൦":{"ha":864,"x_min":49,"x_max":815,"o":"m 151 104 q 100 164 151 104 q 49 415 49 224 q 151 727 49 607 q 433 847 254 847 q 713 728 611 847 q 815 416 815 608 q 713 104 815 224 q 433 -15 611 -15 q 151 104 254 -15 m 429 678 q 384 678 429 678 q 297 605 339 678 q 254 414 254 532 q 299 225 254 296 q 432 154 344 154 q 611 415 611 154 q 565 606 611 535 q 429 678 519 678 z "},"൧":{"ha":1078,"x_min":42,"x_max":981,"o":"m 511 483 l 511 168 l 778 168 l 778 483 q 745 631 778 583 q 644 678 713 678 q 544 631 576 678 q 511 483 511 583 m 589 -281 l 281 -281 q 106 -212 169 -281 q 42 -45 42 -143 q 115 115 42 53 q 315 178 188 176 l 315 483 q 401 753 315 658 q 647 847 488 847 q 893 753 806 847 q 981 483 981 658 l 981 0 l 303 0 q 260 -14 276 0 q 243 -54 243 -28 q 265 -96 243 -81 q 319 -111 286 -111 l 589 -111 l 589 -281 z "},"൨":{"ha":1076,"x_min":63,"x_max":1042,"o":"m 543 0 l 543 163 q 653 414 653 243 q 601 608 653 539 q 460 678 549 678 q 319 608 371 678 q 268 414 268 539 q 301 251 268 328 q 394 174 335 175 l 394 -14 q 202 51 279 -14 q 94 209 125 115 q 63 419 63 303 q 174 729 63 611 q 460 847 286 847 q 746 729 633 847 q 858 431 858 611 q 750 161 858 251 q 1042 169 811 169 l 1042 0 l 543 0 z "},"൩":{"ha":1492,"x_min":63,"x_max":1457,"o":"m 426 188 l 426 0 q 275 28 342 0 q 169 100 208 57 q 106 200 131 143 q 63 417 63 300 q 161 733 63 618 q 429 847 260 847 q 667 718 599 847 q 766 813 706 779 q 899 847 826 847 q 1162 731 1068 847 q 1256 417 1256 614 q 1233 282 1256 354 q 1183 169 1211 210 l 1457 169 l 1457 0 l 940 0 l 940 163 q 1050 414 1050 226 q 1010 609 1050 540 q 906 678 971 678 q 805 631 840 678 q 769 489 769 583 l 769 0 l 567 0 l 567 489 q 426 678 567 678 q 313 613 357 678 q 268 419 268 547 q 309 239 268 290 q 426 188 350 188 z "},"൪":{"ha":1122,"x_min":69,"x_max":1060,"o":"m 738 168 q 854 375 854 168 q 764 593 854 503 q 744 567 763 592 q 724 538 726 542 q 706 513 721 535 q 688 484 690 490 q 672 458 685 478 q 657 428 660 438 q 647 400 654 418 q 637 369 639 382 q 632 339 635 356 q 629 306 629 322 q 658 204 629 240 q 738 168 686 168 m 1060 375 q 974 99 1060 197 q 741 0 889 0 q 508 90 593 0 q 424 306 424 179 q 464 483 424 406 q 501 549 488 528 q 551 618 514 569 q 596 676 589 667 q 563 678 585 678 q 353 591 431 678 q 275 386 275 504 q 310 182 275 268 q 421 0 344 96 l 192 0 q 69 375 69 168 q 194 696 69 553 q 350 806 254 764 q 563 847 446 847 q 674 836 615 847 q 679 894 679 860 q 635 1004 679 964 q 524 1044 592 1044 q 379 1018 456 1044 l 379 1192 q 521 1214 461 1214 q 784 1128 683 1214 q 885 894 885 1043 q 858 756 885 822 q 1006 590 953 690 q 1060 375 1060 490 z "},"൫":{"ha":1557,"x_min":56,"x_max":1501,"o":"m 1186 110 q 1058 -163 1186 -50 q 719 -276 929 -276 q 431 -219 560 -276 q 222 -67 301 -162 q 56 394 56 132 q 106 669 56 536 q 248 903 157 801 q 478 1065 339 1006 q 784 1119 617 1124 q 1092 1053 951 1114 q 1320 892 1232 992 q 1455 671 1408 793 q 1501 417 1501 549 q 1418 -12 1501 208 l 1214 -12 q 1259 113 1243 63 q 1289 246 1275 164 q 1300 408 1303 328 q 1147 797 1293 643 q 783 950 1001 950 q 497 874 625 950 q 374 770 426 832 q 290 612 322 708 q 257 393 257 515 q 300 171 257 271 q 413 13 343 71 q 719 -107 554 -107 q 907 -49 833 -107 q 981 110 981 10 q 935 205 981 168 q 801 242 890 242 l 744 242 l 744 411 l 788 411 q 888 441 857 411 q 918 515 918 471 q 888 584 918 558 q 803 610 857 610 q 657 393 657 610 l 657 85 l 454 85 l 454 393 q 485 575 454 497 q 567 696 515 653 q 808 779 668 779 q 1036 706 949 779 q 1124 517 1124 633 q 1091 394 1124 444 q 996 332 1058 343 q 1133 260 1081 321 q 1186 110 1186 200 z "},"൬":{"ha":1819,"x_min":63,"x_max":1757,"o":"m 753 802 q 786 825 753 802 q 911 847 818 847 q 1067 803 1004 847 q 1160 690 1131 760 q 1403 847 1238 847 q 1663 733 1568 847 q 1757 417 1757 619 q 1711 61 1757 225 q 1532 -228 1664 -111 q 1157 -347 1399 -347 l 1157 -160 q 1460 -17 1368 -160 q 1551 417 1551 126 q 1509 613 1551 547 q 1401 678 1467 678 q 1297 631 1336 678 q 1257 489 1257 585 l 1257 0 l 1054 0 l 1054 489 q 1017 630 1054 582 q 910 678 979 678 q 803 629 842 678 q 765 489 765 581 l 765 0 l 563 0 l 563 489 q 523 631 563 585 q 418 678 483 678 q 310 613 353 678 q 268 419 268 547 q 309 239 268 290 q 426 188 350 188 l 426 0 q 275 28 342 0 q 169 100 208 57 q 106 200 131 143 q 63 417 63 300 q 157 733 63 619 q 414 847 251 847 q 560 808 494 847 q 664 690 625 768 q 753 802 689 757 z "},"൭":{"ha":1115,"x_min":69,"x_max":1046,"o":"m 387 371 q 364 371 387 371 q 312 339 342 371 q 282 264 282 307 q 312 188 282 221 q 387 156 342 156 q 462 188 432 156 q 492 264 492 221 q 462 339 492 307 q 387 371 432 371 m 1046 344 q 878 -111 1046 69 q 390 -297 710 -292 l 392 -111 q 607 -72 515 -111 q 750 33 699 -33 q 849 354 849 167 q 762 589 849 500 q 542 678 675 678 q 372 622 449 678 q 269 472 294 565 q 336 519 292 499 q 424 540 381 540 q 616 465 546 540 q 686 272 686 390 q 603 70 686 154 q 381 -14 519 -14 q 156 88 242 -14 q 69 374 69 190 q 203 702 69 557 q 549 847 336 847 q 904 712 763 847 q 1046 344 1046 576 z "},"൮":{"ha":1400,"x_min":63,"x_max":1303,"o":"m 417 0 q 272 28 336 0 q 169 99 207 56 q 106 199 131 142 q 63 414 63 297 q 180 727 63 607 q 481 847 297 847 q 781 728 664 847 q 899 417 899 608 q 826 169 899 272 l 1100 169 l 1100 833 l 1303 833 l 1303 0 q 828 -400 1303 -381 l 828 -219 q 1037 -157 975 -211 q 1099 0 1099 -103 l 583 0 l 583 163 q 693 414 693 232 q 634 608 693 538 q 481 678 575 678 q 327 608 386 678 q 268 419 268 538 q 314 240 268 300 q 417 181 360 181 l 417 0 z "},"൯":{"ha":1600,"x_min":63,"x_max":1538,"o":"m 1106 292 q 1135 190 1106 226 q 1217 154 1165 154 q 1301 210 1269 154 q 1332 383 1332 267 q 1242 589 1332 499 q 1222 561 1239 585 q 1201 531 1206 538 q 1183 503 1197 525 q 1165 474 1169 482 q 1149 447 1160 467 q 1134 416 1138 426 q 1123 388 1131 406 q 1113 356 1115 369 q 1106 292 1106 321 m 1538 375 q 1451 94 1538 203 q 1218 -14 1364 -14 q 986 76 1072 -14 q 900 292 900 165 q 942 474 900 393 q 1022 603 979 544 q 1075 676 1064 661 q 1035 678 1068 678 q 957 665 1003 678 q 867 625 911 653 q 796 541 822 597 q 769 406 769 485 l 769 0 l 567 0 l 567 489 q 426 678 567 678 q 313 613 357 678 q 268 419 268 547 q 309 239 268 290 q 426 188 350 188 l 426 0 q 275 28 342 0 q 169 100 208 57 q 106 200 131 143 q 63 417 63 300 q 161 733 63 618 q 428 847 260 847 q 683 710 597 847 q 1057 847 817 847 q 1150 836 1099 847 q 1156 894 1156 860 q 1112 1004 1156 964 q 1000 1044 1068 1044 q 856 1018 932 1044 l 856 1192 q 997 1214 938 1214 q 1260 1128 1160 1214 q 1361 894 1361 1043 q 1335 753 1361 821 q 1482 590 1426 688 q 1538 375 1538 493 z "},"൰":{"ha":1311,"x_min":97,"x_max":1249,"o":"m 644 129 q 544 34 606 68 q 418 0 483 0 q 300 22 353 0 l 300 -197 l 97 -197 l 97 847 l 300 847 l 300 232 q 411 169 335 169 q 506 217 469 169 q 542 358 542 264 l 542 847 l 744 847 l 744 358 q 885 169 744 169 q 999 235 954 169 q 1043 428 1043 300 q 1002 608 1043 557 q 885 660 961 660 l 885 847 q 1036 819 969 847 q 1142 747 1103 790 q 1206 647 1181 704 q 1249 431 1249 547 q 1150 115 1249 229 q 882 0 1051 0 q 644 129 713 0 z "},"൱":{"ha":1350,"x_min":63,"x_max":1274,"o":"m 1197 3 q 1090 -169 1154 -96 q 926 -287 1026 -242 q 699 -332 825 -332 l 699 -144 q 971 -1 874 -144 q 1068 403 1068 143 q 1024 610 1068 543 q 910 678 979 678 q 769 489 769 678 l 769 0 l 567 0 l 567 489 q 426 678 567 678 q 313 613 357 678 q 268 419 268 547 q 309 239 268 290 q 426 188 350 188 l 426 0 q 275 28 342 0 q 169 100 208 57 q 106 200 131 143 q 63 417 63 300 q 161 733 63 618 q 424 847 260 847 q 669 718 589 847 q 908 847 738 847 q 1176 731 1078 847 q 1274 397 1274 614 q 1197 3 1274 181 z "},"൲":{"ha":2167,"x_min":63,"x_max":2111,"o":"m 1825 749 q 1803 749 1825 749 q 1753 719 1782 749 q 1725 647 1725 690 q 1753 574 1725 603 q 1825 544 1782 544 q 1895 574 1868 544 q 1922 647 1922 603 q 1895 719 1922 690 q 1825 749 1868 749 m 1075 267 q 1075 244 1075 267 q 1105 188 1075 221 q 1188 156 1135 156 q 1282 207 1242 156 q 1322 365 1322 258 l 1322 372 l 1236 372 q 1117 342 1158 371 q 1075 267 1075 313 m 1504 365 q 1415 89 1504 192 q 1186 -14 1325 -14 q 964 70 1047 -14 q 881 274 881 154 q 976 467 881 393 q 1236 540 1072 540 l 1285 540 q 1025 678 1214 678 q 844 610 918 678 q 769 418 769 543 l 769 0 l 567 0 l 567 489 q 426 678 567 678 q 313 613 357 678 q 268 419 268 547 q 309 239 268 290 q 426 188 350 188 l 426 0 q 275 28 342 0 q 169 100 208 57 q 106 200 131 143 q 63 417 63 300 q 161 733 63 618 q 424 847 260 847 q 579 805 508 847 q 683 699 650 763 q 831 808 739 769 q 1025 847 924 847 q 1308 763 1190 847 q 1475 540 1426 679 l 1572 540 q 1536 656 1536 596 q 1620 844 1536 771 q 1828 917 1704 917 q 2032 843 1953 917 q 2111 647 2111 769 q 2024 448 2111 524 q 1781 372 1936 372 l 1504 372 l 1504 365 z "},"൳":{"ha":1096,"x_min":63,"x_max":1033,"o":"m 1033 833 l 1033 664 l 526 664 q 338 594 407 664 q 268 383 268 525 q 407 156 268 156 q 546 383 546 156 q 515 550 546 469 l 717 550 q 751 383 751 472 q 658 90 751 193 q 407 -14 565 -14 q 156 90 249 -14 q 63 383 63 193 q 193 717 63 601 q 532 833 324 833 l 1033 833 z "},"൴":{"ha":1454,"x_min":69,"x_max":1392,"o":"m 394 371 q 371 371 394 371 q 319 339 349 371 q 289 264 289 307 q 319 188 289 221 q 394 156 349 156 q 469 188 439 156 q 499 264 499 221 q 469 339 499 307 q 394 371 439 371 m 954 297 q 954 269 954 297 q 985 204 954 240 q 1068 168 1015 168 q 1153 215 1121 168 q 1186 354 1186 261 q 1078 578 1186 489 q 1015 489 1035 519 q 975 406 996 458 q 954 297 954 354 m 431 540 q 623 465 553 540 q 693 272 693 390 q 610 70 693 154 q 390 -14 526 -14 q 162 85 254 -14 q 69 332 69 183 q 248 715 69 582 q 722 847 426 847 q 992 807 864 847 q 1004 906 1004 849 q 960 1004 1004 964 q 849 1044 917 1044 q 704 1018 781 1044 l 704 1192 q 846 1214 786 1214 q 1109 1128 1008 1214 q 1210 894 1210 1043 q 1171 725 1210 807 q 1333 562 1275 657 q 1392 354 1392 467 q 1304 97 1392 193 q 1069 0 1217 0 q 835 90 922 0 q 749 306 749 179 q 765 419 749 378 q 788 481 781 461 q 817 531 796 500 q 844 574 838 563 q 878 619 851 585 q 908 658 904 653 q 722 681 819 681 q 417 625 532 681 q 276 472 303 569 q 343 519 299 499 q 431 540 388 540 z "},"൵":{"ha":1842,"x_min":69,"x_max":1779,"o":"m 394 371 q 371 371 394 371 q 319 339 349 371 q 289 264 289 307 q 319 188 289 221 q 394 156 349 156 q 469 188 439 156 q 499 264 499 221 q 469 339 499 307 q 394 371 439 371 m 1461 168 q 1574 382 1574 168 q 1486 597 1574 507 q 1458 558 1481 590 q 1429 517 1436 526 q 1405 480 1422 507 q 1381 437 1388 453 q 1365 397 1375 421 q 1349 299 1349 357 q 1379 204 1349 240 q 1461 168 1410 168 m 431 540 q 623 465 553 540 q 693 272 693 390 q 610 70 693 154 q 390 -14 526 -14 q 162 85 254 -14 q 69 332 69 183 q 198 700 69 553 q 535 847 326 847 q 921 674 792 847 q 1310 847 1068 847 q 1393 839 1351 847 q 1399 894 1399 861 q 1355 1004 1399 964 q 1243 1044 1311 1044 q 1099 1018 1175 1044 l 1099 1192 q 1240 1214 1181 1214 q 1503 1128 1403 1214 q 1604 894 1604 1043 q 1579 758 1604 826 q 1724 599 1669 696 q 1779 382 1779 501 q 1694 106 1779 211 q 1463 0 1608 0 q 1230 90 1317 0 q 1143 306 1143 179 q 1183 483 1143 408 q 1265 610 1225 558 q 1317 678 1306 663 l 1306 678 q 1119 625 1204 678 q 1049 541 1075 597 q 1022 406 1022 485 l 1022 0 l 819 0 l 819 419 q 737 613 819 547 q 549 678 654 678 q 373 622 443 678 q 276 472 303 567 q 343 519 299 499 q 431 540 388 540 z "},"൹":{"ha":1774,"x_min":63,"x_max":1739,"o":"m 1075 267 q 1075 244 1075 267 q 1105 188 1075 221 q 1188 156 1135 156 q 1282 207 1242 156 q 1322 365 1322 258 l 1322 372 l 1236 372 q 1117 342 1158 371 q 1075 267 1075 313 m 1504 365 q 1415 89 1504 192 q 1186 -14 1325 -14 q 964 70 1047 -14 q 881 274 881 154 q 976 467 881 393 q 1236 540 1072 540 l 1282 540 q 1025 678 1207 678 q 844 610 918 678 q 769 418 769 543 l 769 -14 l 567 -14 l 567 475 q 424 664 567 664 q 313 598 357 664 q 268 404 268 532 q 309 225 268 276 q 426 174 350 174 l 426 -14 q 275 15 342 -14 q 169 86 208 43 q 106 186 131 129 q 63 403 63 286 q 160 719 63 604 q 421 833 257 833 q 578 793 507 833 q 682 690 649 753 q 1025 847 810 847 q 1305 762 1188 847 q 1472 540 1422 676 l 1739 540 l 1739 372 l 1504 372 l 1504 365 z "},"ൺ":{"ha":2306,"x_min":69,"x_max":2243,"o":"m 394 371 q 371 371 394 371 q 319 339 349 371 q 289 264 289 307 q 319 188 289 221 q 394 156 349 156 q 469 188 439 156 q 499 264 499 221 q 469 339 499 307 q 394 371 439 371 m 1813 280 q 1813 253 1813 280 q 1841 190 1813 226 q 1922 154 1869 154 q 2006 208 1975 154 q 2038 377 2038 261 q 1949 589 2038 493 q 1927 558 1946 585 q 1904 525 1908 532 q 1884 495 1900 518 q 1864 462 1868 472 q 1848 431 1860 451 q 1833 397 1836 410 q 1822 364 1829 383 q 1813 280 1813 333 m 431 540 q 623 465 553 540 q 693 272 693 390 q 610 70 693 154 q 388 -14 526 -14 q 159 89 249 -14 q 69 375 69 192 q 200 703 69 558 q 535 847 331 847 q 747 807 647 847 q 908 690 846 767 q 1002 803 938 758 q 1151 847 1067 847 q 1297 801 1235 847 q 1385 690 1360 756 q 1774 847 1518 847 q 1857 838 1818 847 q 1863 894 1863 861 q 1819 1004 1863 964 q 1707 1044 1775 1044 q 1563 1018 1639 1044 l 1563 1192 q 1704 1214 1644 1214 q 1967 1128 1867 1214 q 2068 894 2068 1043 q 2042 754 2068 822 q 2188 588 2133 689 q 2243 368 2243 488 q 2156 92 2243 197 q 1923 -14 2069 -14 q 1692 76 1776 -14 q 1607 292 1607 165 q 1649 475 1607 394 q 1728 601 1685 543 q 1783 678 1771 660 l 1769 678 q 1583 625 1668 678 q 1513 541 1539 597 q 1486 406 1486 485 l 1486 0 l 1283 0 l 1283 489 q 1247 631 1283 583 q 1151 678 1211 678 q 1057 631 1092 678 q 1022 489 1022 585 l 1022 0 l 819 0 l 819 419 q 737 613 819 547 q 549 678 654 678 q 373 622 443 678 q 276 472 303 567 q 343 519 299 499 q 431 540 388 540 z "},"ൻ":{"ha":1582,"x_min":63,"x_max":1519,"o":"m 1204 154 q 1314 382 1314 154 q 1236 594 1314 510 q 1199 540 1219 569 q 1162 486 1178 511 q 1140 448 1146 461 q 1123 412 1133 435 q 1108 372 1113 389 q 1096 279 1096 332 q 1124 190 1096 226 q 1204 154 1153 154 m 63 417 q 161 733 63 618 q 428 847 260 847 q 683 710 597 847 q 1043 847 817 847 q 1140 838 1096 847 q 1146 894 1146 861 q 1102 1004 1146 964 q 990 1044 1058 1044 q 846 1018 922 1044 l 846 1192 q 988 1214 928 1214 q 1251 1128 1150 1214 q 1351 894 1351 1043 q 1326 757 1351 825 q 1467 595 1415 693 q 1519 382 1519 497 q 1435 95 1519 204 q 1206 -14 1351 -14 q 975 76 1060 -14 q 890 292 890 165 q 932 474 890 393 q 1013 603 969 546 q 1067 676 1056 660 q 1024 678 1057 678 q 945 664 990 678 q 859 620 900 650 q 794 535 818 590 q 769 406 769 479 l 769 0 l 567 0 l 567 489 q 426 678 567 678 q 313 613 357 678 q 268 419 268 547 q 309 239 268 290 q 426 188 350 188 l 426 0 q 275 28 342 0 q 169 100 208 57 q 106 200 131 143 q 63 417 63 300 z "},"ർ":{"ha":1115,"x_min":69,"x_max":1053,"o":"m 738 154 q 847 375 847 154 q 767 592 847 507 q 742 556 763 585 q 717 519 722 528 q 694 484 711 510 q 672 447 678 458 q 640 372 644 388 q 629 278 629 329 q 658 190 629 226 q 738 154 686 154 m 1053 375 q 969 94 1053 203 q 739 -14 885 -14 q 508 76 593 -14 q 424 292 424 165 q 465 474 424 393 q 544 599 500 539 q 599 675 588 658 q 563 678 576 678 q 353 591 431 678 q 275 388 275 504 q 307 185 275 271 q 407 0 339 100 l 178 0 q 69 375 69 176 q 194 696 69 553 q 350 806 254 764 q 563 847 446 847 q 674 835 619 847 q 679 894 679 861 q 635 1004 679 964 q 524 1044 592 1044 q 379 1018 456 1044 l 379 1192 q 521 1214 461 1214 q 784 1128 683 1214 q 885 894 885 1043 q 858 753 885 821 q 1001 587 949 686 q 1053 375 1053 488 z "},"ൽ":{"ha":1781,"x_min":56,"x_max":1718,"o":"m 1403 154 q 1513 361 1513 154 q 1421 575 1513 494 q 1356 481 1375 510 q 1316 397 1338 451 q 1294 284 1294 342 q 1323 190 1294 226 q 1403 154 1351 154 m 656 376 q 675 208 656 261 q 740 156 694 156 q 806 206 786 156 q 826 388 826 256 q 743 600 826 521 q 656 376 656 528 m 421 174 l 421 -14 q 152 99 249 -14 q 56 403 56 213 q 189 721 56 594 q 518 847 322 847 q 760 794 650 847 q 1049 847 893 847 q 1332 808 1204 847 q 1344 906 1344 847 q 1301 1004 1344 964 q 1189 1044 1257 1044 q 1044 1018 1121 1044 l 1044 1192 q 1186 1214 1126 1214 q 1449 1128 1349 1214 q 1550 894 1550 1043 q 1511 724 1550 808 q 1664 564 1610 657 q 1718 361 1718 471 q 1633 91 1718 196 q 1403 -14 1549 -14 q 1174 76 1258 -14 q 1089 292 1089 165 q 1176 554 1089 429 q 1217 610 1186 568 q 1253 660 1247 651 q 1072 682 1164 682 q 922 672 981 682 q 1031 367 1031 549 q 949 85 1031 185 q 740 -14 868 -14 q 531 80 613 -14 q 449 361 449 174 q 576 676 449 549 q 504 682 543 682 q 329 605 396 682 q 263 403 263 528 q 421 174 263 174 z "},"ൾ":{"ha":1488,"x_min":63,"x_max":1425,"o":"m 1103 154 q 1219 365 1219 154 q 1131 589 1219 496 q 1072 503 1101 550 q 1037 444 1042 456 q 1021 410 1032 433 q 1006 369 1010 386 q 994 277 994 328 q 1023 190 994 226 q 1103 154 1051 154 m 725 338 q 642 79 725 172 q 401 -14 560 -14 q 153 99 243 -14 q 63 417 63 211 q 94 614 63 536 q 163 734 125 692 q 269 805 201 776 q 426 833 338 833 l 426 646 q 309 594 350 646 q 268 415 268 543 q 306 222 268 288 q 406 156 343 156 q 494 198 468 156 q 521 331 521 240 l 521 444 q 635 733 521 619 q 946 847 749 847 q 1039 836 990 847 q 1044 894 1044 863 q 1001 1004 1044 964 q 889 1044 957 1044 q 744 1018 821 1044 l 744 1192 q 886 1214 826 1214 q 1149 1128 1049 1214 q 1250 894 1250 1043 q 1224 753 1250 821 q 1370 586 1315 686 q 1425 365 1425 486 q 1339 86 1425 186 q 1106 -14 1253 -14 q 874 76 958 -14 q 789 292 789 165 q 831 474 789 393 q 911 603 868 546 q 965 676 954 660 q 942 678 957 678 q 785 617 844 678 q 725 444 725 557 l 725 338 z "},"ൿ":{"ha":1875,"x_min":69,"x_max":1813,"o":"m 696 198 q 717 170 696 198 q 804 143 738 143 q 913 197 871 143 q 963 364 954 251 l 646 365 q 696 198 654 253 m 954 529 q 804 690 925 690 q 653 529 683 690 l 954 529 m 1428 242 q 1428 218 1428 242 q 1455 172 1428 194 q 1521 150 1482 150 q 1585 182 1560 150 q 1611 258 1611 214 q 1475 364 1611 357 q 1428 242 1428 290 m 268 260 q 268 236 268 260 q 297 181 268 211 q 369 151 326 151 q 441 186 413 151 q 461 274 469 221 q 446 365 450 322 l 411 365 q 308 338 349 365 q 268 260 268 310 m 1813 247 q 1813 190 1813 247 q 1728 60 1813 133 q 1521 -14 1644 -14 q 1312 56 1397 -14 q 1226 231 1226 125 q 1263 364 1226 300 l 1161 364 q 1050 90 1147 194 q 803 -14 953 -14 q 557 92 654 -14 q 365 -14 493 -14 q 153 62 236 -14 q 69 260 69 138 q 158 456 69 383 q 394 529 247 529 l 454 529 q 576 764 482 681 q 803 847 671 847 q 1031 763 935 847 q 1154 529 1126 679 l 1374 529 q 1440 739 1440 633 q 1396 837 1440 799 q 1284 875 1351 875 q 1140 849 1217 875 l 1140 1022 q 1282 1044 1222 1044 q 1544 962 1443 1044 q 1646 739 1646 879 q 1579 517 1646 625 q 1750 426 1688 492 q 1813 247 1813 361 z "},"‌":{"ha":0,"x_min":-33,"x_max":38,"o":"m -33 1103 l 38 1103 l 38 -481 l -33 -481 l -33 1103 z "},"‍":{"ha":0,"x_min":-207,"x_max":185,"o":"m 25 -481 l -46 -481 l -46 839 l -149 738 l -207 792 l -62 924 l -207 1057 l -150 1110 l -10 972 l 129 1110 l 185 1057 l 40 924 l 185 792 l 128 738 l 25 840 l 25 -481 z "},"–":{"ha":771,"x_min":63,"x_max":708,"o":"m 708 299 l 63 299 l 63 447 l 708 447 l 708 299 z "},"—":{"ha":1161,"x_min":63,"x_max":1099,"o":"m 1099 303 l 63 303 l 63 451 l 1099 451 l 1099 303 z "},"‘":{"ha":371,"x_min":38,"x_max":401,"o":"m 261 601 l 38 601 l 226 964 l 401 964 l 261 601 z "},"’":{"ha":371,"x_min":39,"x_max":403,"o":"m 214 601 l 39 601 l 179 964 l 403 964 l 214 601 z "},"‚":{"ha":371,"x_min":-10,"x_max":354,"o":"m 165 -176 l -10 -176 l 131 186 l 354 186 l 165 -176 z "},"“":{"ha":628,"x_min":38,"x_max":658,"o":"m 525 601 l 322 601 l 490 964 l 658 964 l 525 601 m 257 601 l 38 601 l 233 964 l 401 964 l 257 601 z "},"”":{"ha":628,"x_min":39,"x_max":660,"o":"m 464 601 l 296 601 l 440 964 l 660 964 l 464 601 m 207 601 l 39 601 l 172 964 l 375 964 l 207 601 z "},"„":{"ha":628,"x_min":-3,"x_max":618,"o":"m 422 -176 l 254 -176 l 399 186 l 618 186 l 422 -176 m 165 -176 l -3 -176 l 131 186 l 333 186 l 165 -176 z "},"†":{"ha":776,"x_min":42,"x_max":735,"o":"m 735 563 l 478 563 l 478 0 l 297 0 l 297 563 l 42 563 l 42 726 l 297 726 l 297 936 l 478 936 l 478 726 l 735 726 l 735 563 z "},"‡":{"ha":818,"x_min":63,"x_max":756,"o":"m 756 210 l 499 210 l 499 0 l 318 0 l 318 210 l 63 210 l 63 374 l 318 374 l 318 563 l 63 563 l 63 726 l 318 726 l 318 936 l 499 936 l 499 726 l 756 726 l 756 563 l 499 563 l 499 374 l 756 374 l 756 210 z "},"•":{"ha":590,"x_min":111,"x_max":479,"o":"m 426 626 q 452 599 426 626 q 479 494 479 572 q 426 363 479 417 q 295 310 374 310 q 164 363 217 310 q 111 494 111 415 q 163 626 111 574 q 294 679 215 679 q 426 626 372 679 z "},"…":{"ha":1303,"x_min":83,"x_max":1219,"o":"m 1183 200 q 1201 182 1183 200 q 1219 113 1219 164 q 1183 25 1219 61 q 1096 -11 1147 -11 q 1008 25 1044 -11 q 972 113 972 61 q 1008 200 972 164 q 1096 236 1044 236 q 1183 200 1147 236 m 739 200 q 757 182 739 200 q 775 113 775 164 q 739 25 775 61 q 651 -11 703 -11 q 564 25 600 -11 q 528 113 528 61 q 564 200 528 164 q 651 236 600 236 q 739 200 703 236 m 294 200 q 313 182 294 200 q 331 113 331 164 q 294 25 331 61 q 207 -11 258 -11 q 119 25 156 -11 q 83 113 83 61 q 119 200 83 164 q 207 236 156 236 q 294 200 258 236 z "},"‰":{"ha":1961,"x_min":63,"x_max":1900,"o":"m 1565 324 q 1550 309 1565 324 q 1535 253 1535 294 q 1565 181 1535 211 q 1636 151 1594 151 q 1708 181 1678 151 q 1738 253 1738 211 q 1708 324 1738 294 q 1636 354 1678 354 q 1565 324 1594 354 m 1823 440 q 1861 401 1823 440 q 1900 253 1900 363 q 1823 66 1900 143 q 1636 -11 1746 -11 q 1449 66 1526 -11 q 1372 253 1372 143 q 1449 440 1372 363 q 1636 517 1526 517 q 1823 440 1746 517 m 953 324 q 939 309 953 324 q 924 253 924 294 q 953 181 924 211 q 1025 151 983 151 q 1097 181 1067 151 q 1126 253 1126 211 q 1097 324 1126 294 q 1025 354 1067 354 q 953 324 983 354 m 1212 440 q 1250 401 1212 440 q 1289 253 1289 363 q 1212 66 1289 143 q 1025 -11 1135 -11 q 838 66 915 -11 q 761 253 761 143 q 838 440 761 363 q 1025 517 915 517 q 1212 440 1135 517 m 255 810 q 240 795 255 810 q 225 739 225 781 q 255 667 225 697 q 326 638 285 638 q 398 667 368 638 q 428 739 428 697 q 398 810 428 781 q 326 840 368 840 q 255 810 285 840 m 513 926 q 552 887 513 926 q 590 739 590 849 q 513 552 590 629 q 326 475 436 475 q 140 552 217 475 q 63 739 63 629 q 140 926 63 849 q 326 1003 217 1003 q 513 926 436 1003 m 497 -1 l 315 -1 l 842 982 l 1025 982 l 497 -1 z "},"‹":{"ha":515,"x_min":36,"x_max":458,"o":"m 256 351 l 458 126 l 247 126 l 36 351 l 247 576 l 458 576 l 256 351 z "},"›":{"ha":515,"x_min":57,"x_max":479,"o":"m 479 351 l 268 126 l 57 126 l 260 351 l 57 576 l 268 576 l 479 351 z "},"⁄":{"ha":367,"x_min":-246,"x_max":500,"o":"m -94 0 l -246 0 l 350 988 l 500 988 l -94 0 z "},"€":{"ha":864,"x_min":56,"x_max":808,"o":"m 808 38 q 581 -11 719 -11 q 335 67 443 -11 q 185 279 228 146 l 56 279 l 56 404 l 161 404 q 160 448 160 418 q 161 493 160 478 l 56 493 l 56 618 l 183 618 q 336 842 226 763 q 583 921 446 921 q 808 868 721 921 l 808 664 q 618 731 726 731 q 415 618 482 731 l 663 618 l 663 493 l 376 493 q 374 440 374 463 q 375 404 374 417 l 663 404 l 663 279 l 414 279 q 611 175 476 175 q 808 243 725 175 l 808 38 z "},"₹":{"ha":776,"x_min":83,"x_max":719,"o":"m 719 549 l 569 549 q 491 389 554 450 q 319 310 428 328 l 585 0 l 329 0 l 83 304 l 83 464 l 204 464 q 361 549 333 464 l 83 549 l 83 700 l 353 700 q 200 785 311 785 l 83 785 l 83 936 l 719 936 l 719 785 l 504 785 q 556 700 539 746 l 719 700 l 719 549 z "},"₺":{"ha":817,"x_min":75,"x_max":807,"o":"m 311 0 l 174 0 l 174 289 l 75 239 l 75 393 l 174 443 l 174 567 l 75 517 l 75 671 l 174 721 l 174 910 l 376 910 l 376 822 l 500 885 l 500 731 l 376 668 l 376 544 l 500 607 l 500 453 l 376 390 l 376 176 q 547 300 483 208 q 610 504 610 392 l 807 504 q 682 160 807 311 q 526 44 622 88 q 311 0 429 0 z "},"₽":{"ha":757,"x_min":-17,"x_max":731,"o":"m 578 107 l 304 107 l 304 0 l 90 0 l 90 107 l -17 107 l -17 249 l 90 249 l 90 331 l -17 331 l -17 472 l 90 472 l 90 910 l 396 910 q 647 829 563 910 q 731 615 731 749 q 640 406 731 482 q 396 331 549 331 l 304 331 l 304 249 l 578 249 l 578 107 m 371 746 l 304 746 l 304 472 l 358 472 q 528 617 528 472 q 371 746 528 746 z "},"ℓ":{"ha":721,"x_min":42,"x_max":668,"o":"m 661 38 q 460 -7 583 -7 q 265 61 338 -7 q 189 257 193 129 q 126 256 172 256 q 42 265 79 256 l 42 429 q 121 418 86 418 q 189 421 156 418 l 189 646 q 245 862 189 781 q 424 943 301 943 q 608 878 547 943 q 668 697 668 814 q 595 470 668 581 q 389 303 522 360 l 389 288 q 423 188 389 221 q 525 156 457 156 q 661 201 593 156 l 661 38 m 389 638 l 389 488 q 501 690 501 567 q 449 763 501 763 q 389 638 389 763 z "},"™":{"ha":1046,"x_min":14,"x_max":1019,"o":"m 261 460 l 131 460 l 131 822 l 14 822 l 14 936 l 376 936 l 376 822 l 261 822 l 261 460 m 879 792 q 826 614 865 714 l 771 465 l 663 465 q 558 792 576 701 q 565 711 561 769 q 563 614 568 653 l 550 460 l 424 460 l 464 936 l 601 936 q 715 614 701 678 q 833 936 731 672 l 971 936 l 1019 460 l 893 460 q 875 705 875 663 q 879 792 875 747 z "},"Ω":{"ha":1097,"x_min":63,"x_max":1035,"o":"m 486 0 l 63 0 l 63 172 l 242 172 q 110 488 110 282 q 227 823 110 694 q 551 951 344 951 q 876 824 758 951 q 993 489 993 696 q 858 172 993 282 l 1035 172 l 1035 0 l 611 0 l 611 172 q 726 276 688 193 q 764 484 764 358 q 709 683 764 610 q 551 757 654 757 q 394 683 449 757 q 339 485 339 610 q 375 277 339 360 q 486 172 411 194 l 486 0 z "},"℮":{"ha":1164,"x_min":8,"x_max":1100,"o":"m 310 504 l 797 504 l 797 747 q 549 846 701 846 q 404 816 468 846 q 310 740 340 786 l 310 504 m 553 -14 q 167 123 326 -14 q 8 456 8 260 q 168 801 8 653 q 553 949 328 949 q 939 801 778 949 q 1100 454 1100 653 l 1100 404 l 310 404 l 310 197 q 416 115 351 146 q 553 85 481 85 q 832 229 729 85 l 1038 229 q 553 -14 851 -14 z "},"∂":{"ha":767,"x_min":49,"x_max":697,"o":"m 371 167 q 513 381 506 167 q 376 429 460 429 q 290 392 324 429 q 256 296 256 356 q 285 201 256 236 q 371 167 315 167 m 697 394 q 611 93 697 200 q 371 -14 525 -14 q 133 75 217 -14 q 49 300 49 164 q 131 519 49 436 q 332 601 214 601 q 483 558 419 601 q 140 936 404 772 l 419 936 q 622 686 546 839 q 697 394 697 533 z "},"∆":{"ha":946,"x_min":49,"x_max":897,"o":"m 472 781 l 275 172 l 669 172 l 472 781 m 49 0 l 49 140 l 340 936 l 610 936 l 897 140 l 897 0 l 49 0 z "},"∏":{"ha":899,"x_min":-21,"x_max":808,"o":"m 333 60 q 81 -258 333 -258 q -21 -240 31 -258 l -21 -56 q 49 -74 13 -74 q 103 -42 86 -74 q 119 58 119 -11 l 119 936 l 808 936 l 808 -250 l 593 -250 l 593 754 l 333 754 l 333 60 z "},"∑":{"ha":672,"x_min":42,"x_max":686,"o":"m 686 -106 l 686 -278 l 42 -278 l 42 -106 l 244 339 l 42 764 l 42 936 l 686 936 l 686 764 l 267 764 l 464 339 l 265 -106 l 686 -106 z "},"−":{"ha":818,"x_min":63,"x_max":756,"o":"m 756 382 l 63 382 l 63 561 l 756 561 l 756 382 z "},"∕":{"ha":678,"x_min":-29,"x_max":717,"o":"m 122 0 l -29 0 l 567 988 l 717 988 l 122 0 z "},"∙":{"ha":439,"x_min":96,"x_max":343,"o":"m 307 556 q 325 538 307 556 q 343 468 343 519 q 307 381 343 417 q 219 344 271 344 q 132 381 168 344 q 96 468 96 417 q 132 556 96 519 q 219 592 168 592 q 307 556 271 592 z "},"√":{"ha":1146,"x_min":38,"x_max":1210,"o":"m 725 -264 l 489 -264 l 219 483 l 38 483 l 79 640 l 393 640 l 507 299 q 610 -69 579 83 q 700 299 653 147 l 996 1260 l 1210 1260 l 725 -264 z "},"∞":{"ha":1153,"x_min":63,"x_max":1090,"o":"m 819 389 q 913 478 913 389 q 889 540 913 515 q 827 565 865 565 q 758 547 789 565 q 715 513 728 528 q 682 471 703 499 q 725 431 710 444 q 767 403 740 417 q 819 389 794 389 m 264 536 q 251 524 264 536 q 239 471 239 513 q 264 406 239 429 q 333 383 289 383 q 471 478 406 383 q 339 560 389 560 q 264 536 289 560 m 321 229 q 129 291 196 229 q 63 467 63 353 q 135 648 63 581 q 335 715 207 715 q 575 590 463 715 q 833 719 688 719 q 1023 656 956 719 q 1090 481 1090 593 q 1018 301 1090 369 q 828 233 946 233 q 576 360 685 233 q 517 299 542 321 q 439 253 493 278 q 321 229 385 229 z "},"∫":{"ha":453,"x_min":-40,"x_max":508,"o":"m 335 -6 q 263 -204 335 -133 q 65 -275 192 -275 q -40 -261 0 -275 l -40 -97 q 42 -112 -1 -112 q 133 -6 133 -112 l 133 713 q 205 911 133 840 q 403 982 276 982 q 508 968 468 982 l 508 804 q 428 819 469 819 q 335 713 335 819 l 335 -6 z "},"≈":{"ha":818,"x_min":29,"x_max":785,"o":"m 565 217 q 412 248 493 217 q 288 279 331 279 q 217 261 246 279 q 157 206 189 243 l 29 307 q 247 444 128 444 q 413 413 331 444 q 532 382 496 382 q 596 400 568 382 q 657 457 624 418 l 785 354 q 565 217 689 217 m 565 500 q 412 531 493 500 q 288 563 331 563 q 217 544 246 563 q 157 489 189 526 l 29 590 q 247 728 128 728 q 413 697 331 728 q 532 665 496 665 q 596 683 568 665 q 657 740 624 701 l 785 638 q 565 500 689 500 z "},"≠":{"ha":818,"x_min":63,"x_max":756,"o":"m 756 231 l 347 231 l 296 119 l 192 119 l 243 231 l 63 231 l 63 392 l 319 392 l 394 553 l 63 553 l 63 714 l 471 714 l 522 825 l 626 825 l 575 714 l 756 714 l 756 553 l 499 553 l 424 392 l 756 392 l 756 231 z "},"≤":{"ha":811,"x_min":56,"x_max":749,"o":"m 749 115 l 56 115 l 56 276 l 749 276 l 749 115 m 749 651 l 199 582 l 749 513 l 749 338 l 56 457 l 56 707 l 749 826 l 749 651 z "},"≥":{"ha":811,"x_min":63,"x_max":756,"o":"m 756 115 l 63 115 l 63 276 l 756 276 l 756 115 m 756 707 l 756 457 l 63 338 l 63 513 l 613 582 l 63 651 l 63 826 l 756 707 z "},"◊":{"ha":839,"x_min":40,"x_max":799,"o":"m 522 0 l 314 0 l 40 468 l 314 936 l 522 936 l 799 468 l 522 0 m 246 468 q 419 157 368 264 q 597 468 457 240 q 419 779 474 668 q 246 468 381 694 z "},"◌":{"ha":917,"x_min":61,"x_max":856,"o":"m 374 733 q 366 742 374 733 q 357 778 357 750 q 374 822 357 806 q 418 839 392 839 q 462 822 444 839 q 479 778 479 806 q 462 733 479 750 q 418 717 444 717 q 374 733 392 717 m 594 696 q 581 696 594 696 q 550 714 568 696 q 532 758 532 732 q 549 801 532 783 q 594 819 567 819 q 638 802 621 819 q 654 758 654 785 q 637 714 654 732 q 594 696 619 696 m 681 619 q 673 627 681 619 q 664 663 664 636 q 681 707 664 689 q 725 725 699 725 q 769 708 751 725 q 786 663 786 690 q 769 619 786 636 q 725 601 751 601 q 681 619 699 601 m 750 455 q 742 464 750 455 q 733 499 733 472 q 750 542 733 525 q 794 560 767 560 q 838 542 821 560 q 856 499 856 525 q 838 455 856 472 q 794 438 821 438 q 750 455 767 438 m 738 269 q 728 277 738 269 q 719 313 719 286 q 738 357 719 339 q 781 375 756 375 q 824 357 807 375 q 842 313 842 339 q 824 269 842 286 q 781 251 807 251 q 738 269 756 251 m 635 133 q 627 141 635 133 q 618 176 618 150 q 635 220 618 203 q 679 238 653 238 q 724 220 706 238 q 742 176 742 203 q 724 133 742 150 q 679 115 706 115 q 635 133 653 115 m 467 58 q 458 67 467 58 q 450 103 450 75 q 467 147 450 131 q 511 164 483 164 q 556 147 539 164 q 574 103 574 129 q 556 59 574 76 q 511 42 539 42 q 467 58 483 42 m 336 61 q 323 61 336 61 q 292 79 310 61 q 274 124 274 97 q 292 168 274 150 q 336 186 310 186 q 380 168 363 186 q 397 124 397 150 q 380 79 397 97 q 336 61 363 61 m 150 185 q 142 194 150 185 q 133 229 133 203 q 151 273 133 256 q 194 290 168 290 q 238 273 221 290 q 256 229 256 256 q 238 185 256 203 q 194 168 221 168 q 150 185 167 168 m 78 347 q 70 356 78 347 q 61 390 61 364 q 78 435 61 417 q 122 453 96 453 q 166 435 149 453 q 183 391 183 418 q 166 347 183 364 q 122 331 149 331 q 78 347 96 331 m 97 522 q 88 530 97 522 q 79 565 79 539 q 97 609 79 592 q 142 626 115 626 q 186 609 168 626 q 204 565 204 592 q 186 522 204 539 q 142 504 168 504 q 97 522 115 504 m 254 656 q 241 656 254 656 q 210 673 228 656 q 193 717 193 690 q 210 762 193 744 q 254 779 228 779 q 298 762 281 779 q 315 717 315 744 q 298 673 315 690 q 254 656 281 656 z "},"ﬁ":{"ha":799,"x_min":42,"x_max":739,"o":"m 335 0 l 133 0 l 133 556 l 42 556 l 42 704 l 133 704 l 133 731 q 205 929 133 858 q 408 1000 276 1000 q 665 942 539 1000 l 665 778 q 436 838 533 838 q 360 814 385 838 q 335 731 335 790 l 335 704 l 739 704 l 739 0 l 536 0 l 536 556 l 335 556 l 335 0 z "},"ﬂ":{"ha":824,"x_min":42,"x_max":740,"o":"m 467 556 l 335 556 l 335 0 l 133 0 l 133 556 l 42 556 l 42 704 l 133 704 l 133 731 q 205 929 133 858 q 416 1000 276 1000 q 740 913 556 1000 l 740 0 l 538 0 l 538 824 q 435 838 482 838 q 361 815 388 838 q 335 731 335 793 l 335 704 l 467 704 l 467 556 z "}}}
